<?xml version="1.0" encoding="utf-8"?>
<!-- Generator: Adobe Illustrator 25.3.1, SVG Export Plug-In . SVG Version: 6.00 Build 0)  -->
<svg version="1.1" id="Layer_1" xmlns="http://www.w3.org/2000/svg" xmlns:xlink="http://www.w3.org/1999/xlink" x="0px" y="0px"
	 viewBox="0 0 288 160" style="enable-background:new 0 0 288 160;" xml:space="preserve">
<style type="text/css">
	.st0{fill:#010202;}
</style>
<g id="katman_1">
	<g>
		<g>
			<path class="st0" d="M68.5,39.4c0,0,0-0.9,0-1.9c0.2-3.6-4.7-5.5-4.8-0.3c0,2,0,1.2,0,2.4c0,2.4,3.8,3.1,3.8,3V50H51.9v-7.3
				c0,0,3-1.2,3-2.8s0-3.4,0-4.7s-2.4-2.4-2.4-2.4v-6.9h11.2v0.7c0.7,0.2,1.4,0.2,1.9,0c12.6-5.3,9.7,12.3,9.7,12.5
				C75.2,39.2,68.5,39.4,68.5,39.4z"/>
			<path class="st0" d="M69,42.6h6.7v7.5H69V42.6z"/>
			<path class="st0" d="M146.3,54l14.2-1.4c0.2,2.8,0.3,5.3,0.9,8c0.7,3.8,5.5,2.2,5.5,2.2l0.9,11.2c0,0-4.2-0.7-3.8,3.4
				c0.3,3.6,0.2,1.2,0.7,5.9c0.5,4.7,5.3,3.3,5.3,3.3l0.3,2l-24,3.1l-0.2-1.9c2.2-0.3,3.8-2.2,3.8-4.5c-0.2-3.8-0.2-4.2-0.5-7.5
				c-0.3-3.3-4.4-1.9-4.4-1.9l-1.2-10.8c0,0,3.8,0.3,3.6-3.1C147.3,58.9,146.3,54,146.3,54z"/>
			<path class="st0" d="M172.9,75.5c3,13.1,3.3,12.5,3.3,12.5l13-3.8l-1.6-5.3l17.5-5.2c0-0.2-0.5-1.4-2.8-9.4
				C199.4,53.7,168.2,55.1,172.9,75.5z M193.3,71l-6.9,2.2c0,0-0.2,0-0.7-2.6c-0.5-2.6,5.7-4.8,6.9-1.7C193.8,72,193.3,71,193.3,71z
				"/>
			<path class="st0" d="M204.7,55.4l16.1-7.1l1.1,1.6c0.2,0.2,0.2,0.2,0.2,0.3c0,0.2,0.2,0,0.3,0c18.3-18.9,23.5,4.7,25.4,8.6
				s3.8,2.8,3.8,2.8l0.7,1.6l-15.6,7.1c0,0-4-8.1-5.5-11.2s-6.4-3.1-4.4,2c2,5.1,2,5.2,3,7.3c0.5,1.2,1.9,1.9,3.1,1.6l0.7,1.7
				l-19.5,7.6l-0.7-1.6c0,0,3-1.9,2-4c-0.9-2-2.8-6.7-3.8-8.8c-0.5-1.7-2.4-2.6-4.2-2L204.7,55.4z"/>
			<path class="st0" d="M106.7,96.2h20.4v-2h-20.4V96.2L106.7,96.2z M127.3,99.9v-2h-20.4v2H127.3z M127.3,103.2v-2h-20.4v2H127.3z"
				/>
			<polygon class="st0" points="146.3,93.3 170.3,90.4 170.7,92.8 146.6,95.5 			"/>
			<polygon class="st0" points="147,99 146.6,96.6 170.8,93.8 171.2,96.2 			"/>
			<polygon class="st0" points="147.5,102.6 147.1,100.4 171.3,97.4 171.9,99.9 			"/>
			<polygon class="st0" points="176.9,89.1 207.1,80.7 207.8,82.9 177.9,91.4 			"/>
			<path class="st0" d="M180.3,94.2c-0.5,0-1.7-1.9-1.7-1.9L208,84l0.7,2.4C208.7,86.2,180.8,94.2,180.3,94.2z"/>
			<path class="st0" d="M189.5,95.4c-2.6,0.7-5.5,0.5-8.1-0.3l27.5-7.6l0.7,2.2C209.7,89.7,193.8,94.2,189.5,95.4z"/>
			<polygon class="st0" points="194.9,80.2 206.1,76.9 206.8,79.3 195.5,82.4 			"/>
			<polygon class="st0" points="214.4,80.5 234.3,72.7 235.3,75.1 215.3,82.8 			"/>
			<polygon class="st0" points="216.4,85.9 215.6,83.7 235.6,76 236.7,78.2 			"/>
			<polygon class="st0" points="217.7,89.3 216.8,87.3 237,79.3 237.9,81.5 			"/>
			<polygon class="st0" points="237.6,71.4 252.9,64.5 254,66.5 238.4,73.6 			"/>
			<polygon class="st0" points="239.8,76.7 238.9,74.5 254.3,67.6 255.4,69.6 			"/>
			<polygon class="st0" points="241.4,80 240.5,77.9 255.9,70.9 257.1,72.9 			"/>
			<path class="st0" d="M274.9,50.9c0,0,0.3,1.1,0.2,1.2c-0.5,0.3-15.4,10-15.4,10l1.4,1.9l25.8-16.8l-0.5-4.2l0,0
				c0-0.2-4.5-13.7-20.8-2c-0.3,0.3-0.9,0.7-1.4,0.9c-0.5,0.3-1.1,0.3-1.6,0.2c-0.3-0.2-0.7-0.5-1.1-0.9c-2.2-3,1.2-4.5,3-4
				c0.5,0.2,0.9,0.5,1.4,0.9c0.7,0.5,11.4-5.5,10.6-6.9c-0.9-1.4-6.4-8.4-6.4-8.4l-20.6,12.8c0,0-6.6,4.4-1.4,11.4l2,3.1
				c-0.3-0.3-0.9-1.2,1.2,1.6c4.4,5.7,12.3,0.5,12.3,0.5s-0.3,0.2,4.5-2.2C273,47.5,274.9,50.9,274.9,50.9"/>
			<path class="st0" d="M261.8,65.1L287,48.5c0,0,0.2,2.8-0.3,3.1c-2,1.4-23.5,15.4-23.5,15.4L261.8,65.1z"/>
			<path class="st0" d="M263.9,68.2l22.6-15c-0.5,1.9-1.6,3.6-3.1,5c-2.4,1.6-18.3,11.9-18.3,11.9L263.9,68.2z"/>
			<polygon class="st0" points="257.9,59.1 268,52.5 269.2,54.6 259.2,61 			"/>
			<path class="st0" d="M2.8,1.1h38.9c4.5-0.3,8.4,3,8.8,7.5c0,0.5,0,0.9,0,1.4c0,6.7,0,16.4,0,24.4c0,3.1,0,6.1,0,8.3
				c0,4.4-3.3,7.8-7.6,8c-0.2,0-0.2,0-0.3,0H1.8V39.9c0,0,5.5,0.3,6.7-4c0.5-1.7,0.7-3.4,0.7-5.2c0-5.3,0.2-12.3,0-15.4
				c0-0.5-0.2-1.1-0.2-1.4c0.2-3-6.4-3.4-6.4-3.4L2.8,1.1z M24.9,11.7v28.4c0,0,8.1,1.4,8.8-4.4c0.5-4.7,0.2-15,0.2-20.2
				S24.9,11.7,24.9,11.7z"/>
			<path class="st0" d="M106,116.6c0-0.2,0.2-0.2,0.2-0.2c0.3-0.3,1.1-0.2,1.2,0.2l0,0l0,0H106z"/>
			<path class="st0" d="M106.7,107.9c0.3,0,0.3,0.3,0.7,0.5h0.2c0-0.3,0.2-0.7-0.2-0.9c-0.3-0.2-0.7-0.3-1.1-0.2
				C106.7,107.5,106.5,107.9,106.7,107.9z"/>
			<path class="st0" d="M105.4,106.9c0.2,0.2,0.3,0.2,0.3,0c0.2,0,0-0.2,0-0.3c0-0.2-0.2-0.3-0.5-0.3l0,0
				C105.8,106.6,105.3,106.8,105.4,106.9z"/>
			<path class="st0" d="M109.3,108.7c0.2,0.2,0.7,0.2,0.7,0c0.2-0.5-0.5-0.5-0.9-0.5C109.1,108.3,109.1,108.7,109.3,108.7z"/>
			<path class="st0" d="M109.3,110.2c-0.3,0-0.5,0.3-0.3,0.5c0.2,0.2,0,0.2,0.2,0.3c0.2,0,0.3,0,0.3,0c0.2,0,0.3-0.3,0.2-0.5l0,0
				C109.6,110.4,109.5,110.2,109.3,110.2z"/>
			<path class="st0" d="M107.6,110.6c-0.2,0-0.3,0-0.5,0.2v0.2c0.2,0.2,0.5,0.2,0.9,0C107.9,110.8,107.8,110.8,107.6,110.6z"/>
			<path class="st0" d="M105.1,108.8C105.1,108.8,105,108.7,105.1,108.8c-0.2,0.2-0.3,0.2-0.2,0.2c0.1,0,0.2,0.2,0.3,0
				C105.4,108.8,105.1,108.8,105.1,108.8z"/>
			<path class="st0" d="M103.7,110.8C103.7,110.8,103.6,110.8,103.7,110.8c-0.2,0-0.2,0.2-0.2,0.3c0,0,0.2,0,0.3,0
				C104,111.1,103.9,110.8,103.7,110.8z"/>
			<path class="st0" d="M111.7,108.8c-0.2,0-0.3,0-0.5-0.2c-0.2-0.2-0.3,0-0.5,0c0.2,0.2,0.2,0.3,0,0.5c0,0-0.2,0.3-0.3,0.2
				c0.3,0.3,0.2,1.1,0.5,1.4c0,0.2,0.3,0.2,0.5,0.3c0.2,0.2,0-0.2,0.2-0.2c0-0.3,0-0.7-0.3-1.1c-0.2-0.2-0.2-0.3,0-0.5l0.2-0.2
				C111.4,109,111.7,109,111.7,108.8c-0.3-0.2-0.7-0.2-1.1-0.3"/>
			<path class="st0" d="M111.2,108.2C111.2,108.2,111.2,108.3,111.2,108.2c0,0.3,0.2,0.3,0.2,0.3l0,0c0,0,0.2,0,0.2-0.2
				C111.6,108.1,111.2,108.2,111.2,108.2z"/>
			<path class="st0" d="M111.4,107.3c0.2,0.2,0.5,0.3,0.3,0.7c0.2,0,0.2,0.3,0.3,0.2c0.2-0.2,0-0.5,0.3-0.9
				C112,107.1,111.7,107.1,111.4,107.3C111.4,107.1,111.4,107.1,111.4,107.3z"/>
			<path class="st0" d="M114.2,106.3c-0.2,0-0.3,0-0.2,0.3c0.2,0,0.2,0,0.3,0C114.3,106.5,114.2,106.3,114.2,106.3z"/>
			<path class="st0" d="M113.8,108.5c-0.2,0.3-0.3,0.7,0,0.7s0.7,0,0.9,0.2c0.2,0.2-0.2,0.3-0.2,0.7c0.7,0,0.7-0.7,0.5-1.1
				C114.8,108.5,114.3,108.3,113.8,108.5L113.8,108.5z"/>
			<path class="st0" d="M113.6,112.1C113.6,112.1,113.4,112.1,113.6,112.1c-0.3,0.3,0,0.7,0.2,0.7c0.2,0,0.2-0.3,0.3-0.2
				c0.2,0.2,0.3,0.3,0.5,0.3c-0.2,0,0,0.3-0.2,0.3c-0.5,0.3-1.2,0.2-1.7-0.2c-0.2-0.2-0.2-0.3-0.2-0.5c-0.2,0-0.5,0-0.7,0
				c-0.1,0,0,0.3,0,0.5c0,0.2-0.3,0.2-0.5,0.3c-0.2,0.1,0,0.2,0,0.2c0.2,0,0.3,0,0.3,0c0.2,0,0.2-0.2,0.2-0.2c0.3,0,0.5,0,0.9,0
				c0.3,0,0.2,0.3,0.3,0.3c0.2,0,0.3,0,0.3,0c0.3,0.5,0.9,0.9,1.2,0.5s0.5-0.3,0.5-0.2c0,0.2,0,0.7,0.2,0.9c0.2,0.2,0.3-0.2,0.3-0.3
				c0-0.1,0-0.2,0.2,0c0-0.3-0.3-0.5-0.3-0.9l0,0c0.2-0.2,0.5-0.2,0.7,0v0.2c0.2,0.3,0.2,0.5,0.2,0.9c0,0.5-0.2,1.1-0.5,1.4
				c-0.3,0.2-0.9,0.2-1.4,0c0.3-0.5-0.3-0.7-0.5-1.2h-0.3v0.3c0,0.5,0.3,0.9,0.7,1.1c0.2,0.2-0.2,0.5,0,0.9c0.2,0.3,0.5,0.3,0.9,0.5
				c0.3,0.2,0.7,0.5,1.1,0.3c0.3-0.2-0.3-0.5-0.2-0.7c0.1-0.1,0.3,0,0.7,0c0-0.9,0-1.9,0-2.8c0-0.2,0.2-0.2,0.2-0.2l0,0v-0.2
				c0,0-0.3-0.3-0.3-0.5c0-0.2-0.2-0.2-0.3-0.2c-0.1,0,0-0.3,0-0.5c-0.3-0.3-0.3-0.7-0.3-1.1c-0.3,0-0.3,0.5-0.5,0.7
				c-0.3,0.2-0.9,0.2-1.2-0.2c-0.3-0.3-0.5-0.2-0.9-0.2"/>
			<path class="st0" d="M110.1,112h0.2c0.2-0.2,0.2-0.9-0.2-0.5C110,111.5,110,111.6,110.1,112C110,112,110.1,112,110.1,112z"/>
			<path class="st0" d="M109.5,113.2c0.2,0.2,0.3,0,0.5,0.2c0.2,0.2,0,0.5,0.2,0.3c0.3-0.2,0.3-0.5,0.2-0.9
				c-0.2-0.3-0.7-0.3-1.1-0.3C109.6,112.7,109.5,112.9,109.5,113.2z"/>
			<path class="st0" d="M112,114.9h-0.2c0,0,0,0.5,0,0.9c0.3-0.2,0.7-0.2,1.1,0c0.5,0.3,0.3,0.9-0.3,1.1v-0.2c0,0-0.5,0-0.5,0.3
				c0,0.3,0.2,0,0.2,0s0,0.3,0.2,0.3c0.2,0,0.2,0,0.2,0c0.3,0.3,0,1.2,0.3,0.9c0.3-0.3,0.2-0.9-0.2-1.1V117h0.2c0.2,0,0-0.2,0.2-0.3
				c0.2-0.2,0.2,0,0.2,0s0.2-0.3,0.3-0.3c-0.5-0.3-0.5-0.7-0.5-1.4c0-0.3-0.3-0.5-0.7-0.5c0,0-0.2,0-0.2,0.2
				C112,114.7,112.2,114.9,112,114.9z"/>
			<path class="st0" d="M110.7,114.9L110.7,114.9c0.2-0.3,0.2-0.7,0.2-1.1h-0.2C110.5,114.3,110.3,114.7,110.7,114.9z"/>
			<path class="st0" d="M110.7,116.5c0.2,0,0.3-0.2,0.3-0.3V116c0-0.2-0.2-0.2-0.3-0.2l0,0C110.3,116.1,110.3,116.6,110.7,116.5z"/>
			<path class="st0" d="M108.4,116.3c0.2,0.3,0.5,0.3,0.5,0.2c0-0.1,0-0.3,0-0.5l-0.2-0.2C108.7,115.8,108.7,116.5,108.4,116.3z"/>
			<path class="st0" d="M110.7,118.9c-0.2,0-0.2,0-0.3,0v0.2C110.3,119.1,110.7,119.1,110.7,118.9
				C110.9,118.7,110.7,118.9,110.7,118.9z"/>
			<path class="st0" d="M105.4,113.9c0,0.2,0,0.2,0,0.3c0.3,0.2,0.3,0.2,0.5,0.5c0.3-0.2,0.3-0.5,0.9-0.7c0.5-0.2-0.3-0.5-0.5-0.5
				c-0.2,0-0.3,0.3-0.5,0.5C105.6,113.9,105.6,113.7,105.4,113.9z"/>
			<path class="st0" d="M112.9,110.6c0.2,0,0.5,0.2,0.7,0c0.2-0.2,0-0.7-0.3-0.5C112.9,110.2,112.9,110.4,112.9,110.6z"/>
			<path class="st0" d="M112.4,111.6h0.2c0-0.2,0-0.3,0-0.5c0,0-0.2-0.2-0.2,0C112.4,111.3,112.4,111.5,112.4,111.6z"/>
			<path class="st0" d="M116.7,108.3v-0.2c-0.2-0.2-0.3-0.3-0.5-0.3c-0.2-0.2-0.5,0-0.5,0C115.3,108.5,116,108.5,116.7,108.3z"/>
			<path class="st0" d="M117.6,108.8c0,0.2,0,0.3,0,0.5h0.2c0,0,0,0.3,0.2,0.3c0.2,0,0.3,0,0.3,0c0.2-0.3,0.2-0.9,0-1.4h-0.2
				C118.1,108.3,117.8,108.7,117.6,108.8z"/>
			<path class="st0" d="M115.9,110.4c-0.2-0.2-0.3,0-0.3,0v0.2C115.7,110.8,115.9,110.8,115.9,110.4
				C115.9,110.6,115.9,110.6,115.9,110.4z"/>
			<path class="st0" d="M116.9,111.5C116.7,111.3,116.7,111.3,116.9,111.5c-0.2,0-0.2,0.2-0.2,0.2S116.9,111.6,116.9,111.5
				C116.9,111.1,116.9,111.5,116.9,111.5z"/>
			<path class="st0" d="M114.5,111.8c0.3,0,0.2-0.5,0-0.7c-0.2-0.1-0.2,0-0.2,0S114.3,111.8,114.5,111.8z"/>
			<path class="st0" d="M119.2,110.8c0.2-0.2,0.5,0.3,0.5,0s0.3-0.3,0.3-0.7s-0.2-0.2-0.2,0c0,0.2,0.3-0.3,0.2-0.3
				c-0.2-0.2-0.5-0.2-0.9,0C119,110.1,119.3,110.4,119.2,110.8z"/>
			<path class="st0" d="M120.9,109.2c0,0.2,0,0.3,0.2,0.3c0.2,0,0.9,0.2,1.1,0C122.1,109,121.2,109.2,120.9,109.2z"/>
			<path class="st0" d="M118.4,111.5c-0.2,0-0.3,0-0.3,0.2c-0.3,0-0.3-0.5-0.5-0.3c-0.2,0.2,0,0.5-0.3,0.5c0,0.2,0,0.3,0.2,0.5
				c0.3,0.3,0.5,0,0.7-0.3c0,0.3,0.2,0.7,0.5,0.9c0.2,0.2,0.7,0.3,1.1,0.2c0.3-0.2,0-0.3-0.2-0.5C119.2,112,119,111.6,118.4,111.5
				c0-0.2-0.2-0.2-0.3,0v0.2"/>
			<path class="st0" d="M116.9,113c0.2,0.2,0,0.5,0.3,0.5s0.2,0,0.3,0c0-0.3-0.2-0.9-0.5-0.7C116.7,113,117.1,113,116.9,113z"/>
			<path class="st0" d="M114.2,118.5v0.2c0.2,0.2,0.5,0.2,0.9,0c0.2,0,0-0.3-0.2-0.3C114.6,118.3,114.5,118.3,114.2,118.5
				C114.3,118.3,114.2,118.5,114.2,118.5z"/>
			<path class="st0" d="M115.7,119.4c0.2,0,0.3,0,0.5,0c0.2,0,0-0.5,0-0.7c-0.2,0.2-0.3,0.3-0.5,0.5
				C115.5,119.5,115.7,119.4,115.7,119.4z"/>
			<path class="st0" d="M115.3,119.6c-0.2,0-0.3-0.2-0.3,0c-0.2,0.2-0.2,0.3,0,0.5l0,0c0.2,0,0.3,0,0.3,0S115.7,119.6,115.3,119.6z"
				/>
			<path class="st0" d="M116.2,119.9c-0.2,0-0.2,0-0.3,0c-0.1,0,0,0.2,0,0.2S116.2,120.1,116.2,119.9z"/>
			<path class="st0" d="M118.2,119.7c-0.2-0.3-0.2-0.5-0.2-0.9c0-0.3-0.5-0.2-0.5,0c-0.2,0.2-0.3,0.5-0.5,0.7
				c-0.2,0.5-0.3,1.4,0.3,1.6c0-0.3,0.2-0.7,0.5-0.7c0,0,0,0,0-0.2c0-0.2,0-0.2,0.2,0c0.2,0.2,0,0.2,0.2,0.2c0.2,0,0.3-0.2,0.3-0.5
				C118.4,119.9,118.4,119.9,118.2,119.7C118.4,119.9,118.2,119.7,118.2,119.7z"/>
			<path class="st0" d="M118.8,121.6c0.2,0.2,0.5,0.5,0.7,0.3c0.1-0.2,0-0.5-0.2-0.9c-0.2-0.2-0.3-0.3-0.7-0.3l0,0
				C118.2,121,118.6,121.5,118.8,121.6z"/>
			<path class="st0" d="M118.2,121.6C118.2,121.6,118.2,121.8,118.2,121.6c0,0.2,0,0.3,0.2,0.3C118.4,121.8,118.4,121.6,118.2,121.6
				z"/>
			<path class="st0" d="M116.7,121.5L116.7,121.5c-0.2,0.2-0.2,0.3-0.2,0.7h0.2C116.7,121.8,116.9,121.6,116.7,121.5z"/>
			<path class="st0" d="M115.9,121.8c-0.2,0.2,0,0.3,0,0.5c0,0.2,0.2,0,0.2,0s0.2-0.5,0-0.7C116,121.6,115.9,121.6,115.9,121.8
				C115.9,121.6,115.7,121.8,115.9,121.8z"/>
			<path class="st0" d="M116.9,123.2c-0.5,0.2-0.7,1.1-1.2,0.9c0,0.2,0,0.3,0,0.5h0.2c0,0,0-0.2,0-0.3c0-0.1,0.7,0.2,0.9,0
				C117.1,124.1,117.1,123.6,116.9,123.2L116.9,123.2z"/>
			<path class="st0" d="M120.4,125.3c0.2,0,0-0.3,0.2-0.5c0.2-0.2,0.2,0,0.3-0.2c0.2-0.2,0-0.2,0-0.2h-0.3c0-0.3-0.3-0.5-0.7-0.3
				c-0.2,0-0.2,0-0.2,0.2C119.2,124.6,119.8,125.5,120.4,125.3z"/>
			<path class="st0" d="M118.6,123.4c0.3,0,0.5-0.3,0.3-0.7c-0.2-0.3-0.5-0.2-0.5,0C118.4,123,118.4,123.4,118.6,123.4z"/>
			<path class="st0" d="M125.9,126.7c-0.2,0-0.3,0.2-0.3,0.3c-0.2,0-0.2,0.2-0.3,0v0.2c0.2,0,0.3,0,0.5,0.3c0.2,0.3,0.2,0,0.2,0
				c0.2-0.2,0.3-0.3,0.3-0.7C126.2,126.9,125.9,126.7,125.9,126.7L125.9,126.7z"/>
			<path class="st0" d="M124.8,127.7C124.8,127.5,124.8,127.7,124.8,127.7c-0.2,0-0.3,0.3-0.2,0.3s0.3,0,0.3-0.2
				C125,127.7,125,127.7,124.8,127.7z"/>
			<path class="st0" d="M122.8,126.5c0-0.2,0-0.3,0-0.5c-0.2-0.2-0.5-0.2-0.7,0C121.5,126.3,122.4,126.9,122.8,126.5z"/>
			<path class="st0" d="M120.7,126.7C120.7,126.7,120.9,126.7,120.7,126.7c0.2,0,0.2-0.3,0.2-0.5h-0.3
				C120.7,126.1,120.5,126.5,120.7,126.7z"/>
			<path class="st0" d="M116.9,125.3c0,0,0.2,0,0.3,0c0.2-0.2,0.2-0.3,0-0.5c0,0-0.2,0-0.2,0.2C116.9,124.9,116.9,125.1,116.9,125.3
				z"/>
			<path class="st0" d="M129.9,128.9c0-0.2,0-0.3,0-0.3c-0.3-0.2-0.9-0.3-1.1,0s-0.3,0.3-0.5,0.5c0.2,0,0.2,0.2,0.2,0.2
				c0.3,0,0.5-0.2,0.9-0.2c0.2,0,0.5-0.2,0.5-0.3"/>
			<path class="st0" d="M130,129.3c-0.2,0.2-0.2,0.3-0.2,0.5h0.2c0-0.2,0-0.2,0-0.2h0.3c0-0.2,0-0.2,0-0.3
				C130.4,129.3,130.2,129.3,130,129.3L130,129.3z"/>
			<path class="st0" d="M132.4,127.7c0.2,0.9-0.3,1.4-1.1,1.6c-0.2,0,0,0.5,0,0.7c0,0.1,0.3,0.3,0.7,0.2s0-0.2,0-0.2
				c0.5,0,1.1,0,1.4-0.3s-0.3-0.7-0.9-0.7c0-0.3,0.5-0.7,0.7-0.9c0.2-0.2,0-0.3,0-0.3H133c0,0-0.2-0.2,0-0.2s-0.3,0-0.3,0v0.2
				C132.8,127.5,132.6,127.7,132.4,127.7z"/>
			<path class="st0" d="M131.6,126c-0.9,0-1.1,1.2-0.7,1.7c0,0.2,0.2,0,0.2,0c0.2-0.3-0.2-0.9,0.2-1.1c0.3-0.2,0.2,0.3,0.5,0.3
				s0-0.2,0-0.2s0.5,0,0.3-0.2C131.9,126.3,131.6,126.1,131.6,126c-0.2,0-0.3,0-0.5,0"/>
			<path class="st0" d="M136.2,129.1c-0.2,0.2-0.5,0.2-0.5,0.5c-0.2,0-0.5,0-0.5,0.2c-0.2,0.7-0.3,1.9,0.5,2.2
				c0.3,0.2,0.3-0.5,0.7-0.7h0.2c0.2,0.3,0.7,0.5,1.1,0.5c0-0.3,0.2-0.9,0.3-1.1c-0.5-0.2-1.1,0-1.1-0.7c0-0.2-0.3,0-0.5,0
				c0,0.3-0.3,0.5-0.5,0.3c-0.2-0.2-0.2-0.3,0-0.5C136.1,129.4,135.9,129.3,136.2,129.1z"/>
			<path class="st0" d="M138.8,131c-0.2,0.2-0.2,0.7,0.2,0.7c0.3,0,0.5-0.2,0.9-0.3c0,0.3,0,0.7,0.2,0.9s0.5,0.2,0.7,0
				c0.2-0.2,0.3-0.5,0.3-0.7c0.3-0.5-0.5-1.1-1.1-1.1l-0.2-0.2c0,0-0.3,0.2-0.3,0.3C139.5,130.7,139,130.8,138.8,131z"/>
			<path class="st0" d="M142.3,130.5c-0.2,0-0.5,0-0.5,0.3c0,0.2,0,0.2,0,0.3c0.2,0.2,0.3,0.3,0.5,0.2s0.2,0,0.3-0.2
				C142.8,131,142.6,130.7,142.3,130.5z"/>
			<path class="st0" d="M142.6,132.2c0-0.2-0.2-0.3-0.3-0.3h-0.2c-0.2,0,0,0.2,0,0.3c0,0.2-0.2,0-0.2,0v0.2c0,0,0.2,0,0.3,0
				c0.1,0,0,0.3,0.2,0.3s0.2-0.3,0.3-0.5H142.6z"/>
			<path class="st0" d="M142.8,133.1c-0.2,0-0.2,0-0.3,0c0,0,0,0.5,0.2,0.3C142.8,133.2,142.8,133.2,142.8,133.1z"/>
			<path class="st0" d="M148.8,132.2c-0.2-0.2-0.3-0.2-0.7,0c-0.2,0-0.3,0.3-0.5,0.3c0,0.3-0.2,0.7,0,1.2h0.2
				c0.2-0.7,0.7-0.5,1.2-0.7c0.2,0,0.3-0.3,0.2-0.5l0,0c-0.2-0.3-0.5-0.2-0.9-0.3"/>
			<path class="st0" d="M156.5,132.2C156.5,132.2,156.3,132.2,156.5,132.2c-0.2,0-0.3,0.3-0.2,0.3c0.1,0,0.3,0,0.5,0
				c0.2-0.2,0.2-0.3,0-0.3C156.6,132.2,156.5,132.2,156.5,132.2z"/>
			<path class="st0" d="M133.7,132.2c-0.2,0.2-0.3,0.3-0.2,0.5C133.6,132.9,133.8,132.5,133.7,132.2
				C133.8,132.2,133.7,132.2,133.7,132.2z"/>
			<path class="st0" d="M129.7,130.5c-0.2,0.2-0.2,0.5-0.5,0.5v0.2c0.2,0,0.5,0.3,0.5,0.2C129.7,131.1,129.9,130.7,129.7,130.5
				C129.9,130.5,129.7,130.5,129.7,130.5C129.5,130.3,129.7,130.5,129.7,130.5z"/>
			<path class="st0" d="M128.3,127.4c-0.5-0.2-1.6-0.3-1.4,0.3c0.2-0.3,0.7-0.2,1.1-0.3c0,0,0.2-0.2,0-0.2"/>
			<path class="st0" d="M131.6,128.4c0-0.2-0.3-0.2-0.3,0s0,0.2,0,0.3s0.2,0,0.3-0.2C131.6,128.4,131.6,128.4,131.6,128.4z"/>
			<path class="st0" d="M105,114.3c0.2-0.2,0.3-0.5,0.2-0.7c-0.2-0.2-0.3-0.2-0.5,0c-0.2,0.3,0,0.5,0.2,0.7
				C104.8,114.4,104.8,114.4,105,114.3C104.8,114.4,105,114.3,105,114.3z"/>
			<path class="st0" d="M100.6,111.8c0-0.2-0.2-0.3-0.2-0.5h-0.2c0,0.3,0,0.7-0.3,0.7C100.1,111.8,100.4,112.1,100.6,111.8z"/>
			<path class="st0" d="M102,112c0-0.2-0.2,0-0.2,0s0,0.2,0,0.3h0.2C102,112.3,102,112.1,102,112L102,112L102,112z"/>
			<path class="st0" d="M101.2,109.9v0.2l0,0c0.2,0,0.2,0.2,0.3,0.2c0.2,0,0-0.2,0-0.2C101.4,109.9,101.2,109.9,101.2,109.9z"/>
			<path class="st0" d="M97.3,106.6c0,0.3,0.3,0.7,0.2,1.2c0.2,0,0.3,0.3,0.5,0.2c0.2-0.2,0-0.2,0-0.3c0.3-0.3,0.3-0.7,0.2-1.1
				C98.1,106.3,97.5,106.5,97.3,106.6L97.3,106.6z"/>
			<path class="st0" d="M98.7,108.2L98.7,108.2C98.6,108.2,98.7,108.2,98.7,108.2c0,0.3,0.2,0.2,0.2,0c0-0.2,0,0,0-0.2l0,0"/>
			<path class="st0" d="M120.9,111.1c-0.2,0.3-0.2,0.9,0.2,1.2c0.5,0.3,0.9-0.5,0.5-1.1C121.2,110.8,121,111,120.9,111.1z"/>
			<path class="st0" d="M121.9,110.1c-0.2,0.2-0.5,0.2-0.3,0.5c0.2,0.3,0.7,1.2,0.9,0.9C122.6,111.1,122.3,110.6,121.9,110.1
				c0,0-0.2,0-0.3,0l0,0"/>
			<path class="st0" d="M123.7,111.3c0,0-0.2-0.2-0.2,0c-0.2,0.2-0.3,0.5-0.5,0.7c-0.2,0.2-0.2,0.5,0,0.7c0,0,0.2,0.2,0.2-0.2
				c0.2,0.2,0.3,0,0.3,0v-0.2c-0.2-0.2-0.3-0.2-0.3-0.3C123.1,111.8,123.8,111.5,123.7,111.3C123.8,111.1,123.8,111.3,123.7,111.3z"
				/>
			<path class="st0" d="M126.4,111.3c-0.2,0.2-0.3,0.7,0.2,0.7c0-0.3,0.5-0.2,0.5-0.3C127.4,111.3,126.8,111.3,126.4,111.3z"/>
			<path class="st0" d="M124.2,109.7c0,0.2-0.3,0.2-0.2,0.3c0.2,0.2,0.2,0,0.3,0C124.4,110,124.3,109.9,124.2,109.7
				C124.2,109.9,124.2,109.9,124.2,109.7L124.2,109.7z"/>
			<path class="st0" d="M122.8,108.5c0-0.2-0.3-0.2-0.3,0c0,0.2-0.2,0.5,0,0.5C122.6,109,122.8,108.7,122.8,108.5z"/>
			<path class="st0" d="M134.3,108.5c0,0.2-0.3,0.3-0.2,0.7c0.2,0.2,0.3,0.2,0.5,0.2c0.3-0.2,0.5-0.3,0.3-0.7
				C134.8,108.4,134.5,108.5,134.3,108.5C134.3,109,134.3,108.5,134.3,108.5z"/>
			<path class="st0" d="M135.9,110.4c-0.2-0.3-0.7-0.2-0.9,0c-0.2,0.2,0,0.3,0.2,0.5c0.2,0,0.2,0,0.3,0v-0.2c0,0,0.5-0.3,0.3-0.7
				c0,0-0.2,0-0.3,0"/>
			<path class="st0" d="M136.4,109.4c0,0.2,0,0.3,0,0.5c0,0.2,0.3,0,0.5-0.2c0.2-0.2,0-0.2,0-0.2s-0.5,0-0.7,0
				C136.4,109.4,136.4,109.4,136.4,109.4z"/>
			<path class="st0" d="M139.7,109.4c0.3-0.2,0.2-0.5,0.2-0.9c-0.2,0-0.5,0-0.5,0S139.3,109.7,139.7,109.4z"/>
			<path class="st0" d="M139.2,111.6c0.2-0.3-0.2-0.7-0.2-1.1c0.2,0,0.3,0.3,0.3,0.3c0.5,0,0.9,0.5,1.4,0.7c0.2,0.2,0.5,0,0.7-0.2
				c0.2-0.3,0-0.9-0.3-1.1c-0.2-0.2-0.2-0.3-0.3-0.7c-0.2-0.3-0.2,0-0.2,0c-0.3,0.5-1.2,0.2-1.6,0.5
				C138.6,110.5,139,111.3,139.2,111.6C139.2,111.8,139.2,111.6,139.2,111.6z"/>
			<path class="st0" d="M132.3,111.3L132.3,111.3c-0.2,0.2-0.2,0.3-0.2,0.5c0.2,0,0.2,0.2,0.2,0
				C132.4,111.5,132.4,111.3,132.3,111.3z"/>
			<path class="st0" d="M133.8,109.9c-0.2-0.2-0.5-0.2-0.7,0c0,0-0.2,0.2,0,0.2s0.5,0,0.7,0V109.9z"/>
			<path class="st0" d="M132.3,109.9h-0.2v0.2C132.3,109.9,132.3,110.1,132.3,109.9C132.4,109.9,132.4,109.9,132.3,109.9z"/>
			<path class="st0" d="M127.3,109.4L127.3,109.4c-0.2,0-0.2,1.1,0.2,0.7C127.6,109.9,127.6,109.6,127.3,109.4z"/>
			<path class="st0" d="M148,108.3c0-0.3-0.5-0.3-0.9-0.2l-0.2,0.2C147,108.3,148,108.7,148,108.3z"/>
			<path class="st0" d="M146.6,108.5c0-0.2-0.2,0-0.2,0v0.3h0.2C146.6,108.7,146.6,108.7,146.6,108.5z"/>
			<path class="st0" d="M158,106.1c-0.5,0.2-0.9,0.7-0.3,1.1c0.2,0.2,0.7,0.2,0.7,0C158.4,106.8,158.2,106.3,158,106.1L158,106.1z"
				/>
			<path class="st0" d="M157.4,107.3c-0.2-0.2-0.9-0.2-0.7,0.2C156.8,107.9,157.2,107.3,157.4,107.3z"/>
			<path class="st0" d="M158.5,107.9h-0.2c0,0.3-0.2,0.5,0,0.9c0.2,0.3,0.2,0,0.2,0C158.5,108.3,158.7,107.9,158.5,107.9
				C158.2,107.7,158.5,107.9,158.5,107.9z"/>
			<path class="st0" d="M159.6,107.9c-0.2,0.2-0.3,0.5-0.2,0.7c0.2,0.2,0.2,0,0.2,0C159.6,108.2,159.8,108,159.6,107.9z"/>
			<path class="st0" d="M161,107.1c0.2,0,0.2,0.2,0.2,0c0.2,0.3,0,0.7,0.3,0.9c0.3,0.2,0.7,0.2,0.7,0c0-0.2,0-0.7,0.2-1.1
				c0-0.2,0.2-0.3,0.3-0.3c0-0.2,0-0.3,0-0.7c-0.2,0-0.3,0-0.5,0s-0.3,0.3-0.5,0.2c-0.2-0.2-0.3-0.5-0.5-0.3
				C161,105.9,161.1,106.8,161,107.1z"/>
			<path class="st0" d="M163.9,108.2c0,0,0,0.2,0,0.3c0.3,0.2,0.7,0,0.9-0.2c0.2-0.3,0.2-0.7-0.2-0.9c0,0-0.2,0-0.3,0
				C163.9,107.5,164.1,108,163.9,108.2z"/>
			<path class="st0" d="M166.3,106.3c-0.2,0-0.3-0.2-0.3,0c-0.2,0.2-0.3,0.5-0.5,0.5c0.2,0.2,0.3,0.5,0.5,0.5
				C166.3,107.5,166,106.6,166.3,106.3z"/>
			<path class="st0" d="M166.5,105.9l0.5,0.3c0.2,0.2,0.3,0,0.3-0.2l0,0c0.2-0.5-0.2-1.1-0.7-0.7
				C166.7,105.4,166.2,105.7,166.5,105.9z"/>
			<path class="st0" d="M170.3,104.6c0,0.3,0,0.7,0,1.1c0.5,0,0.5,0.7,0.9,0.7c0.9,0.2,0.5-1.1,0.3-1.4S170.8,104.7,170.3,104.6
				L170.3,104.6z"/>
			<path class="st0" d="M178.6,103.2c-0.2,0-0.2,0-0.2,0.2l0,0c-0.2,0.3,0.2,0.5,0.5,0.5c0-0.2,0.2,0,0.2-0.3
				C179.1,103.2,178.6,103.2,178.6,103.2L178.6,103.2z"/>
			<path class="st0" d="M180.8,101.5c-0.2,0-0.3,0-0.3,0s-0.2,0,0,0.2c0.2,0.3,0.7,0.2,1.1,0.3c0.3,0.2,0.2,0,0.2-0.2
				c-0.2-0.3-0.7-0.3-1.1-0.3"/>
			<path class="st0" d="M180.7,104.2c0-0.2,0-0.5-0.2-0.7c-0.3-0.3-0.7-0.3-1.1,0c0,0.2,0,0.2,0,0.3
				C179.6,104.2,180.3,104,180.7,104.2L180.7,104.2z"/>
			<path class="st0" d="M183.6,103C183.6,103,183.6,102.8,183.6,103c-0.2,0.2-0.7,0.2-0.9,0.3c-0.2,0.2,0.2,0.5,0.5,0.5
				C183.6,103.8,183.9,103.5,183.6,103C183.8,103.2,183.6,103.2,183.6,103L183.6,103z"/>
			<path class="st0" d="M185.3,102.3c-0.5,0-1.1,0.3-0.9,0.9c0.2,0.5,0.7,0.5,1.1,0.3C185.7,103.2,185.7,102.6,185.3,102.3
				C185.5,102.3,185.3,102.3,185.3,102.3z"/>
			<path class="st0" d="M193.3,100.4c-0.2-0.2-0.3,0-0.3,0c0,0.3-0.3,0.5-0.2,0.5c0.2,0,0.5,0.2,0.5-0.2
				C193.5,100.7,193.5,100.6,193.3,100.4z"/>
			<path class="st0" d="M199.2,96.9c-0.2-0.2-0.3-0.3-0.5-0.2c-0.3,0.2-0.3,0.7-0.2,0.9c0.2,0.2,0.7,0,0.9-0.3
				c0.2-0.3,0-0.7-0.3-0.5"/>
			<path class="st0" d="M197.7,98h-0.2c-0.2,0.2-0.3,0.7,0.2,0.7h0.2C197.8,98.3,197.8,98.2,197.7,98L197.7,98L197.7,98z"/>
			<path class="st0" d="M201.9,93.8c-0.3,0,0,0.2,0,0.2s0.2,0.2,0.3,0c0.2-0.2,0.2-0.3,0-0.5c0,0-0.2,0-0.3,0S201.9,93.7,201.9,93.8
				z"/>
			<path class="st0" d="M201.3,94.9h-0.2v0.2C201.1,95.1,201.3,95.1,201.3,94.9C201.3,95.1,201.4,95.1,201.3,94.9
				C201.3,94.7,201.3,94.9,201.3,94.9z"/>
			<path class="st0" d="M182.9,140.5c-0.7,0.5-0.7,1.4-0.2,2c0.5,0.5,1.2,0.7,1.9,0.3c0.7-0.3,0.9-1.2,0.5-1.9c0,0,0-0.2-0.2-0.2
				c-0.3-0.7-1.2-0.9-1.7-0.5C183.1,140.5,182.9,140.5,182.9,140.5z"/>
			<path class="st0" d="M131.8,149.1c-0.9-0.3-1.9,0-2.2,1.1s0,1.9,1.1,2.2s1.9,0,2.2-1.1v-0.2C133.1,150.3,132.8,149.5,131.8,149.1
				C131.9,149.1,131.8,149.1,131.8,149.1z"/>
			<path class="st0" d="M124.3,148.1c-0.5,0-0.9,0-1.4,0l-0.7,0.3c-0.3,0,0.2,0,0,0.3c-0.3,1.4,0,2.2,0.5,2.8
				c0.9,0.5,2.2-0.7,2.2-1.9C125,148.6,124.8,148.3,124.3,148.1z"/>
			<path class="st0" d="M124.5,145.2c-2.8-0.2-1.9,0.2-2,1.6c0,0.2-0.2,0.3,0.2,0.5c0.2,0,0.5,0,0.7,0h1.1c0.7,0,1.2-0.3,1.4-1.1
				C125.7,145.7,124.8,145.2,124.5,145.2z"/>
			<path class="st0" d="M218.2,93.3h-3l-0.2,1.2l-1.4,0.7l-0.7-0.7c0,0-14.5,50.1-63.2,51.2c-28,1.1-53.9-14.4-66.4-39.4h-1.9
				l-1.4,0.5l-0.9,0.3l-0.7,0.3l-1.2-1.7l-1.1,0.2l-1.4-0.2c0,0-1.4,1.1,4,11.6s23.5,42.5,68.3,42.2h0.9
				c56.4-3.3,70.2-55.3,70.2-55.3l2.2-11.4L218.2,93.3z M99.6,137.5c1.1-1.9,1.2-2.2,1.6-3l0,0c-0.7,0.5-0.9,0.7-2.8,1.9l-0.7-0.7
				l1.7-4l0.9,0.7c-1.1,2-1.2,2.4-1.4,2.8l0,0c0.3-0.3,0.7-0.5,2.6-1.9l0.9,0.7c-1.1,2-1.2,2.2-1.6,2.8l0,0c0.3-0.2,0.7-0.5,2.6-1.7
				l0.9,0.7l-3.8,2.2L99.6,137.5z M104.3,141l-0.9-0.7l2.6-3.3l0.9,0.7L104.3,141z M107.9,143.6l-0.9-0.7l1.9-2.8l-1.2-0.9l0.3-0.5
				l3.3,2.4l-0.3,0.5l-1.2-0.9L107.9,143.6z M114,147.6l-0.9-0.5l1.1-1.6l-1.7-1.1l-1.1,1.6l-1.1-0.5l2-3.6l0.9,0.5l-0.9,1.4
				l1.7,1.1l0.9-1.4l0.9,0.5L114,147.6z M127.4,146.4c-0.2,1.1-1.7,1.2-1.7,1.6s1.4,1.6,1.1,3.1c-0.5,1.4-1.9,2.2-3.4,2.2l-1.9-0.5
				c-0.5-0.2-1.1-2.4-0.7-5c0.5-4.2,0.7-3.4,0.9-3.6c1.1-0.2,2-0.2,3.1,0C126.9,144.7,127.4,145.8,127.4,146.4L127.4,146.4z
				 M134.2,151.9c-0.5,1.6-2,2.4-3.6,2c-1.6-0.5-2.4-2-2-3.6c0.5-1.6,2-2.4,3.6-2c1.6,0.4,2.6,1.9,2,3.4
				C134.2,151.7,134.2,151.7,134.2,151.9L134.2,151.9z M140.7,152.8c-0.5,3.3-0.9,3.1-1.7,3c-1.2-0.2-0.2-0.5-0.9-0.7
				c-0.2,0-0.5,0.2-0.7,0.2c-0.3,0-0.7,0-0.9,0c-1.1-0.2-1.7-0.7-1.4-3.4c0-0.2,0.5-3,1.1-2.8l1.1,0.2c0.2,0,0.5,0,0.5,0.2
				c-0.5,0.9-0.9,1.7-1.1,2.8c0,0.5-0.3,1.9,0.7,2c0.3,0,1.4,0.2,1.6-1.9c0-0.9,0-1.7,0-2.8c0-0.2,0.3,0,0.3,0l1.1,0.2
				C141.1,149.9,140.9,151.7,140.7,152.8L140.7,152.8z M147.1,156.1h-1.1c-0.2,0-0.3,0-0.3-0.2c0.5-1.1,0.7-2,0.7-3.1
				c0-0.7,0-1.4-0.9-1.6c-0.5,0-1.4,0.2-1.4,2c0,0.9,0,1.7,0.2,2.6c0,0.2-0.2,0.2-0.3,0.2H143c-0.5,0-0.7,0.2-0.5-2.2
				c0.2-4.2,0.5-3.8,1.6-3.8c0.3,0,0.9,0,0.9,0.2c0,0.2-0.2,0.2-0.2,0.3c0,0.2,0,0.2,0.2,0.2c0.5-0.2,1.1-0.3,1.6-0.3
				c0.3,0,1.7,0.2,1.6,2.6C147.9,156.3,147.5,156.1,147.1,156.1L147.1,156.1z M152.3,156.1c-1.4,0.2-2.8-0.9-3-2.2
				c0-0.2,0-0.3,0-0.5c-0.2-1.7,1.2-3.3,3.1-3.4h0.2c1.1,0,1.7,0.3,1.9,0.9s-0.5,0.9-0.9,0.9s-0.3-0.7-1.2-0.7s-1.6,1.4-1.6,2
				c0,0.9,0.7,1.6,1.6,1.6h0.2c0.7,0,1.4-0.3,1.7-1.1c0,0,0.2,0.2,0.2,0.5C154.6,155.2,153.7,155.9,152.3,156.1L152.3,156.1z
				 M155.4,148.5c0-0.3,0.3-0.7,0.9-0.7s0.9,0.2,1.1,0.5s-0.3,0.7-0.9,0.7C156,148.9,155.4,148.8,155.4,148.5L155.4,148.5z
				 M157.7,155.3l-0.9,0.2c-0.5,0-0.5,0.3-1.1-3s-0.2-2.8,0.2-3h0.7c0.5,0,0.5,0,0.5,0c0,0.5,0,1.2,0,1.7c0.2,1.2,0.5,2.4,1.1,3.6
				C158.2,155.3,157.9,155.3,157.7,155.3L157.7,155.3z M165.3,153.6l-1.1,0.2c-0.2,0-0.3,0.2-0.5,0c0.2-1.1,0.2-2.2,0-3.3
				c-0.2-0.7-0.3-1.4-1.2-1.2c-0.3,0.2-1.2,0.5-0.9,2.2c0.2,0.9,0.5,1.7,0.9,2.4c0,0.2-0.2,0.2-0.3,0.2l-1.1,0.2
				c-0.5,0-0.5,0.3-1.1-2c-0.9-4.2-0.3-4,0.5-4.2c0.3-0.2,0.9-0.2,0.9,0s0,0.2,0,0.3c0,0,0,0.2,0.2,0.2l0,0c0.5-0.3,0.9-0.5,1.4-0.7
				c0.3,0,1.7-0.3,2.2,2C166,153.6,165.7,153.6,165.3,153.6L165.3,153.6z M171.9,152.8c-0.2,0.2-0.5,0.2-0.7,0.3
				c-1.2,0.3-2.4,0.2-3.3-0.7c-0.5-0.7-0.5-1.6,0-2.2c-0.3-1.1,0.9-1.7,0.7-1.9s-1.1-0.3-1.4-1.2s0.3-2,1.9-2.6
				c0.2,0,0.5-0.2,0.7-0.2c0.5-0.2,0.5-1.1,1.1-1.2c0.5,0,0.9,0.2,1.2,0.5c0,0.3-1.1,0.3-0.9,0.9c0.2,0.5,0.7,0.3,1.1,1.2
				c0.3,0.9-0.2,2.2-1.9,2.8c-0.7,0.2-1.2,0.7-1.2,1.1c0,0.3,0.2-0.2,0.7-0.3c1.1-0.5,2.2-0.5,3.1,0c0.2,0.2,0.3,0.2,0.5,0.3
				C173.6,149.3,174.8,151.4,171.9,152.8L171.9,152.8z M180.5,146.4c-1.6,0.9-2.2,0.3-2.6-0.2l0.9-0.5c0.2,0.2,0.5,0.5,1.2,0
				c0.3-0.3,0.9-0.5,0.7-1.1s-0.5-0.2-1.1,0l-0.5,0.2c-0.9,0.3-1.6,0.5-2-0.3c-0.2-0.3-0.3-1.2,1.1-2s2-0.2,2.4,0.2l-0.9,0.5
				c-0.2-0.2-0.3-0.5-1.2,0c-0.3,0.2-0.7,0.5-0.5,0.9c0.2,0.3,0.5,0.2,0.7,0.2l1.2-0.3c0.7-0.2,1.4-0.3,1.7,0.3
				C182.1,145.3,180.7,146.2,180.5,146.4L180.5,146.4z M185,143.5c-1.1,0.5-2.4,0.2-3-0.9c-0.5-1.1-0.2-2.4,0.9-3
				c1.1-0.5,2.2-0.2,3,0.7c0.7,1.1,0.5,2.4-0.5,3.1C185.2,143.5,185,143.5,185,143.5L185,143.5z M188.3,141.2l-2.6-3.3l0.9-0.7
				l2,2.8l1.9-1.6l0.5,0.5L188.3,141.2z M191.7,138.8l-2.8-3.1l2.8-2.4l0.5,0.5l-1.9,1.7l0.5,0.7l1.7-1.7l0.5,0.5l-1.9,1.7l0.7,0.9
				l2-1.9l0.5,0.5L191.7,138.8z M196.7,134.1c-1.2,1.4-2,0.9-2.4,0.5l0.7-0.7c0.2,0.2,0.5,0.3,1.2-0.3c0.3-0.3,0.7-0.9,0.3-1.2
				s-0.5,0-1.1,0.3l-0.5,0.3c-0.7,0.5-1.4,0.9-2,0.3c-0.3-0.3-0.7-1.2,0.3-2.2c1.1-1.1,1.9-0.9,2.2-0.5l-0.7,0.7
				c-0.2-0.2-0.5-0.3-1.2,0.3c-0.3,0.3-0.5,0.7-0.2,1.1c0.3,0.3,0.5,0,0.7,0l1.1-0.7c0.5-0.3,1.2-0.7,1.7-0.2
				C198.1,132.5,197.1,133.8,196.7,134.1L196.7,134.1z"/>
			<path class="st0" d="M169.6,149.9c-2.6,1.7,0,3.1,1.6,2.2c0.2,0,0.2,0,0.2,0l0,0c1.4-0.5,1.6-1.6,1.4-1.7
				C172.2,148.8,170.1,149.5,169.6,149.9z"/>
			<path class="st0" d="M169.8,147.1c0.5-0.3,0.7-0.9,0.3-1.4s-0.9-0.7-1.4-0.3c-0.3,0.2-0.5,0.7-0.3,1.1
				C168.6,146.9,169.1,147.2,169.8,147.1z"/>
			<path class="st0" d="M1.8,52.7h20l8.3,15.8l8-15.6l23.1,0.2v10c0,0-6.7,0-6.7,4.2s0,15.6,0,19.4s6.6,3.8,6.6,3.8v2.4H35.7v-2
				c0,0,2.4-0.2,2.4-2c0-1.9,0-4.8,0-4.8l-7.1,7.3l-7.6-7.5v4c0,3,3.4,3,3.4,3v1.9H1.4v-2.2c0,0,7.8,0.2,7.8-4.4s0.2-14.4,0-17.6
				c-0.2-5.7-7.5-5.5-7.5-5.5L1.8,52.7z M26.8,96.4v-2.2H1.4v2.2H26.8z M61.2,96.4v-2.2H35.6v2.2H61.2z M26.8,99.9v-2H1.4v2H26.8z
				 M61.2,99.9v-2H35.6v2.2L61.2,99.9z M26.8,103.3v-2.2H1.4v2.2H26.8z M61.2,103.3v-2.2H35.6v2.2H61.2z"/>
			<path class="st0" d="M86.1,65.6h13.5c0,0,0,19.7,0,22.3c-0.2,1.2,0.9,2.4,2,2.4h0.2v2.2H65.4c-0.5,0-11.2-30.4,17.6-26.1
				c0.5,0,2,0.7,2.6,0.7h0.5L86.1,65.6L86.1,65.6L86.1,65.6z M81.4,101.6c0.3-0.5,0.5-0.5,0.5-0.5H70.6l0.3,0.3
				C75.2,104.9,80.9,102.1,81.4,101.6z M67.3,96.2H102v-2H66.1L67.3,96.2z M102,99.9v-2H68l1.2,2H102z M102,103.3v-2H88.6v2H102z
				 M87,83.3c0-4-1.7-7.3-3.6-7.3s-3.6,3.3-3.6,7.3c0,4,1.7,7.3,3.6,7.3S87,87.3,87,83.3z"/>
			<path class="st0" d="M126.2,29.4l7.5,1.1c-0.5,0.3-0.7,0.9-0.5,1.4c0.2,1.1,3.3-2,2.8-1.6c-0.5,0.5,1.4,1.2,1.4,1.2l0.5,5
				l-2.8,3.4c0,0-0.9-2.2-1.4-3.8s-2.4,2.4-2.4,2.4s-0.9,3-1.1,3.6c-0.2,0.7,1.2-0.9,1.2-0.9l2.4,2.4c0,0-4.2,4.8-4.2,4.7
				c0-0.1-6.6-4.4-5.9-3.3c0.7,1.1,2.8-10.8,2.8-10.8l-1.6-1.2L126.2,29.4z"/>
			<path class="st0" d="M137.6,22.6l7.1-5.5c0,0,0.3,12.6,0.3,14.5c0,1.9,1.4-1.7,1.4-1.7l0.2-4.7l8-5.2c0,0-1.1,13.1,0,13.5
				s0.2,0.5,0.2,0.5l8-15l6.4-0.7l-1.1,5.5c-0.9-0.2-1.9,0-2.8,0.3c-1.4,0.7-9.2,19.9-9.2,19.9l-5,2.4l-1.4-8.4c0,0-3.6,8.3-3.6,8.4
				c0,0.2-6.1-1.6-5.9-4.4c0.2-2.8-0.9-16.8-0.9-16.8l-1.6-0.2L137.6,22.6z"/>
			<path class="st0" d="M190.9,26.7l5.7,1.6l0.5,2.2l2-2.8l1.4,0.7l1.1,5.2l-3.4,4.2l-0.7-0.3l-0.3-3.3c-1.1,0.9-2,2-2.8,3.3
				c-0.3,0.7-0.5,1.6-0.3,2.4c-0.2,0.3,2-1.6,2-1.6l0.7,3L193,46c0,0-5-3.4-5-3.6s3-10.9,3-10.9l-1.9-1.6L190.9,26.7z"/>
			<path class="st0" d="M113.4,30.4l7.8,2c0,0-2.8,9.2-2.2,9.8c0.5,0.7,1.1-0.2,1.1-0.2l1.4,1.6c0,0-3.6,5.7-3.8,5.7
				c-0.2,0-4.5-2.6-4.5-2.6l1.1-11.2l-1.6-1.6L113.4,30.4z M122.6,23.6c0-1.9-1.6-3.4-3.4-3.4c-1.9,0-3.4,1.6-3.4,3.4
				s1.6,3.4,3.4,3.4C121,27.1,122.6,25.5,122.6,23.6z"/>
			<path class="st0" d="M180.7,28.1c-0.2,0,5.5,1.9,5.5,1.9l-3.4,10.4l1.9-1.2l1.7,1.4l-3.8,6.2l-5.5-3.6l2.6-10.4l-1.7-1.6
				L180.7,28.1z M188.3,20.5c0-1.9-1.6-3.4-3.4-3.4c-1.9,0-3.4,1.6-3.4,3.4c0,1.9,1.6,3.4,3.4,3.4C186.7,24,188.3,22.4,188.3,20.5z"
				/>
			<path class="st0" d="M168,28.1c0,0,8,0.5,7.6,1.6c-0.3,1.1-3.6,11.4-3.6,11.4l1.4-0.3l1.4,2.4l-4,5.2l-4.5-2.4l-5,1.4
				c0,0-2.2-4.4-3-5.7c-0.7-1.4,11.7-9,10.6-8.1s0-1.1-0.9-0.7c-0.3,0.2-0.7,0.3-1.1,0.7l-1.7-1.2L168,28.1z M162.5,43.5
				c0,0.3,0.5,0.2,1.1,0.2c1.2-0.3,2.4-0.9,3.4-1.6l0.3-3C167.5,39.2,162.5,42,162.5,43.5z"/>
			<path class="st0" d="M89.2,51.5l1.6-4.2l2,0.3l8.3-22c2.4-0.9,4.8-1.6,7.5-2c-0.2,0.3-1.2,18.5-0.7,23c0,0.3,0,0.7,0,1.1
				c0,0.3,2.6-0.2,2.6-0.2v3.4l-7.1,3.4l-1.1-6.6l-3.6-1.4L95.5,55L89.2,51.5z M100,42.2l1.9,0.5l-0.2-4.2L100,42.2z"/>
			<path class="st0" d="M122.1,113.2c-0.2,0-0.2,0.2-0.2,0.3c0,0.1,0.5,0.2,0.5-0.2C122.4,113,122.1,113.3,122.1,113.2L122.1,113.2z
				"/>
			<path class="st0" d="M177.4,105.2C177.6,105.2,177.2,105.2,177.4,105.2c-0.3-0.2-0.9,0-0.9,0.3v0.2c0,0.2,0.5,0.2,0.7,0.2
				s0.3-0.2,0.5-0.2C177.9,105.7,177.7,105.4,177.4,105.2L177.4,105.2z"/>
			<path class="st0" d="M176.5,103.3c-0.3,0-0.3,0.5-0.5,0.7c-0.2,0.2,0,0.2,0,0.2s0.7,0.2,0.9,0C177.1,104,177.2,103.2,176.5,103.3
				z"/>
			<path class="st0" d="M179.3,105.2c-0.2,0-0.3,0-0.3,0c0,0.2,0,0.2,0,0.3c0.2,0.2,0.3,0.2,0.5,0.2v-0.2c-0.2-0.2-0.3-0.3-0.5-0.2"
				/>
			<path class="st0" d="M170.3,110.1c-0.2,0.2-0.3,0.2-0.3,0.3c0,0.2,0.3,0.3,0.3,0.2C170.5,110.4,170.5,110.1,170.3,110.1
				L170.3,110.1z"/>
			<path class="st0" d="M165.3,111.5l-0.2-0.2c0,0-0.2,0.2-0.2,0.3S165.3,111.8,165.3,111.5C165.5,111.5,165.5,111.5,165.3,111.5z"
				/>
			<path class="st0" d="M152.3,110.6C152.3,110.6,152.3,110.4,152.3,110.6c0-0.2-0.3,0-0.2,0.2c0.2,0.2,0.3,0,0.5-0.2H152.3z"/>
			<path class="st0" d="M148.8,111.1L148.8,111.1C148.7,111.1,148.5,111.1,148.8,111.1c0,0.2-0.2,0.3,0.2,0.3v0.2c0.2,0,0.3,0,0.3,0
				S149,111.1,148.8,111.1z"/>
			<path class="st0" d="M147.9,111.5C147.9,111.5,147.9,111.3,147.9,111.5c0,0.2,0,0.2,0,0.2s0.2,0,0.3,0
				C148.3,111.7,147.9,111.5,147.9,111.5z"/>
			<path class="st0" d="M124,113.9C124,113.9,124,113.7,124,113.9c-0.2-0.2-0.7-0.2-0.7-0.2s0,0.5,0.2,0.7c0.2,0.2,0.3,0.2,0.5,0
				C124.3,114.1,124.3,114.1,124,113.9z"/>
			<path class="st0" d="M124.2,114.9c-0.2-0.2-0.7,0-0.5,0.3c0.2,0.3,0.3,0,0.5,0C124.2,115.1,124.2,114.9,124.2,114.9
				c0-0.2-0.2-0.2-0.2-0.2l0,0"/>
			<path class="st0" d="M117.8,115.2c0.3,0.3,0.5-0.2,0.5-0.5c0-0.2-0.2-0.2-0.2-0.2s0,0-0.2,0C117.8,114.7,117.6,115.1,117.8,115.2
				z"/>
			<path class="st0" d="M126.4,113.5c0,0.2-0.2,0.2-0.2,0.3c0.2,0.2,0.5,0.3,0.9,0l0,0c0.2-0.2,0-0.2-0.2-0.3"/>
			<path class="st0" d="M134.3,112c-0.2-0.2-0.3-0.2-0.5,0c-0.2,0.2,0.2,0.5,0.3,0.3C134.5,112.3,134.5,112.1,134.3,112L134.3,112
				c0-0.2-0.3-0.5-0.5-0.2"/>
			<path class="st0" d="M196.3,100.6C196.3,100.4,196.3,100.4,196.3,100.6c-0.3-0.2-0.5,0.2-0.9,0c0,0.2-0.2,0.2,0,0.3
				c0.2,0.2,0.5-0.2,0.7,0.2c0.2,0.3,0,0.2,0,0.2c0.2,0.2,0.5,0.2,0.7,0c0,0,0.2-0.2,0-0.3C196.5,100.9,196.4,100.6,196.3,100.6
				C196.1,100.6,196.3,100.6,196.3,100.6L196.3,100.6z"/>
			<path class="st0" d="M195.3,102.1L195.3,102.1c-0.3-0.2-0.7,0-0.5,0.2C195,102.4,195.5,102.3,195.3,102.1
				C195.5,102.1,195.5,102.1,195.3,102.1z"/>
			<path class="st0" d="M197.7,99.2c0,0.2,0,0.3,0,0.3s0.5-0.2,1.1-0.2c0-0.2,0-0.3,0-0.3c0.3-0.5,1.1-0.9,1.4-1.4h-0.2
				c-0.2,0.2-0.5,0.3-0.7,0.7c-0.3,0.3-0.7,0.3-1.1,0.7C197.8,99.3,197.8,98.8,197.7,99.2"/>
			<path class="st0" d="M195,99.7c-0.2-0.2-0.3-0.2-0.5,0l0,0c-0.2,0.3,0.3,0.5,0.5,0.3C195.2,99.9,195,99.9,195,99.7
				c0,0-0.2-0.2-0.3,0"/>
			<path class="st0" d="M109.1,119.7C108.9,119.7,109.1,119.9,109.1,119.7c-0.3,0-0.2,0.3-0.2,0.3s0.2,0,0.3-0.2
				C109.3,119.7,109.3,119.7,109.1,119.7z"/>
			<path class="st0" d="M112,123.6c0.3,0,0.5-0.2,0.9,0.2c0-0.3-0.2-0.5-0.3-0.7c0,0.3-0.3,0.2-0.5,0.2
				C111.8,123.2,111.8,123.6,112,123.6z"/>
			<path class="st0" d="M147.1,131.3c-0.2,0-0.3,0.2-0.2,0.3c0.2,0.2,0.5,0.2,0.5-0.2C147.3,131.5,147.1,131.3,147.1,131.3z"/>
			<path class="st0" d="M146.3,131c-0.2,0-0.3,0-0.3,0s0.2,0.3,0.3,0.3S146.3,131.3,146.3,131C146.3,131,146.3,131.1,146.3,131z"/>
			<path class="st0" d="M141.5,126.5h-0.5c0.2,0.3-0.2,0.3-0.3,0.5c-0.2,0.2,0.3,0.7,0.7,0.5c0.5-0.2,0.7-0.7,0.5-1.2
				c0-0.2-0.3-0.2-0.5-0.2s0,0,0,0"/>
			<path class="st0" d="M136.4,126c-0.3-0.2-0.5,0.3-0.2,0.5c0.3,0.2,0.5,0,0.5-0.3C136.6,126.1,136.6,126,136.4,126L136.4,126z"/>
			<path class="st0" d="M140.2,128.4c0-0.2,0-0.5-0.2-0.5c-0.2,0-0.5,0-0.7,0.2c-0.2,0.2-0.2,0.5,0,0.7c0.2,0.2,0.3,0.3,0.7,0.5
				c0,0,0.2,0,0.3,0C140.2,128.9,140.4,128.8,140.2,128.4z"/>
			<path class="st0" d="M143.7,128.2c-0.2-0.2-0.3-0.2-0.5-0.2v0.2c-0.2,0-0.2,0.2-0.3,0.2s0,0.3,0,0.3c0.2,0,0.5,0.2,0.7,0
				s0.3-0.5,0-0.7"/>
			<path class="st0" d="M140.1,127.4c0.2-0.5-0.3-0.7-0.7-0.5c-0.3,0.2,0,0.3,0,0.3S139.9,127.4,140.1,127.4L140.1,127.4z"/>
			<path class="st0" d="M123.5,121.5c0.3-0.2,1.1,0,0.7-0.5c0-0.2-0.3,0-0.5,0C123.5,121,123.5,121.3,123.5,121.5z"/>
			<path class="st0" d="M123.1,122L123.1,122c0-0.2-0.2-0.3-0.2-0.3c-0.3,0-0.5-0.2-0.7-0.5c-0.1-0.3-0.3-0.2-0.3,0
				c0,0.2,0,0.3,0.2,0.3c0,0.2,0,0.3,0.2,0.3c0.2,0,0.5,0.3,0.7,0.2c0.2-0.2,0.2-0.3,0-0.3"/>
			<path class="st0" d="M124.6,122.7c-0.2-0.3-0.7-0.3-1.1-0.2v0.2c0.3,0.3,0.7,0.3,1.1,0.2C124.8,122.9,124.8,122.9,124.6,122.7
				c0,0.2-0.2,0.2-0.3,0"/>
			<path class="st0" d="M122.1,120.5c-0.3-0.2-0.9-0.2-1.2,0v0.2c0.3,0.2,0.9,0.3,1.2,0.2C122.4,120.7,122.3,120.5,122.1,120.5
				L122.1,120.5z"/>
			<path class="st0" d="M148,128.9c0-0.2,0-0.2,0-0.2c-0.3-0.2-0.7,0-0.9,0.3c0,0.2,0,0.3,0,0.3s0.5-0.3,1.1-0.2
				C148.2,129.1,148.4,128.9,148,128.9C148,128.8,148.2,128.8,148,128.9L148,128.9z"/>
			<path class="st0" d="M163.6,130.8c-0.3-0.2-0.9-0.2-1.4,0c0,0,0,0.2,0,0.3c0.3,0.3,0.9,0.3,1.2,0.2
				C163.8,131.1,163.8,131,163.6,130.8c-0.2,0-0.3-0.2-0.5-0.2"/>
			<path class="st0" d="M164.8,132.7c0,0.2,0.5,0,0.9,0.2v-0.3c0.3,0.2,0.3,0.5,0.5,0.7c0.2,0.1,0.7,0.2,0.9,0
				c0.3-0.9-0.9-0.7-1.4-1.1c-0.5-0.3-0.5-0.7-0.9-0.3C164.4,132.2,164.8,132.4,164.8,132.7z"/>
			<path class="st0" d="M168.6,130.1c-0.3,0-0.7,0.3-0.5,0.5c0.2,0.2,0.2,1.4,0.5,1.2s0-1.1-0.3-1.6"/>
			<path class="st0" d="M172.1,129.3c-0.2,0-0.2,0-0.3,0s-0.3,0.2-0.3,0.5v0.2c0.2,0.3,0.5,0.3,0.7,0.2
				C172.2,130.1,172.2,129.4,172.1,129.3L172.1,129.3z"/>
			<path class="st0" d="M172.2,128.6c0,0.5,0.7,0.3,1.1,0.2v-0.2C172.9,128.4,172.5,128.6,172.2,128.6L172.2,128.6z"/>
			<path class="st0" d="M175,128.9L175,128.9C174.8,128.9,174.8,129.1,175,128.9c0,0.3,0.3,0.3,0.5,0.2c-0.2-0.2,0.2-0.5,0-0.5
				C175.3,128.6,175.3,128.9,175,128.9L175,128.9z"/>
			<path class="st0" d="M174.4,129.6c-0.3,0.2,0,0.3,0.2,0.3C174.8,130,174.6,129.8,174.4,129.6
				C174.6,129.6,174.4,129.6,174.4,129.6z"/>
			<path class="st0" d="M159.6,132.2c-0.2,0-0.5,0-0.3,0.2s0.3,0.3,0.5,0.2C159.8,132.5,159.8,132.4,159.6,132.2L159.6,132.2
				L159.6,132.2z"/>
			<path class="st0" d="M160.7,132.2c-0.2,0-0.2,0.2-0.2,0C160.5,132.1,160.7,132.4,160.7,132.2L160.7,132.2
				C160.7,132.2,160.8,131.9,160.7,132.2L160.7,132.2z"/>
			<path class="st0" d="M147.1,131C147.1,130.8,147,131,147.1,131c-0.2,0,0,0.2,0.2,0.2c0.2,0,0-0.2,0-0.2S147.1,130.8,147.1,131
				C147,131.1,147.1,131,147.1,131z"/>
			<path class="st0" d="M147.3,136.9c-0.2-0.2-0.3-0.2-0.3-0.2s-0.2,0.3-0.3,0.5c0.2,0.2,0.5,0.2,0.7,0c0,0,0-0.2,0.2-0.2
				C147.5,137.1,147.5,136.9,147.3,136.9z"/>
			<path class="st0" d="M154.9,136.7c0-0.2,0.2-0.3,0-0.5c-0.2-0.2-1.1-0.2-1.1,0.3c0.3,0,0.9,0.3,1.1-0.2"/>
			<path class="st0" d="M143.4,137.1c-0.3,0-0.7-0.3-0.9,0s0.5,0.5,0.9,0.3s-0.3-0.3-0.5-0.5"/>
			<path class="st0" d="M125,132.2c0.2-0.2,0-0.3,0-0.3s-0.3-0.2-0.5,0c-0.3,0.5,0.3,0.9,0.9,0.7"/>
			<path class="st0" d="M202.7,95.1C202.7,95.1,202.8,94.9,202.7,95.1c-0.3-0.3-0.7-0.3-1.1-0.2c0,0,0,0.2-0.2,0.2
				c-0.2,0.2-0.3,0.3-0.5,0.5c-0.2,0,0,0.5-0.2,0.5s-0.5,0.2-0.7,0.3c-0.2,0.2,0,0.3-0.2,0.3c-0.2,0-0.5,0.2-0.5,0.3
				s-0.2,0.7-0.3,0.9c-0.2,0.2-0.3,0-0.5,0.2c-0.2,0.2-0.2,0.3-0.3,0.5c-0.2,0-0.5,0.2-0.7,0.2c-0.3,0-0.9-0.2-1.2-0.5
				c-0.2-0.2-0.3,0.3-0.3,0.5c0,0.2-0.3,0.7-0.7,0.7s-0.7-0.3-0.7-0.7c-0.3,0.3-0.7,0.7-0.7,1.1c0,0.3,0,0.9-0.2,1.2
				c-0.3,0.5-1.1,0.7-1.7,0.5c0-0.2,0-0.2,0-0.3c0.2-0.2,0.5-0.3,0.7-0.7c-0.5-0.2-1.1-0.2-1.4-0.2c-0.5,0.2-0.2,1.1-0.3,1.4
				c-0.2,0.3-0.7,0.5-1.1,0.3c-0.3-0.2-0.2-0.7,0-1.1c0.2-0.3,0.3-0.5,0.5-0.9s0.3,0,0.3-0.2c0.2-0.5-0.7-0.5-0.9-0.3
				c-0.2,0.2-0.5,0.3-0.5,0.5c0,0.3,0,0.9,0,1.2c-0.3-0.2-0.9,0-1.1,0.3c-0.2,0.2,0,0.5,0,0.9c0,0.3-0.5,0-0.7,0.2
				c0-0.3,0.3-0.9,0-1.1c-0.7-0.3-0.5,0.7-0.5,1.2c-0.5,0-1.1,0-1.4,0.3c-0.3,0.2-0.5,0.9-1.1,0.7c-0.2,0-0.2-0.3-0.2-0.5
				c-0.3,0.2-0.2,0.5-0.3,0.9c-0.1,0.3-0.7,0.3-1.1,0.2c-0.3-0.2,0-0.5-0.2-0.3c-0.3,0-0.7,0.3-0.5,0.7l0,0c0.3-0.2,0.5,0.2,0.5,0.5
				h-0.2c0-0.2-0.3,0-0.3-0.2c-0.3,0-0.7,0.2-0.9-0.2c-0.2-0.3,0-0.9-0.5-0.9c-0.3,0-0.3,0.5-0.5,0.5c-0.3,0.3-0.7,0.3-1.2,0.3
				c-0.5-0.2-0.5-0.9-0.9-1.1s-0.7,0-0.9,0.2c0.2-0.5-0.5-1.2-0.9-0.9c-0.7,0.7-1.4,0.5-2,0.7v0.3c0.7,0,1.1,0.7,0.9,1.4
				c0,0.2-0.2,0.3-0.3,0.3H175c-0.2-0.2-0.3-0.3-0.5-0.3s-0.5,0-0.7-0.2c-0.1-0.2-0.3-0.7-0.7-0.9c0,0.7,0,1.2,0,1.9
				c0,0.2-0.2,0.3-0.3,0.3c-0.3,0-0.3,0.3-0.7,0.3c0.2-0.3,0.2-0.7,0-1.1h-0.3c-0.2,0-0.3,0-0.5,0c-0.5,0.2-1.1,0.5-1.7,0.7
				c0-0.3,0-0.5,0.3-0.5V106c-0.3,0-0.5,0-0.9,0.2c-0.3,0-0.3,0.2-0.3,0.3c0,0-0.2,0-0.2-0.2c-0.3,0-0.7,0-0.9,0.2
				c-0.2,0.3-0.2,0.7,0,1.1c0,0.2,0.3,0.3,0.3,0.5c0,0.2,0,0,0,0.2c-0.5-0.3-1.4-0.3-1.4-1.2c-0.5,0.2-0.9,0.7-0.9,1.2
				c0,0.2-0.2,0.2-0.3,0.3c-0.2,0.2-0.2,0.7-0.3,1.1c-0.3-0.7-1.1-1.1-1.6-1.7c-0.2-0.2-0.9,0-0.7,0.3s0.2,0.2,0.2,0.3h-0.2
				c0,0-0.2,0-0.2-0.2l0,0c-0.2,0-0.3,0-0.5,0c0,0,0-0.2-0.2-0.2c-0.3,0-0.5,0-0.9-0.2c-0.5-0.2-0.9-0.2-1.4,0.2
				c-0.3,0.2-0.3,0.5-0.3,0.9c-0.9,0-1.7,0.2-2.4,0.5c-0.2-0.7-0.3-1.2-0.3-1.9c-0.9,0.5-0.2,1.6-0.5,2c-0.3,0.5-0.3-1.1-0.9-1.2
				c-0.5-0.2-0.3-0.3-0.7-0.5c-0.3-0.2-0.3,0-0.2,0.2s0.3,0.3,0.3,0.5c0,0.2,0.3,0.7,0.2,0.9c-0.2,0.2-0.2,0.7-0.5,0.9
				c-0.2,0.2-0.5,0.2-0.7,0c-0.2,0-0.2-0.2,0-0.2c0.3-0.3,0.2-0.9-0.2-1.2c-0.3-0.2-0.7-0.2-1.1,0c-0.3,0-0.7,0.2-1.1,0.3
				c-0.3,0.3-0.7,0-1.2,0.2c-0.5,0.2-0.3,0.3-0.5,0.5c-0.2,0-0.2,0.2-0.3,0.2c0.2-0.3-0.2-0.7-0.5-0.9c-0.2,0-0.3,0-0.5,0
				c-0.3,0.2,0.2,0.9-0.2,1.2h-0.3c0,0,0.2-0.7-0.3-0.7s-0.5,0-0.5,0.2v0.3c-0.5,0.2-1.1,0.2-1.4,0c-0.2-0.2-0.5-0.3-0.5-0.5
				c-0.2-0.2,0-0.5-0.3-0.7c-0.3-0.2-0.2,0-0.3,0c-0.2,0,0,0.5,0.2,0.9s-0.2,0.5-0.2,0.7c0,0.2,0.2,0.7-0.2,1.1
				c-0.2,0.3-0.3,0-0.3-0.2c-0.2-0.3-0.5-0.5-0.7-0.7c-0.2-0.2,0-0.7,0-1.1c-0.2,0.2-0.3,0.3-0.5,0.3c-0.2,0.2,0,0.3-0.2,0.5
				c-0.3,0.5-0.5,0.9-0.7,1.4c0.2-0.2,0-0.3,0-0.3c-0.2,0.2-0.5,0.3-0.7,0.2c-0.9-0.3-1.7,0.2-2.4,0.5c-0.2,0.2-0.5,0.2-0.7,0.2
				c0.3-0.2,0.2-0.7,0.7-0.9c0,0,0-0.2,0-0.3c0-0.1-0.2-0.2-0.3-0.2c-0.5-0.2-1.1,0-1.4,0.2c-0.3,0.2,0,0.5-0.2,0.7
				c-0.2,0.2-0.2,0-0.3,0c-0.3-0.3-0.9-0.7-1.4-0.9c-0.2,0-0.3,0-0.5,0c-0.5,0.3-1.1,0.2-1.4,0.5c0,0-0.2,0.2-0.2,0.3
				c0.3,0.2,0.9,0.3,1.1,0.7c0.2,0.2,0,0.5-0.2,0.7c-0.2,0.2-0.7-0.5-1.1-0.9c-0.3-0.3-0.5-0.3-0.7-0.3c-0.5-0.2-1.4,0.2-1.9,0
				c-0.5-0.2,0-0.7,0.5-0.7v-0.2c-0.5-0.2-1.1,0-1.4,0.3v0.3c0.3,0,0.3,0.5,0.7,0.7c0,0-0.2,0.2,0,0.2c-0.3,0-0.5,0-0.9,0
				c0-0.2,0-0.3,0-0.5c0-0.2-0.3,0-0.3-0.2c0-0.2,0-0.9-0.5-0.9s-0.3,0.3-0.3,0.7s-0.2,0.2-0.3,0.3c-0.2,0.2-0.2,0.3-0.2,0.5
				c-0.3,0-0.7,0.2-0.9,0c-0.2-0.2,0-0.7-0.2-0.9c-0.2-0.2-0.9,0-1.2,0c0,0.2-0.2,0.2-0.2,0.2c-0.7,0.3-1.6-0.2-2.2,0.2
				c-0.5,0.2-1.1,0.3-1.6,0.3c-0.3,0-0.2-0.3-0.3-0.7l-0.2-0.2c0,0,0,0-0.2,0.2c-0.2,0.3-0.5,0.3-0.5,0.7c0,0.3,0.3,0.3,0.3,0.5
				c0,0.2-0.3,0.7-0.7,1.1c0-0.2-0.3,0-0.3-0.2c0-0.5-0.5-0.7-0.7-1.2c0-0.2-0.2-0.3-0.2-0.5c-0.3,0.5-0.5,1.2-0.5,1.9
				c0,0.3-0.7,0.7-0.5,1.2c0,0.2,0.5,0.2,0.5,0.3c0,0.2,0,0.3,0,0.5c0,0.3,0,0.9,0.2,1.2c0,0.2,0.5,0.2,0.9,0.2
				c0.3,0,0.3,0.3,0.3,0.3c0.5,0,1.1,0.2,1.4,0.2s1.1-0.5,1.2,0c0.3,0.7-0.5,1.2-1.2,1.2c0-0.2,0-0.3-0.2-0.5c0-0.2,0-0.3,0-0.5
				c-0.5,0.2-0.9,0.7-0.7,1.2v0.2c0,0.2,0.3,0.3,0.5,0.5c0.2,0.2,0,0.3,0.2,0.5c0.2,0.2,0.7,0.3,1.1,0.7c0.3,0.3,0,0.5-0.3,0.5
				s-0.5,0-0.9,0.2c-0.2,0-0.2,0.2-0.3,0.2c0.2,0,0.2,0.3,0.3,0.3c0.7,0,1.1-1.2,1.7-0.5c0.3,0.3,0.3,0.9-0.2,1.2
				c-0.2,0.2-0.5,0.2-0.9,0.2c0.2,0.2,0.3,0.3,0.3,0.7c0,0,0.2-0.2,0.3-0.2c0.3,0,0.9,0.2,1.1-0.2c0.2-0.3,0-0.3,0-0.3
				s0.3-0.2,0.5-0.3c0.7-0.3,0.9,0.5,0.5,1.1c-0.3,0.3-0.7,1.1-0.7,1.6c0.3-0.2,0.9-0.3,1.1-0.5c0.3-0.3,0.3-1.1,0.9-1.4
				c0.5-0.3-0.3-0.5-0.3-0.9c0.5,0,1.2,0,1.7,0s0.3,0.5,0.3,0.9c-0.3,0.3-0.5,0.9-0.5,1.4c0,0.2,0.3,0.2,0.5,0
				c0.2-0.2,0.5-0.3,0.9-0.5v-0.2c0.3-0.2,0.9-0.3,0.9-0.9c0-0.2,0.3-0.3,0.5-0.5c0.2-0.2,0-0.5,0-0.9c0.3,0,0.7-0.2,0.7,0.2
				c0,0.3,0,1.1-0.5,1.2c0.3,0.2,0.9,0,1.2,0.3c-0.3,0.2-0.7,0.3-0.5,0.9c-0.7,0-1.2,0-1.9,0c0,0.2,0.3,0,0.3,0.2
				c0,0.5,0.5,0.9,0.7,1.4c-0.3,0-0.5,0.3-0.3,0.3c0.2,0,1.1,0,0.9-0.3c0-0.2-0.3-0.3-0.2-0.5c0.2-0.2,0.3-0.2,0.5-0.3
				c0.2-0.2,0.3-0.2,0.5-0.3c0.2-0.1,0.7-0.3,1.1-0.7c0.3-0.3,0.5-0.2,0.7-0.2c-0.2-0.5-0.7-0.5-1.1-0.5l-0.2-0.2
				c0.9-0.2,1.7,0.2,2.2,0.7c-0.2,0-0.3,0.2-0.3,0.3c0,0.5-0.5,0.9-0.2,1.4c0,0.2,0.3,0,0.3,0c0.2-0.5,0.7-0.9,1.2-1.1
				c0.3,0,1.1,0.3,1.1,0.7c0,0.2-0.3,0.3-0.5,0.3s-0.2,0-0.3-0.2c-0.2-0.2-0.3,0-0.3,0.2c0,0.5,0,0.9,0,1.4
				c-0.2,0.3-0.2,0.7-0.2,1.1c0.2-0.2,0.3-0.2,0.5-0.2c0-0.2,0-0.2,0-0.3c0.2-0.2,0.7-0.2,0.7-0.5c0,0,0-0.2-0.2,0v-0.2
				c0.3,0,0.5,0.3,0.9,0.5c0.3,0.2,0.9,0,1.4,0.3c0.2,0,0.5,0,0.7-0.2c0.1-0.2,0-0.5-0.3-0.7c0.3-0.2,0.9-0.2,1.1,0.2
				c0.2,0.3-0.2,0.9-0.2,1.4s-0.3,0-0.3,0.2c0,0.2,0.2,0.7,0.3,0.9c0.1,0.2,0.9,0.3,1.1-0.2c0.7,0.2,1.6,0.2,2.2-0.2
				c0.3-0.2-0.2-1.1,0.2-1.1c0.3,0,0.5,0.7,0.9,0.9c0.3,0.2,0.5,0,0.7,0.2c0.2,0.2,0.2,0.3,0,0.7l0,0c-0.2,0-0.3,0.3-0.3,0.5
				s0-0.2,0.2,0c0.2,0,0.3,0.2,0.5,0.3c0,0,0,0,0,0.2v-0.2h0.3v-0.3c0,0,0.2-0.2,0.2,0c0.2,0.3,0.7,0.3,1.1,0.3
				c0.3-0.2,0.2-0.9,0-0.9c-0.5-0.3-1.1-0.5-1.1-1.2c0,0-0.2,0-0.2-0.2c0-0.3,0-0.5,0-0.9h0.2c0.3,0.3,0.7,0.7,0.9,1.1
				c0.2,0.5,0.9,0.9,0.7,1.4c0,0.2-0.5,0.3-0.3,0.7s0.2,0.2,0.2,0.2c0,0.3-0.2,0.9,0,1.2c0,0.2,0.2,0.3,0.3,0.3
				c0.3,0,0.3-0.5,0.5-0.7c0.2-0.2,0.5-0.2,0.7-0.3c0.2-0.2,0.3-0.7,0.7-0.9c-0.3-0.2-0.7-0.5-0.3-0.7c0.3-0.1,0.7-0.2,1.2-0.2
				s0.3,0.2,0.3,0.3c0,0.1-0.5,0.3-0.5,0.5c-0.2,0.2,0,0.5,0.2,0.7c0.3,0.2,0.7-0.2,0.9,0.2c0.2,0.3-0.3,0.5,0,0.9
				c0.3,0.3,0.9,0,1.2-0.2c0.3-0.2,0.2-0.5,0.3-0.9c0.2-0.3,0.5-0.2,0.5-0.3c0-0.2,0-0.5,0.3-0.5s0.9,0.3,1.4,0.3v0.3
				c0.3,0,0.5,0.2,0.9,0.2c0,0.3-0.3,0.5-0.5,0.5s-0.5-0.3-0.9-0.3s-0.3,0.3-0.5,0.3s-0.2,0.3-0.5,0.5c-0.3,0.2-0.2,0.5,0,0.5
				s0.7-0.3,1.2-0.5c0.5-0.2,0.9-0.3,1.4-0.3c0,0.2,0.2,0.3,0.2,0.5c0.3-0.2,0.3-0.3,0.3-0.7c0.5,0,1.1,0,1.4,0
				c0.2,0,0.2,0.3,0.3,0.3c0.2,0,0.7,0.2,0.7-0.2c0-0.3-0.2-0.9,0.2-1.2h0.2c0,0,0.2,0.7,0.3,0.9c0.1,0.2,0.5-0.2,0.7,0v0.2
				c-0.2,0.2-0.5,0-0.5,0.3c0,0.5-0.2,1.2,0.3,1.2s1.1-0.2,1.6-0.2c0.3,0,0.5-0.5,0.7-0.7c0.1-0.1,0.9,0.2,1.1,0.5
				c0.2-0.2,0.3,0,0.5,0c-0.2,0.5-0.9,1.1-1.4,0.5c0,0-0.2-0.2-0.3-0.3c-0.2-0.3-0.3,0.7-0.9,0.7s-0.7,0.7-0.7,1.2
				c-0.5-0.2-0.5-0.7-1.1-0.7s-0.3,0.2-0.7,0.2s0-0.3,0-0.3c0.5-0.2,0.7-0.7,0.3-0.9c-0.3-0.2-0.7,0.5-0.9,0.9l-0.2-0.2
				c0,0-0.3,0.2-0.5,0.2s-0.5-0.2-0.7-0.3c-0.2-0.2-0.2-0.5-0.3-0.7c-0.2-0.2-0.3-0.2-0.3,0c0,0.2-0.2,0.7-0.5,1.1
				c-0.3,0.3,0,0.3,0.2,0.7c0.2,0.2,0.2,0.3,0,0.5c-0.3,0.2-0.7,0.2-0.9,0l0,0c0-0.3-0.2-0.5-0.3-0.9c-0.2-0.2-0.3,0.2-0.3,0.2
				c-0.2,0.5,0.2,1.2-0.3,1.6c-0.2-0.5-0.2-1.1-0.7-1.2c-0.2,0,0.2-0.5,0.2-0.7c0-0.2-0.7-0.2-0.9,0c-0.2,0.2-0.2,0.3,0,0.5
				c0.2,0.2,0.2,0.5,0,0.7c-0.2,0.2-1.1,0.2-1.2,0c-0.2-0.2,0.5-1.1,0-1.1s-0.9,0.2-1.4,0.2c-0.2,0-0.2,0.2,0,0.3
				c0,0.3,0.3,0.3,0.5,0.5c0.2,0.2,0.5,0.3,0.5,0.5c0.2,0.5-0.7,0.3-1.2,0.5c0-0.3,0-0.9,0-1.2c-0.2,0.2-0.3,0.3-0.7,0.3l0,0
				c-0.5,0-0.7-0.9-1.1-1.1c-0.3-0.2-0.5,0-0.5,0.3s0.3,0.9,0.7,1.1c-0.3,0.2-0.7,0.5-1.1,0.3c-0.3-0.2-0.5-0.7-0.9-1.1
				c0,0.2,0,0.3,0,0.3c-0.2,0.2-0.5,0.2-0.7,0.2s-0.2-0.9-0.7-1.1c0,0.2-0.2,0.2-0.3,0.3c-0.2,0.2,0.3,0.7,0.2,0.7
				c-0.2,0-0.2-0.3-0.3-0.5c-0.3-0.5-1.1,0-1.4-0.3c-0.3-0.3-0.2-1.2-0.5-1.2s-0.3,0.5-0.5,0.7c-0.2,0.2-0.3,0.3-0.7,0.3
				c-0.5,0-0.9-0.7-1.1-1.4c-0.5,0.9-1.4,0.5-2.2,0.5c-0.5-0.2-0.7-0.7-0.5-1.1h-0.2l0,0c-0.3-0.2-0.3-0.5-0.5-0.5
				c-0.7-0.2-1.1,0.7-1.2,1.2c-0.9-0.7-1.9-1.1-2.8-0.9c0,0.3-0.3,0.3-0.3,0.5c-0.5-0.5-0.7-1.4-0.2-1.9l0,0
				c0.2-0.2-0.2-0.3-0.3-0.3c-0.2,0-0.5,0.3-0.9,0.3c-0.2,0-0.5,0-0.7,0c-0.2,0-0.2,0-0.2,0.2c0,0.5,0,1.1-0.5,1.4
				c-0.2-0.7-0.3-1.4-0.7-1.9c-0.2-0.3-0.5-0.3-0.7-0.9c0-0.2-0.3-0.3-0.5-0.2c-0.2,0.1,0,0.5-0.2,0.5c-0.2,0-0.5,0-0.5,0
				c-0.3-0.3-0.7-0.5-1.2-0.5c-0.3-0.2,0-0.5,0.3-0.7c0.3-0.2,0-0.2,0-0.2c-0.5,0-1.2-0.2-1.6,0.3c-0.3,0.5-0.9-0.3-1.1-0.7
				c0.2,0.2,0.2-0.2,0.3,0c0-0.2,0-0.3,0-0.5c-0.2-0.2-0.2-0.5-0.3-0.5c-0.2,0-0.7-0.3-0.9,0c-0.2,0.3,0,0.3,0,0.5s-0.7,0.2-1.1,0.5
				c-0.4,0.3-0.7-0.2-1.1-0.3v-0.2c0.3-0.2,0.9-0.5,0.3-0.7c-0.5-0.2-0.9-0.2-1.1-0.3c-0.2-0.2,0.3-0.5,0.5-0.9
				c0.2-0.3-0.3-0.2-0.5-0.2c-0.5,0.3-0.3,1.2-0.5,1.7c0,0-0.2,0-0.3,0c-0.3-0.3-0.5-0.7-0.9-1.2c-0.2-0.5-0.3-0.9-0.7-1.2
				c-0.3-0.2-0.5,0.5-0.9,0.3c-0.3-0.2-0.3-0.3-0.2-0.7c0.2,0,0.3-0.2,0.5,0.2c-0.2-1.1-0.5-2-0.9-3.1c0,0,0-0.2,0-0.3
				c0-0.2-0.3-0.5-0.3-0.3c-0.3,0.5-0.7,1.2-0.9,1.7c-0.5-0.2-0.7-0.7-0.5-1.2c0,0,0-0.2,0.2-0.2c0.2-0.2-0.2-0.3-0.3-0.3
				c-0.2,0-0.3,0.7-0.3,1.2c-0.9-0.5-1.6-1.4-1.9-2.2c-0.2-0.2-0.3-0.3-0.5-0.3c0.3-0.3,0-0.9-0.2-1.2c0,0,0,0-0.2,0
				c0,0.2,0,0.3-0.2,0.5c0,0.2-0.3-0.2-0.3,0c0,0.2,0,0.3,0,0.3c-0.3,0.2-0.9,0.3-1.2,0c-0.3-0.3-0.2-0.9-0.7-0.7
				c-0.2,0.2-0.2,0.2-0.2,0.3c-0.2,0,0-0.3-0.2-0.3c-0.2,0-0.7-0.2-0.7-0.3c-0.2-0.2-0.2-0.5,0-0.7c0.5-0.5,1.1-0.9,1.7-1.2h-1.4
				c0,0,0,0,0,0.2l-0.2-0.2c-0.2-0.2-0.5-0.2-0.7,0c-0.2-0.2-0.2-0.3-0.3-0.5c-0.9-0.2-1.4-0.9-1.7-1.6c0-0.2-0.5-0.2-0.5-0.5
				l0.2-0.2c-0.9-1.2,0-1.1,0-1.7c-0.3,0.2-0.9,0-1.1,0.2c-0.2,0.2-0.3,0.5-0.5,0.7c-0.5,0.2-1.1,0.2-1.4-0.2
				c-0.7-0.9-1.1-1.7-1.6-2.6c-0.3-0.5-0.7-1.2-1.1-1.9c-0.3-0.5-0.7-1.1-0.9-1.7c0-0.2,0.2-0.5-0.2-0.7c-0.3-0.2-0.5-0.3-0.9-0.5
				c-0.3-0.2-0.3,0.2-0.5,0c-0.2-0.2,0-0.3-0.2-0.3s-0.5,0-0.5,0c1.6,4,3.8,7.8,6.6,11.1c10.6,13.7,26.8,21.8,43.9,21.6
				c25.4-0.2,40-11.1,48.1-22c4.8-6.6,8.3-14,9.8-22C203,95.1,203,94.9,202.7,95.1z M146.6,111.3c-0.2,0.5-0.5,1.1-1.1,1.2
				c-0.2-0.5-0.3-1.1,0-1.4c0.2-0.3,0.7-0.3,1.1-0.3v-0.2C146.6,110.8,146.6,111.1,146.6,111.3z"/>
			<path class="st0" d="M143.8,132.2c0-0.2-0.3-0.3-0.3-0.3c0,0.3-0.3,0.5-0.7,0.5l0,0c0,0.3,0.3,0.3,0.5,0.5c0.2,0,0.3-0.2,0.5-0.3
				C143.8,132.2,143.8,132.2,143.8,132.2z"/>
			<path class="st0" d="M106.5,65.6h15.9c0,0,0.3,0.9,0.3,1.2c0,0.2,0.3,0.3,0.5,0.3c22-12.8,17.1,15.6,17.1,15.6h-10.6
				c0,0,0,1.7,0-3.8c0-5.3-5.5-4.5-5.7,0c0,4.5,0,3.8,0,7.6c0.2,3.8,2.8,3.8,2.8,3.8v2.2h-20v-1.9c0,0,3-0.2,3-3s0-5.3,0-8.8
				c0-3.4-3.3-3.3-3.3-3.3C106.5,75.7,106.5,65.6,106.5,65.6z"/>
		</g>
	</g>
</g>
<g id="Layer_2_1_">
</g>
</svg>
