<?xml version="1.0" encoding="utf-8"?>
<!-- Generator: Adobe Illustrator 25.3.1, SVG Export Plug-In . SVG Version: 6.00 Build 0)  -->
<svg version="1.1" id="Layer_1" xmlns="http://www.w3.org/2000/svg" xmlns:xlink="http://www.w3.org/1999/xlink" x="0px" y="0px"
	 viewBox="0 0 290 166" style="enable-background:new 0 0 290 166;" xml:space="preserve">
<style type="text/css">
	.st0{fill:#FFFFFF;}
	.st1{fill:#FFE717;}
</style>
<path class="st0" d="M289,53.5l-0.4-2.3l-0.3-0.9l-0.3-0.8c-2.2-5.2-6.3-7.9-11.9-8.1l3.5-1.8l-8-14.9c0,0-18.4,9.5-19.7,10.3
	c-3.9,2.3-8.1,6.9-8.1,12.7c0.1,1,0.2,1.9,0.6,2.9c-3.6-5-8.1-6.8-14.1-5.4c-3.1,0.9-6,2.6-8.3,4.9l-0.8-2l-20.4,8l2.5,6.5
	c-2.2-1.8-4.9-3.1-7.7-3.5l0,0c0-0.1-1.6-1.9-1.7-2l9.2-8.3l-1.3-1.5c0.4-0.4,4.2-4.2,4.2-4.2v-7.1c0-0.1,0-0.4-1.9-3.6
	c-0.1-0.1-3.5-3.2-3.5-3.2l-1.6,0.9c0-0.1-4.8-1.3-4.8-1.3l-1.6-0.4l0,0c-0.1-1.6-0.8-3.1-2-4.1c-0.3-3-2.9-5.3-5.9-5.3
	c-3.3-0.1-6,2.6-6.1,5.9c0,0,0,0,0,0c0.1,1.6,0.8,3,2,4l0,0l-2.9-0.9L177,30l-0.3-0.1l-3-0.6l0.8-6.6l-2.3,0.2
	c0.1-0.6,0.5-3.7,0.5-3.7l-11.1,1.1c-0.1,0-3.1,3.4-3.3,3.6l0.3-4.5c0,0-7.4,4.4-8.5,5c0-0.9-0.5-9.1-0.5-9.1l-13.9,9.4
	c0,0,0.3,6.2,0.3,6.5l-0.6,0.4c0-0.1-6.4-0.9-7.4-1.1c-0.2-1.4-0.9-2.7-1.9-3.7c-0.3-3-2.9-5.3-5.9-5.3c-3.3-0.1-6,2.5-6.1,5.8
	l-1.8,0.5c0-0.7,0.2-3.8,0.2-3.8l-12.2,3.3l-0.5,1.3l-7.4,19.6l-2-0.3l-3.2,7.7l2.6,1.7l-0.7,1.8l8,5.2l-1.3,2.2l-11.8,0v1.5
	c-3.5-1.4-7.3-1.4-10.8,0c-6.9,3-11,10.4-11,19.6c0,0.1,0,0.1,0,0.2l0.2,3.1h-0.2c-1.2,0-4.2-0.4-4.2-1.6V72.3
	c0.1-2.7,3-2.8,3.9-2.8l2.8,0.1v-2.8v-12h13l-0.1-19.1c0-4.7-2-8.1-5.4-9.5c-2-0.7-4.2-0.7-6.2,0.1v-0.7H52.9V11.7
	C53,5.9,48.4,1.1,42.6,1c-0.1,0-0.2,0-0.3,0h-41v16H4c0.4,0,3.9,0.1,4,2.8v16.7C8,39,4.4,39.2,4,39.2l-2.7,0L1.3,69.5l2.8-0.1
	c0.7,0,4.1,0,4.1,2.8v17.3c0,1-3,1.6-4.5,1.5l-2.8,0v18.5h30.3V97.1l1.7,2.2l1.8-2.2v12.6h30.9c0,0,0-7.6,0-8.6l0.2,0.3l0.9,1.2
	l2.7,2.8l1.8,1.3l2.1,1.1c1.6,0.7,3.4,1,5.2,1l0.5,1.9c9,32,37.4,54.3,69.2,54.3c37.7,0,68.6-29.6,71.9-68.8c0,0,0.1-1.5,0.2-2
	c9.7-3.2,30.6-11.7,38.8-15.6l-2.2-6.1l3.5,5.4l19.9-9.8c3.3-1.7,6-4.3,7.6-7.6l0.1-0.3l0.7-1.8l0.1-0.3V58l0.5-2.7v-1.8l0,0
	L289,53.5z"/>
<path class="st1" d="M185.4,52.6c1.1-1.5,3.2-4.6,3.2-4.6l-1.4-1.5c0,0-0.6,1-1.3,0.4s2.4-9.7,2.4-9.7l-7.1-2.1l-1,3.6l1.6,1.6
	l-1.1,9c-1.8-1.2-3.8-2.4-5.7-3.4c0.8-3.3,1.8-6.5,3-9.7l-6.7-1.3l-3.1,3.5l1.6,1c0.3-0.2,0.5-0.5,0.8-0.7c0.8-0.5,1.1,0.6,0.5,1.5
	c-1.1,0.8-2.3,1.6-3.5,2.5c-1.5-0.5-3-1-4.6-1.4c2.1-4.7,4.3-9.6,5-10.6c0.9-0.2,1.9-0.4,2.8-0.4l0.6-4.4l-6.3,0.6L158,40.2
	l-1.1-0.2c-0.1-4,0.1-8.1,0.4-12.1l-7.6,4.6l-0.7,5.7c0,0-0.4,0.4-0.9,1.2h-0.4c0-3.2-0.4-14.7-0.4-14.7l-7.1,4.9l0.1,3.1l1.6,0.2
	c0.2,2.1,0.5,4.4,0.7,6.7c-0.9,0.1-1.8,0.2-2.6,0.3l-0.1-1.4c0,0-0.8-0.6-1.3-1c-0.5,0.4-2.3,2.3-2.9,1.5c-0.4-0.6,0.5-1.3,0.5-1.3
	l-7.4-1l-1.3,3.8l1.6,1.1l-0.1,0.7c-2.3,0.8-4.5,1.7-6.7,2.7c0.7-2.5,1.5-5.1,1.5-5.1l-7.7-2.1l-1,3.7l1.6,1.6l-0.4,5.2
	c-2,1.3-3.9,2.6-5.7,4.1c-0.2-6.7,0.6-21.1,0.7-21.3c-0.8,0.2-7.2,2.1-7.2,2.1l-8.2,21.7L94,54.5l-1.5,3.7l6.2,4l3.2-8.5l3.4,0.8
	c0.1,0.9,0.2,1.9,0.3,2.8c-8.5,8.9-13.3,20.8-13.3,33.1c0,28.2,24.9,51,55.7,51s55.7-22.9,55.7-51C203.7,75.4,196.7,61.9,185.4,52.6
	z M104.9,49.9l-1.9-0.5l2.4-6.7L104.9,49.9z M186.4,31.6c1.8-0.1,3.1-1.6,3-3.4c-0.1-1.8-1.6-3.1-3.4-3c-1.7,0.1-3,1.5-3,3.2
	C183,30.2,184.6,31.6,186.4,31.6z M194.5,52.7l4.6-4.1l-1.6-1.8c0,0-1.3,1-1.6-0.1c0-1.1,0.3-2.3,0.9-3.3c0.6-1.3,1.6-3.1,2.2-2.1
	c0.6,1.2,0.9,2.4,1.1,3.7l3-3v-4.9c0,0-0.7-0.6-1.2-1.1c-0.6,0.3-2.6,2-3,1.2c-0.3-0.6,0.6-1.2,0.6-1.2l-6.3-1.7l-1.6,3.7l1.4,1.2
	l-2.9,10.1L194.5,52.7z M122.1,34.3c1.8-0.1,3.1-1.6,3-3.4c-0.1-1.8-1.6-3.1-3.4-3c-1.7,0.1-3,1.5-3,3.2
	C118.7,32.9,120.3,34.4,122.1,34.3z"/>
<path d="M188.2,106.4c-0.2-0.3-0.4-0.7-0.9-0.7c-0.4,0.2-0.6,0.7-0.5,1.1c0.3,0.4,0.7,0.6,1.2,0.6
	C187.8,107.1,188.4,106.9,188.2,106.4z"/>
<path d="M134.4,136.8L134.4,136.8z"/>
<path d="M202,103.3c-0.5-0.1-1.4-0.7-0.7-1.3c-0.1-0.8-1.1-1.1-1.4-0.3c-0.7,1.4,1.5,0.7,1,2c-0.2,0.5-0.7,0.9-1.3,0.9
	c-1.2-0.1-0.2-1.2-0.8-1.7c-0.3-0.4-0.9-0.4-1.3,0c0,0-0.1,0.1-0.1,0.1c-0.9,1.2,1.1,0.9,0.8,2c0,0.3-0.3,0.8-0.8,0.7
	c-0.5-0.2-0.8-0.7-0.6-1.2c-0.3-0.4-0.7-0.6-1.2-0.6c-0.5,0.2-0.9,0.7-1.1,1.2c-0.3,0.3-0.8,0.1-1.1,0c-1.4,0.1-1.2,2.4-2.8,1.4
	c-0.4,0.3-0.5,0.8-0.9,1.1c-0.5,0.5-1.3,0.1-1.9,0c-0.1,0.6-0.1,1.1-0.6,1.4c-1.3,0.4-1.2-0.9-1.6-1.6c-1.1-0.9-1.3,0.9-1.9,1.2
	c-2-1.3-1.5,2.2-3.4,1.2c-1.1-0.1-0.8,1.7-1.9,1.4c-0.4-0.2-1.3-0.6-0.8-1.2c-0.1-0.3-0.4-0.8-0.9-0.8c-1.8,0.9,0.8,1.3,0.5,2.6
	c-0.2,0.4-0.7,0.7-1.2,0.7c-0.6-0.2-0.9-0.8-0.7-1.4c0,0,0-0.1,0-0.1c-0.3-0.4-0.7-0.6-1.2-0.6c-0.2,0.2-0.6,0.4-0.6,0.9
	c-0.2,0.8-1,0.4-1.5,0.3c-0.4,0-0.7,0.3-0.9,0.7c-0.2,0.6-0.7,0.9-1.3,0.8c-1.6,0.1,0-1.4-1-1.9c-0.3-0.4-0.9-0.1-1.1,0.2
	c-0.8,1.5,1.8,0.7,1,2.2c-0.2,0.5-0.7,0.7-1.2,0.7c-0.5-0.2-0.8-0.7-0.7-1.3c0,0,0-0.1,0-0.1c-0.2-0.3-0.5-0.8-1.1-0.7
	c-0.8,0.2-0.8,1.1-1.2,1.5c-1.6-1.4-1.6,1.3-3,1.1c-0.6,0-1.4-0.6-0.8-1.2c-0.1-0.5-0.5-0.8-1-0.8c-1.9,1.2,1.1,1.3,0.5,2.4
	c-0.1,0.5-0.6,0.9-1.1,0.8c0,0-0.1,0-0.1,0c-0.6-0.1-0.6-0.9-0.5-1.4c-0.3-0.4-0.7-0.6-1.2-0.6c-0.5,0.1-0.8,0.8-1,1.2
	c-0.5,0.3-1.3-0.1-1.8,0c-0.3,0.6-0.6,1.4-1.4,1.3s-0.7-0.9-0.7-1.6c-0.3-0.3-0.6-0.7-1.2-0.6c-0.5,0.3-0.6,0.9-1,1.3
	c-0.7,0.2-1.4,0-1.9-0.5c0.2-0.6,0.4-1.2-0.2-1.6c-0.3-0.2-0.7-0.2-0.9,0.1c0,0.1-0.1,0.1-0.1,0.2c-0.9,1.3,1.5,0.8,1,2.1
	c-0.1,0.5-0.6,0.9-1.1,0.8s-0.9-0.6-0.8-1.1c0-0.1,0.1-0.3,0.2-0.4c-1.3-2.1-1.8,1-3.2,0.6c-0.3-0.1-1-0.4-0.6-1
	c-0.1-0.6-0.4-1.1-0.9-1.1s-0.8,0.8-0.9,1.3c0.3,0.3,0.9,0.3,1.2,0.7c0.2,0.4,0.1,1-0.3,1.2c-2.2,0.6,0-2.2-1.8-2
	c-1.6-0.9-1,1.8-2.6,1.3c-1.3-0.3,0-1.7-1-2.1c-1.6-0.8-1,1.9-2.6,1.2c-1.6,0.2-0.2-1.6-1.3-2c-0.4-0.2-0.9-0.1-1.1,0.3
	c-0.9,1.7,1.7,0.7,1.1,2.2c-0.2,0.4-0.6,0.7-1.1,0.7c-1.1-0.1-0.5-1.4-0.8-1.9c-1.6-1.4-1.3,1.4-2.9,1.1c-0.5-0.1-0.9-0.7-0.7-1.2
	c0-0.1,0-0.2,0.1-0.2c-1.2-2.1-1.8,0.9-3,0.5c-0.6-0.1-1.3-0.6-0.8-1.3c-0.1-0.5-0.6-0.8-1.1-0.8c-2.2,1.5,1.5,1.2,0.7,2.7
	c-0.2,0.5-0.7,0.9-1.3,0.8c-1.2-0.3-0.1-1.5-0.8-2.1c-1.7-1.1-1.2,1.6-2.6,1.2c-1.3-0.8-1.2,1-1.7,1.5c-0.4,0.1-0.8-0.1-1.2-0.1
	c-0.4,0.2-0.7,0.6-0.8,1c0.1,0.5,0.5,0.9,1.1,1c0.4-0.1,0.7-0.4,0.8-0.8c0-0.5,0.4-0.8,0.9-0.8c0.1,0,0.2,0,0.3,0.1
	c0.5,0.3,0.7,0.8,0.6,1.3c-0.1,0.9-1.2,0.7-1.7,0.5c-0.4,0.3-0.6,0.7-0.6,1.2c0.2,0.5,0.6,0.8,1.1,0.8c0.8,0,0.7-1,1.1-1.4
	c0.5-0.2,1.1,0.1,1.4,0.6c0.2,0.5,0.1,1-0.2,1.4c-0.4,0.1-0.8-0.1-1.2-0.1s-0.6,0.4-0.5,0.8c0.2,0.3,0.5,0.5,0.7,0.8
	c0.8,0.7,0.9-0.7,1.2-1.1c0.5,0,1.1,0,1.4,0.6c0.3,0.3,0,0.9,0,1.3c0.3,0.7,1.1,0.5,1.6,0.9c0,0,0-0.1,0-0.1v-0.3
	c0.1-0.5,0.2-1.3,1-1.3s1.2,0.5,1.2,1c0,0,0,0,0-0.1v0.1c0,0.1,0,0.2,0,0.3c0,0.2-0.1,0.4-0.2,0.6c-0.1,0.2-0.4,0.3-0.6,0.3l-1-0.2
	c-0.1,0-0.3-0.1-0.3-0.2c0.1,0.4-0.5,1,0,1.4c1.6,2.1,1.2-1.4,2.9-0.8c0.5,0.1,0.6,0.8,0.6,1.2c0,1-1.1,0.8-1.6,0.6
	c0.6,1.7,1.4-0.3,2.6,0.6c0.4,0.2,0.6,0.8,0.4,1.2c0.4,0.4,0.9,0.7,1.5,0.9c0.1-0.1,0.3-0.2,0.3-0.4c0.2-0.5,0.7-0.8,1.2-0.8
	c0.5,0.2,0.7,0.7,0.6,1.2c-0.8,1.5,1.5,0.9,2,1.9c0.1,1.9,1.4-0.1,2.2,0.2c0.8-0.1,1,0.8,1.3,1.2c0.5,1.7,1.5-0.3,2.2-0.2
	c1.1-0.1,1.1,1.1,1.7,1.7c0.9,0.3,1.3-0.9,2.1-0.6s1,1,1.4,1.6c0.5,0.1,1.1-0.1,1.4-0.5c0.7-0.1,1.4,0,2,0.5c0.1,0.6-0.3,1-0.4,1.3
	c-0.6,0.3-1.3-0.1-1.9-0.1c-0.3,0.4-0.6,1.3-1.4,1s-0.2-1.2-1.1-1.6c-1.3-0.9-1.4,1.4-2.7,0.9c-1-0.1-0.2-1.2-0.9-1.6
	c-1.3-1-1.4,1.2-2.7,0.8c-1.1,0-0.3-1.3-1.2-1.7c-1.3-0.9-1.2,1.2-2.4,0.8c-1,0-0.7-1.1-1.2-1.6c-1.2-1.2-1.4,0.9-2.6,0.5
	c-0.4-0.1-1-0.7-0.7-1.1c-0.6-2-2,0-3,0c-1-0.2-0.4-1.3-1-1.9c-1.1-1.2-1.6,0.6-2.5,0.8c-0.4,0-0.7-0.6-0.6-1.1s0.7-0.4,1.2-0.3
	c0.1-0.2,0.4-0.1,0.3-0.4c-0.7-1.3-1.4,0.5-2.5-0.1c-1.2-0.1-0.5-1.6-1.4-1.9c-0.5-0.5-1.2,0.1-1.4,0.5c-1.5,0.7-1.2-1.3-1.9-1.9
	c-1.5,0.1-0.7-1.7-1.8-2.2c-0.8-0.7-1.2,1.1-2,0.6c-1-0.2-0.1-1.3-0.7-1.8c-1.4,0.1-1.4-1.4-2-2.3c-1.4,0.1-1.1-1.6-2.1-2
	c-0.3-0.4-0.6,0.1-0.9,0.3c-0.4,0.3-0.9,0.2-1.2-0.1c0,0,0,0,0,0c-0.3-0.6-0.1-1.3,0.5-1.6c0.1,0,0.1-0.1,0.2-0.1
	c-0.5-1-1.7,0.4-2.2-0.8c0.2-1.3-0.5-1.7-1.5-2.1c-0.1-1.7-1.9-1.9-2.4-3.3c-0.5-1.1-1.1,0.4-1.8,0.1c-0.6-0.3-0.9-0.9-0.7-1.6
	c-0.1-0.3-0.4-0.1-0.8-0.2c-0.3,0.1-0.5,0.4-0.4,0.8c1.3,3.1,2.9,6.1,4.8,8.9c1.6,2.2,3.3,4.3,5.2,6.2c0.7,1,1.8,1.3,2.3,2.3
	c7.9,7.6,17.6,12,28,14.3c1.6,0,3,1.1,4.5,0.5c1.6,1.1,4,0.3,5.7,0.9c0.9-0.3,1.8-0.3,2.7,0c1.4-0.5,3.2,0.1,4.5-0.5
	c2.8-0.2,5.7-0.7,8.4-1.4c2.2-0.5,4.4-1,6.5-1.7c1.2-0.8,2.7-0.9,3.8-1.7c5.3-2.2,10.1-5.3,14.4-9.1c1.5-1.2,2.8-2.5,3.9-4
	c4-3.8,6.9-8.7,9.5-13.4c0.7-2.5,2.2-4.7,2.6-7.4C202.8,103.8,203.4,102.5,202,103.3z M133.1,117.6c0.3-0.1,0.7,0,0.9,0.3l0,0
	c0.1,0.2,0,0.5-0.1,0.7c-0.1,0.2-0.3,0.3-0.5,0.3c-0.1,0-0.2-0.1-0.3-0.1c0,0-0.4-0.4-0.4-0.4C132.5,118,132.7,117.7,133.1,117.6
	L133.1,117.6z M131.1,119.2c0.2,0,0.4,0.2,0.5,0.4c0,0.1,0,0.3,0,0.4c-0.1,0.2-0.4,0.2-0.6,0.2c-0.1,0-0.2,0-0.2-0.1
	c-0.2-0.2-0.2-0.4-0.1-0.6C130.7,119.4,130.8,119.3,131.1,119.2L131.1,119.2z M129.1,116.5c0.3-0.2,0.6-0.3,0.9-0.2
	c0.3,0.1,0.5,0.4,0.5,0.7c0,0,0,0,0-0.1c0,0,0,0,0,0.1l0,0c0,0.1,0,0.2,0,0.3c0,0.3-0.2,0.6-0.4,0.7c-0.1,0-0.2,0-0.4,0l-0.8-0.2
	c0,0-0.2-0.5-0.2-0.4C128.7,117.1,128.8,116.7,129.1,116.5L129.1,116.5z M128.2,120.9c0.1-0.2,0.4-0.3,0.6-0.3
	c0.1,0,0.2,0.3,0.3,0.4c0,0.2,0,0.3,0,0.5c-0.1,0.2-0.4,0.3-0.6,0.2c-0.1,0-0.2,0-0.2-0.1C128.1,121.4,128.1,121.1,128.2,120.9
	L128.2,120.9z M127.6,117.9c0.2,0.1,0.4,0.3,0.4,0.6c0,0,0-0.1,0-0.1c0.2,0.4-0.1,0.7-0.3,0.9c-0.1,0.1-0.1,0.1-0.2,0.1
	c-0.3,0-0.6-0.1-0.8-0.3c-0.1-0.2-0.1-0.3-0.1-0.3c-0.1-0.2-0.1-0.5,0.1-0.7C127,117.9,127.3,117.8,127.6,117.9L127.6,117.9z
	 M125.6,115.1c0.1,0,0.2,0,0.3,0c0.4,0.1,0.8,0.3,1,0.7l0,0l0,0l0,0v0.9c-0.3,0.2-0.5,0.5-0.8,0.7c-0.6,0.1-1.1-0.4-1.2-0.9
	c0,0,0,0,0-0.1C125,115.8,125.2,115.3,125.6,115.1L125.6,115.1z M118.7,116.9c0-0.1,0-0.3,0.1-0.4c0-0.5,0.3-0.8,0.7-1l1.1,0.2
	l0.5,0.7c0,0.1,0,0,0,0.1c0,0.4-0.2,0.8-0.4,1.1c-0.2,0.2-0.5,0.2-0.7,0.2C119.4,117.8,118.9,117.4,118.7,116.9L118.7,116.9z
	 M121.2,120.2c-0.5,0-0.9-0.4-0.9-0.9c-0.2-0.7,0.4-0.9,0.9-1s1.1,0,1.1,0.9l0,0l0,0l0,0l-0.3,0.8L121.2,120.2z M122.8,122.5h-0.7
	c0,0-0.5-0.6-0.5-0.6c-0.1-0.5,0.1-1,0.6-1.1c0,0,0,0,0.1,0c0.4-0.1,0.8,0.1,1.1,0.4c0.1,0.1,0.1,0.1,0.1,0.2
	C123.5,121.6,123.5,122.3,122.8,122.5L122.8,122.5z M122.9,118.3c-0.1-0.1-0.2-0.3-0.2-0.4c0-0.1,0-0.2,0.1-0.3l-0.1-0.3
	c0.2-0.2,0.4-0.4,0.6-0.5c0.3-0.1,0.6-0.1,0.8,0.1c0.2,0.1,0.3,0.4,0.3,0.6c0,0,0-0.1,0-0.1c0,0,0,0.1,0,0.1l0,0
	c0.1,0.4-0.1,0.9-0.5,1c0,0,0,0,0,0C123.6,118.6,123.2,118.5,122.9,118.3L122.9,118.3z M125.1,120.8c-0.4,0-0.7-0.3-0.8-0.7
	c0-0.4,0.3-0.7,0.7-0.7c0.3-0.1,0.6,0.1,0.7,0.4c0,0,0,0.1,0,0.1C125.7,120.3,125.4,120.7,125.1,120.8L125.1,120.8z M125.6,122.8
	c-0.2-0.3,0-0.7,0.3-0.9c0,0,0,0,0,0c0.4-0.2,0.8-0.1,1,0.3c0,0.1,0,0.1,0,0.2c0,0.6-0.2,0.9-0.5,0.8
	C126.1,123.5,125.8,123.1,125.6,122.8L125.6,122.8z M127.6,125.8l-0.5-0.2c-0.2-0.1-0.3-0.2-0.3-0.4c0-0.6,0.2-1,0.7-1.2
	c0.2-0.1,0.5,0,0.7,0.1c0.2,0.1,0.3,0.4,0.3,0.6c0,0,0-0.1,0-0.1c0,0,0,0.1,0,0.1l0,0l0,0l0,0c0,0.1,0,0.1,0,0.2
	c0,0.2-0.1,0.4-0.2,0.6C128.1,125.8,127.9,125.9,127.6,125.8L127.6,125.8z M130.2,127.3l-0.4,0.9c-0.2,0.1-0.3,0.2-0.5,0.2
	c-0.3,0.1-0.7,0-0.9-0.2c-0.3-0.2-0.4-0.5-0.4-0.9c0-0.5,0.3-0.9,0.8-1.1C129.4,126.2,130,126.6,130.2,127.3
	C130.2,127.3,130.2,127.2,130.2,127.3L130.2,127.3z M130.5,124c-0.1,0.1-0.2,0.2-0.4,0.2c-0.1,0-0.2,0-0.3,0
	c-0.2-0.2-0.3-0.6-0.1-0.9c0.1-0.1,0.4-0.1,0.5-0.1s0.4,0.2,0.4,0.3l0,0C130.6,123.6,130.5,123.8,130.5,124L130.5,124z M130.6,126.2
	c-0.1-0.3,0.1-0.6,0.3-0.8c0.2-0.2,0.6-0.2,0.8-0.1c0.2,0.1,0.4,0.3,0.4,0.6l0,0c0,0.6-0.3,0.9-0.6,0.9
	C131.1,126.7,130.7,126.5,130.6,126.2L130.6,126.2z M132.8,129.4l-0.8-0.3l-0.2-0.6c0-0.7,0.4-1.1,0.8-1.1l0.6,0.1l0.5,0.6l0,0
	c0,0.1,0,0.2,0,0.2C133.7,128.9,133.3,129.2,132.8,129.4L132.8,129.4z M134.8,131.6c-0.2,0.2-0.6,0.3-0.9,0.2
	c-0.3-0.1-0.9-0.2-0.8-0.9c0-0.5,0.3-0.9,0.8-1.1c0.5-0.1,1,0.2,1.2,0.7c0,0,0,0,0,0.1C135.2,130.9,135.1,131.3,134.8,131.6
	L134.8,131.6z M134.8,121.2c-0.2,0-0.4,0-0.6-0.2c-0.1-0.2-0.1-0.4,0-0.6c0.1-0.1,0.5-0.1,0.6,0s0.4,0.3,0.4,0.5
	C135.2,121.1,135,121.2,134.8,121.2L134.8,121.2z M135.8,117.6c-0.4,0.1-0.8-0.1-1.1-0.7c0-0.4,0-1,0.6-1.2c0.4,0,0.7,0.1,1,0.3
	c0.1,0.1,0.2,0.3,0.1,0.4c0,0,0,0.1,0,0.1c0,0.1,0,0.1,0,0.2c0,0.2-0.1,0.4-0.2,0.5C136.3,117.5,136,117.6,135.8,117.6L135.8,117.6z
	 M136.5,119.5c-0.1-0.3,0.1-0.7,0.4-0.8c0.3-0.1,0.6,0.1,0.7,0.4c0,0,0,0,0-0.1c0,0,0,0.1,0.1,0.1l0,0c0.1,0.1,0.1,0.2,0.1,0.2
	c0,0.2-0.1,0.4-0.2,0.5c-0.1,0.1-0.2,0.1-0.3,0.1C136.9,120,136.6,119.9,136.5,119.5C136.5,119.6,136.5,119.5,136.5,119.5
	L136.5,119.5z M138.7,131.7L138.7,131.7l-0.1,0.6c-0.2,0.2-0.4,0.3-0.6,0.5l-1-0.3c-0.1-0.2-0.1-0.4-0.2-0.5c-0.1-0.3,0-0.6,0.2-0.8
	c0.2-0.2,0.4-0.3,0.7-0.3C138.1,130.8,138.6,131.2,138.7,131.7L138.7,131.7C138.7,131.6,138.7,131.7,138.7,131.7L138.7,131.7z
	 M139.5,118.7c-0.4,0-0.9-0.3-0.8-0.7c-0.1-0.3,0-0.6,0.2-0.8c0.3-0.2,0.6-0.2,0.9-0.1c0.2,0.1,0.3,0.4,0.3,0.6c0,0,0,0.1,0,0.1
	C140.1,118.2,139.8,118.5,139.5,118.7L139.5,118.7z M141,120.8c-0.1,0.1-0.2,0.2-0.3,0.1c-0.2-0.1-0.4-0.3-0.6-0.4
	c-0.1-0.2-0.1-0.5,0.1-0.6c0.2-0.2,0.6-0.2,0.8,0c0.1,0.1,0.1,0.2,0.2,0.3C141.3,120.4,141.2,120.7,141,120.8L141,120.8z
	 M143.7,118.7l-0.4,0.8c-0.1,0.1-0.1,0.1-0.2,0.1c-0.4,0-0.7-0.3-0.7-0.6c-0.1-0.4,0.1-0.8,0.5-0.9c0,0,0,0,0,0c0.2,0,0.3,0,0.4,0.1
	l0.4,0.4C143.8,118.7,143.8,118.6,143.7,118.7L143.7,118.7z M144.8,121.6c-0.1,0.2-0.4,0.3-0.6,0.2c-0.1,0-0.2,0-0.2-0.1
	c-0.2-0.2-0.2-0.5-0.1-0.7c0.1-0.2,0.4-0.3,0.6-0.3c0.1,0,0.2,0.3,0.3,0.4C144.8,121.3,144.9,121.4,144.8,121.6L144.8,121.6z
	 M145.5,118.2c-0.4,0.1-0.8-0.1-1.1-0.6c-0.1-0.4,0.2-0.9,0.6-1l0.9,0.2l0.2,0.5C146.1,117.7,145.9,118,145.5,118.2L145.5,118.2z
	 M147.2,120.2c-0.1,0.1-0.3,0.2-0.5,0.2c-0.2,0-0.4-0.1-0.5-0.3c-0.1-0.1-0.1-0.2-0.1-0.3c0-0.2,0.1-0.4,0.3-0.5
	c0.2-0.1,0.4-0.1,0.6,0c0,0,0.1,0.2,0.1,0.2C147.3,119.7,147.3,120,147.2,120.2L147.2,120.2z M107.8,121.7c-0.1,0.2-0.4,0.3-0.6,0.3
	c-0.3-0.1-0.5-0.3-0.7-0.4c-0.1-0.5,0.1-1,0.6-1.2c0.4,0,0.8,0.2,0.8,0.7l0,0c0,0.1,0,0.1,0,0.2
	C107.9,121.4,107.9,121.5,107.8,121.7L107.8,121.7z M119.1,130.8L119.1,130.8C119.1,130.8,119.1,130.8,119.1,130.8
	c-0.3,0.4-0.5,0.4-0.9,0.4c-0.4-0.2-0.5-0.7-0.3-1.1c0,0,0,0,0,0c0.1-0.2,0.3-0.3,0.5-0.3c0.3,0,0.5,0.2,0.6,0.5c0,0.1,0,0.2,0,0.2
	c0,0.1-0.1,0.3-0.2,0.4C119,130.7,119.1,130.8,119.1,130.8L119.1,130.8z M123.8,134.3c0,0.1-0.2,0.1-0.3,0.1c-0.2,0-0.3-0.1-0.4-0.3
	c-0.1-0.3,0-0.6,0.2-0.8c0.1-0.1,0.3,0,0.4,0.1s0.2,0.3,0.2,0.4L123.8,134.3z M127.8,134.8L127.8,134.8c0,0.2,0,0.5-0.6,0.7
	c-0.2,0-0.7,0-0.7-0.4c-0.1-0.3,0-0.6,0.2-0.8c0.2-0.2,0.5-0.2,0.8-0.1c0.2,0.1,0.3,0.3,0.3,0.5
	C127.8,134.7,127.8,134.8,127.8,134.8L127.8,134.8z M131.4,136.3c-0.2,0.1-0.4,0.1-0.5,0.2c-0.3,0.1-0.5-0.1-0.6-0.4
	c-0.1-0.5,0.1-1,0.6-1.2c0.3,0,0.7,0.2,0.7,0.7L131.4,136.3z M134.9,137.2L134.9,137.2c0,0-0.2,0.1-0.4,0.1c-0.2,0-0.3,0-0.4-0.1
	c-0.1-0.2-0.1-0.4-0.1-0.6c0-0.1,0.1-0.2,0.2-0.3c0.2-0.1,0.5-0.1,0.6,0.2c0,0,0,0.1,0,0.1c0,0,0,0.1,0,0S135.2,136.8,134.9,137.2
	L134.9,137.2z M149.6,118.7c-0.1,0.2-0.3,0.3-0.6,0.4c-0.3,0-0.6-0.3-0.7-0.6c-0.1-0.2,0-0.5,0.2-0.6c0.2-0.2,0.6-0.2,0.8-0.1
	c0.2,0.1,0.3,0.3,0.3,0.5C149.7,118.5,149.7,118.6,149.6,118.7L149.6,118.7z M150.6,121.3c-0.1,0.1-0.2,0.1-0.4,0.1
	c-0.2-0.1-0.3-0.2-0.4-0.4c0-0.2,0.1-0.5,0.3-0.6c0.2-0.1,0.4-0.1,0.5,0c0.2,0.2,0.2,0.4,0.2,0.6
	C150.8,121.1,150.7,121.2,150.6,121.3L150.6,121.3z M151.9,117.6c-0.1,0.1-0.3,0.2-0.5,0.2c-0.4,0.1-0.7-0.1-0.9-0.4
	c0-0.1,0-0.2,0-0.3v-0.3c0-0.2,0-0.7,0.5-0.8c0.3-0.1,0.6,0,0.8,0.1c0.2,0.1,0.3,0.3,0.3,0.6l0,0c0,0,0,0.1,0,0.1c0,0,0,0,0-0.1
	C152.2,117,152.1,117.3,151.9,117.6L151.9,117.6z M153.3,119.4l-0.3,0.5c-0.1,0.1-0.1,0.1-0.2,0.1c-0.5,0-0.6-0.2-0.6-0.4
	s0.1-0.6,0.2-0.6l0.5-0.1l0.4,0.3C153.4,119.3,153.4,119.2,153.3,119.4L153.3,119.4z M155.6,118.4c-0.1,0.2-0.3,0.3-0.6,0.3
	c-0.1,0-0.2-0.1-0.3-0.1c0,0-0.4-0.4-0.4-0.4c-0.1-0.2,0-0.5,0.1-0.7c0.2-0.2,0.6-0.3,0.8-0.1c0.2,0.1,0.4,0.4,0.4,0.6
	c0,0,0-0.1,0-0.1c0,0,0,0.1,0,0.1l0,0c0,0,0,0.1,0,0.1C155.7,118.2,155.7,118.3,155.6,118.4L155.6,118.4z M158,117.1
	c-0.1,0.2-0.3,0.3-0.5,0.3c-0.2,0.1-0.5,0-0.7-0.1c-0.2-0.1-0.3-0.4-0.4-0.7c-0.1-0.3,0-0.6,0.2-0.8c0.3-0.2,0.7-0.3,1-0.2
	c0.3,0.1,0.5,0.4,0.4,0.7l0,0c0,0.1,0,0.1,0,0.2C158.1,116.7,158.1,116.9,158,117.1L158,117.1z M158.2,118.8c0,0.1,0.2,0.6,0.4,0.6
	C158.3,119.4,158.2,118.9,158.2,118.8L158.2,118.8z M158.7,119.1c-0.1,0.2-0.2-0.1-0.2-0.2C158.8,118.7,158.9,118.9,158.7,119.1
	L158.7,119.1z M161.6,117.9c-0.1,0.1-0.2,0.2-0.3,0.2c-0.2,0.1-0.4,0.1-0.6,0c-0.2-0.1-0.3-0.3-0.3-0.5c-0.1-0.2,0-0.5,0.2-0.6
	c0.2-0.2,0.5-0.2,0.7-0.1c0.2,0.1,0.3,0.3,0.3,0.5c0,0,0-0.1,0-0.1c0,0,0,0.1,0,0.1l0,0c0,0,0,0.1,0,0.1
	C161.6,117.7,161.6,117.8,161.6,117.9L161.6,117.9z M163.8,116.8c-0.1,0.1-0.3,0.2-0.4,0.1c-0.2,0.1-0.5,0-0.7-0.1
	c-0.2-0.1-0.2-0.3-0.3-0.5c-0.1-0.4,0.1-0.8,0.5-1c0,0,0,0,0,0c0.4-0.2,0.8,0.2,1,0.4c0.1,0.1,0.1,0.1,0.1,0.2
	C164.1,116.3,164.1,116.6,163.8,116.8L163.8,116.8z M164.2,118.5C164.2,118.5,164.2,118.4,164.2,118.5v-0.1l0,0
	C164.2,118.4,164.2,118.4,164.2,118.5c0,0.2,0.1,0.3,0.2,0.5C164.3,118.8,164.2,118.7,164.2,118.5L164.2,118.5z M164.8,118.5
	L164.8,118.5c0,0.1,0,0.2-0.1,0.2c0,0-0.1,0-0.1,0l0,0l0,0c0,0,0,0,0-0.1l0,0l0,0c0,0.1-0.1,0.1-0.1,0.1v-0.2l0.1,0.1
	c0,0,0-0.1,0-0.1v-0.1h0.1l0,0c0,0,0.2,0.1,0.2,0.2l0,0L164.8,118.5c0,0,0,0.1,0,0.2L164.8,118.5z M164.7,115c0-0.1,0-0.2,0-0.4
	c0-0.4,0-1,0.6-1.2c0.4,0,0.7,0.1,1,0.4c0.1,0.2,0.2,0.3,0.2,0.5c0,0.1,0,0.1,0,0.2c0,0.1,0,0.1,0,0.2c0,0.4-0.3,0.8-0.7,0.9
	C165.4,115.8,164.9,115.5,164.7,115L164.7,115z M167.1,117.8c-0.3,0-0.6-0.2-0.7-0.5c-0.2-0.2-0.1-0.6,0.2-0.7c0,0,0,0,0.1,0
	c0.3-0.2,0.7,0,0.9,0.3c0,0.1,0,0.2,0,0.3C167.6,117.4,167.4,117.7,167.1,117.8L167.1,117.8z M169.7,116.3c-0.1,0.1-0.1,0.1-0.2,0.1
	c-0.3,0-0.6-0.1-0.8-0.4c-0.1-0.2-0.1-0.5,0.1-0.7c0.2-0.2,0.6-0.3,0.9-0.2c0.2,0.1,0.4,0.3,0.4,0.6L169.7,116.3z M172,115
	c-0.2,0.1-0.6,0.2-1.1-0.4c-0.1-0.3-0.1-0.6,0.1-0.8c0.3-0.2,0.6-0.3,0.9-0.2c0.3,0.1,0.4,0.3,0.4,0.6c0,0,0-0.1,0-0.1
	c0,0,0,0.1,0,0.1l0,0C172.5,114.5,172.2,114.8,172,115z M174,113.8c-0.4,0-0.8-0.3-0.9-0.7c-0.1-0.7,0.1-1.2,0.6-1.4
	c0.3-0.1,0.6,0,0.9,0.2c0.1,0,0.3,0.2,0.3,0.3c0.1,0.4,0,0.8-0.2,1.2C174.4,113.7,174.2,113.8,174,113.8L174,113.8z M175.8,115.6
	C175.8,115.7,175.8,115.7,175.8,115.6l-0.5,0.2c-0.1,0.1-0.3,0.1-0.4,0c-0.4-0.4-0.2-0.7-0.1-0.8c0.2-0.2,0.5-0.3,0.8-0.1
	C175.8,115.1,175.9,115.4,175.8,115.6L175.8,115.6z M178.2,114.1c0,0.1-0.1,0.2-0.2,0.2l-0.6,0.2c-0.1,0-0.1,0-0.2-0.1
	c-0.2-0.2-0.3-0.4-0.2-0.6c0-0.2,0.1-0.3,0.5-0.5c0.3,0,0.6,0.1,0.7,0.4C178.2,113.8,178.3,113.9,178.2,114.1L178.2,114.1z
	 M180.2,113.1c-0.2,0.1-0.4,0.1-0.6,0c-0.2-0.1-0.3-0.3-0.3-0.5c-0.1-0.3,0-0.5,0.3-0.6c0,0,0,0,0,0c0.3-0.1,0.7,0,0.8,0.3
	c0,0.1,0,0.2,0,0.2C180.5,112.7,180.4,112.9,180.2,113.1L180.2,113.1z M182.6,111.7c-0.2,0.1-0.5,0.1-0.7,0
	c-0.1-0.1-0.2-0.2-0.3-0.4c-0.1-0.3,0-0.6,0.2-0.8c0.2-0.2,0.6-0.2,0.8,0c0.2,0.1,0.3,0.4,0.2,0.6c0,0,0-0.1,0-0.1
	C182.9,111.6,182.7,111.7,182.6,111.7L182.6,111.7z M185.2,110.1c-0.1,0.1-0.3,0.2-0.4,0.2c-0.4,0.1-0.8-0.1-1-0.5
	c0-0.1,0-0.2,0-0.3c-0.1-0.4,0.2-0.8,0.6-1c0.3,0,0.7,0.1,0.9,0.4c0.1,0.1,0.2,0.3,0.2,0.5c0,0,0,0.1,0,0.1c0,0.1,0,0.1,0,0.2
	C185.4,109.9,185.3,110,185.2,110.1L185.2,110.1z M188,111c-0.1-0.2-0.1-0.5,0.1-0.7c0,0-0.1,0.1-0.1,0.2c0,0.1,0,0.3,0.1,0.4
	c0,0,0.1,0,0.1,0.1l-0.1-0.3c0,0.1,0.1,0.1,0.1,0.1l0,0c0-0.1,0-0.1,0.1-0.2c0.1,0,0.2,0,0.2,0.1c0,0,0,0,0.1,0.1c0,0,0,0.1,0,0.1
	l0,0c0,0,0,0.1,0,0.1c-0.1,0-0.1,0-0.2,0l0,0c0,0,0,0,0-0.1l0,0l0,0l0,0c0,0.1,0,0.1,0,0.2c0.1,0.1,0.2,0.2,0.4,0.2
	C188.4,111.3,188.1,111.2,188,111z M191.2,109.4c-0.1,0.2-0.2,0.4-0.5,0.5c-0.2,0-0.4-0.1-0.6-0.2c-0.1-0.1-0.1-0.3-0.1-0.5
	c0-0.2,0.2-0.3,0.5-0.5c0.3,0,0.6,0.1,0.7,0.4C191.3,109.2,191.2,109.3,191.2,109.4L191.2,109.4z M193.2,108.4c-0.1,0-0.2,0-0.3,0
	c-0.3,0.1-0.5-0.1-0.6-0.3c-0.1-0.3-0.1-0.6,0.1-0.8c0.1-0.2,0.4-0.3,0.6-0.2c0.2,0.1,0.4,0.3,0.4,0.5v0.1
	C193.6,108,193.5,108.3,193.2,108.4L193.2,108.4z M195.5,107.1c-0.1,0-0.3,0-0.4-0.1c-0.2-0.1-0.6-0.2-0.4-0.5
	c-0.1-0.2-0.1-0.5,0.1-0.8c0.2-0.2,0.6-0.3,0.8-0.1c0.3,0.1,0.5,0.4,0.5,0.7C196,106.7,195.8,107,195.5,107.1L195.5,107.1z"/>
<path d="M134.4,136.8L134.4,136.8c0,0,0-0.1,0-0.1s0,0-0.1,0S134.4,136.7,134.4,136.8z"/>
<path d="M117,114.8c0.4-0.1,0.6-0.5,0.7-0.9c-0.2-0.5-0.6-0.9-1.2-0.9c-0.4,0.1-0.7,0.7-0.7,1.1C116.1,114.6,116.5,114.9,117,114.8z
	"/>
<path d="M115.5,111.9c0.1,0,0.3-0.2,0.2-0.5s-0.6-0.1-0.8,0.2C115,111.8,115.2,111.9,115.5,111.9z"/>
<path d="M125.1,112.6c0.1,0,0.3-0.2,0.2-0.6c-0.1-0.1-0.1-0.2-0.2-0.2C124.7,112,124.7,112.5,125.1,112.6z"/>
<path d="M119.3,113.2c0.1-0.2,0.3-0.3,0.3-0.7s-0.3-0.6-0.6-0.7c-0.3,0.2-0.5,0.5-0.5,0.9C118.7,113,118.9,113.3,119.3,113.2z"/>
<path d="M113.2,113.5c0.1-0.1,0.4-0.3,0.4-0.6c-0.2-0.7-1.1-0.7-1.1,0.1C112.7,113.3,112.9,113.5,113.2,113.5z"/>
<path d="M128.8,113.9c0.2-0.2,0.8-0.4,0.6-0.9s-1-0.9-1.2-0.2C127.9,113.2,128.4,113.8,128.8,113.9z"/>
<path d="M122.8,124.7L122.8,124.7L122.8,124.7L122.8,124.7z"/>
<path d="M111,114.8c0.1-0.2,0.2-0.4,0.3-0.6c-0.2-0.3-1-0.6-0.8,0.1C110.5,114.5,110.6,114.8,111,114.8z"/>
<path d="M114.6,116.1c0.4-0.2,0.9-0.6,0.8-1.1c-0.2-0.4-0.6-0.6-1-0.6c-0.4,0.1-0.6,0.5-0.7,0.9C114,115.7,114.2,116.1,114.6,116.1z
	"/>
<path d="M112.6,117c0.1-0.1,0.1-0.3,0.1-0.4c-0.1-0.2-0.3-0.6-0.6-0.4S112.2,116.9,112.6,117z"/>
<path d="M179.4,108.8c0.2,0,0.3-0.3,0.3-0.6c-0.2-0.2-0.3-0.4-0.5-0.4c-0.2,0.2-0.6,0.3-0.5,0.7S179.1,109.1,179.4,108.8z"/>
<path d="M181.5,107.4c0.1-0.1,0.3-0.2,0.3-0.4c-0.1-0.2-0.2-0.3-0.4-0.3C180.8,106.8,181.2,107.3,181.5,107.4z"/>
<path d="M171,110.8c0.2-0.1,0.5-0.4,0.4-0.8c-0.2-0.3-0.5-0.4-0.9-0.3c-0.2,0.1-0.3,0.3-0.3,0.5C170.4,110.5,170.6,110.7,171,110.8z
	"/>
<path d="M165.2,110.6c-0.1,0-0.2-0.2-0.3-0.2s-0.4,0.3-0.1,0.6C165,111,165,110.7,165.2,110.6z"/>
<path d="M189.9,105.6c0.2-0.2,0.4-0.3,0.4-0.6c-0.2-0.7-1-0.4-1.1,0.1C189.4,105.3,189.6,105.8,189.9,105.6z"/>
<path d="M134.8,113.2c0.1-0.1,0.5-0.2,0.4-0.6c-0.1-0.2-0.3-0.3-0.5-0.3c-0.2,0.1-0.4,0.3-0.3,0.6S134.6,113.2,134.8,113.2z"/>
<path d="M192.4,103.6c-0.1-0.4-0.6-0.2-0.5,0.2c0.1,0.1,0.2,0.2,0.3,0.2S192.5,103.8,192.4,103.6z"/>
<path d="M202.1,100.7c0.1,0.2,0.4,0.4,0.6,0.4c0.3,0,0.4-0.4,0.4-0.7C203,99.6,202,100,202.1,100.7z"/>
<path d="M151,112.9c-0.2-0.1-0.3-0.4-0.5-0.4s-0.5,0.6-0.2,0.8C150.5,113.7,150.8,113.2,151,112.9z"/>
<path d="M144.5,113.9c0.3,0,0.6-0.3,0.5-0.7c-0.1-0.3-0.5-0.5-0.8-0.3c-0.2,0.1-0.3,0.2-0.4,0.4C144,113.5,144.2,113.9,144.5,113.9z
	"/>
<path d="M154.3,114.7c0.4-0.2,0.6-0.7,0.5-1.1c-0.2-0.2-0.5-0.7-1-0.6c-0.2,0.2-0.6,0.5-0.5,1S153.9,114.8,154.3,114.7z"/>
<path d="M138.4,114.5c0.4,0,0.7-0.4,0.7-0.8c0,0,0,0,0,0c0-0.3-0.4-0.4-0.7-0.6c-0.4,0.1-0.6,0.5-0.5,0.9
	C137.9,114.1,138.2,114.5,138.4,114.5z"/>
<path d="M162.6,112.6c0.2-0.1,0.6-0.3,0.5-0.7s-0.4-0.7-0.7-0.4s-0.5,0.2-0.4,0.6C162,112.3,162.3,112.6,162.6,112.6z"/>
<path d="M156.5,112.9c0.2-0.1,0.4-0.2,0.4-0.6c-0.2-0.6-0.9-0.2-0.9,0.2C156.2,112.6,156.3,113,156.5,112.9z"/>
<path d="M188.2,106.4c-0.2-0.3-0.4-0.7-0.9-0.7c-0.4,0.2-0.6,0.7-0.5,1.1c0.3,0.4,0.7,0.6,1.2,0.6
	C187.8,107.1,188.4,106.9,188.2,106.4z"/>
<path d="M134.4,136.8L134.4,136.8z"/>
<path d="M202,103.3c-0.5-0.1-1.4-0.7-0.7-1.3c-0.1-0.8-1.1-1.1-1.4-0.3c-0.7,1.4,1.5,0.7,1,2c-0.2,0.5-0.7,0.9-1.3,0.9
	c-1.2-0.1-0.2-1.2-0.8-1.7c-0.3-0.4-0.9-0.4-1.3,0c0,0-0.1,0.1-0.1,0.1c-0.9,1.2,1.1,0.9,0.8,2c0,0.3-0.3,0.8-0.8,0.7
	c-0.5-0.2-0.8-0.7-0.6-1.2c-0.3-0.4-0.7-0.6-1.2-0.6c-0.5,0.2-0.9,0.7-1.1,1.2c-0.3,0.3-0.8,0.1-1.1,0c-1.4,0.1-1.2,2.4-2.8,1.4
	c-0.4,0.3-0.5,0.8-0.9,1.1c-0.5,0.5-1.3,0.1-1.9,0c-0.1,0.6-0.1,1.1-0.6,1.4c-1.3,0.4-1.2-0.9-1.6-1.6c-1.1-0.9-1.3,0.9-1.9,1.2
	c-2-1.3-1.5,2.2-3.4,1.2c-1.1-0.1-0.8,1.7-1.9,1.4c-0.4-0.2-1.3-0.6-0.8-1.2c-0.1-0.3-0.4-0.8-0.9-0.8c-1.8,0.9,0.8,1.3,0.5,2.6
	c-0.2,0.4-0.7,0.7-1.2,0.7c-0.6-0.2-0.9-0.8-0.7-1.4c0,0,0-0.1,0-0.1c-0.3-0.4-0.7-0.6-1.2-0.6c-0.2,0.2-0.6,0.4-0.6,0.9
	c-0.2,0.8-1,0.4-1.5,0.3c-0.4,0-0.7,0.3-0.9,0.7c-0.2,0.6-0.7,0.9-1.3,0.8c-1.6,0.1,0-1.4-1-1.9c-0.3-0.4-0.9-0.1-1.1,0.2
	c-0.8,1.5,1.8,0.7,1,2.2c-0.2,0.5-0.7,0.7-1.2,0.7c-0.5-0.2-0.8-0.7-0.7-1.3c0,0,0-0.1,0-0.1c-0.2-0.3-0.5-0.8-1.1-0.7
	c-0.8,0.2-0.8,1.1-1.2,1.5c-1.6-1.4-1.6,1.3-3,1.1c-0.6,0-1.4-0.6-0.8-1.2c-0.1-0.5-0.5-0.8-1-0.8c-1.9,1.2,1.1,1.3,0.5,2.4
	c-0.1,0.5-0.6,0.9-1.1,0.8c0,0-0.1,0-0.1,0c-0.6-0.1-0.6-0.9-0.5-1.4c-0.3-0.4-0.7-0.6-1.2-0.6c-0.5,0.1-0.8,0.8-1,1.2
	c-0.5,0.3-1.3-0.1-1.8,0c-0.3,0.6-0.6,1.4-1.4,1.3s-0.7-0.9-0.7-1.6c-0.3-0.3-0.6-0.7-1.2-0.6c-0.5,0.3-0.6,0.9-1,1.3
	c-0.7,0.2-1.4,0-1.9-0.5c0.2-0.6,0.4-1.2-0.2-1.6c-0.3-0.2-0.7-0.2-0.9,0.1c0,0.1-0.1,0.1-0.1,0.2c-0.9,1.3,1.5,0.8,1,2.1
	c-0.1,0.5-0.6,0.9-1.1,0.8s-0.9-0.6-0.8-1.1c0-0.1,0.1-0.3,0.2-0.4c-1.3-2.1-1.8,1-3.2,0.6c-0.3-0.1-1-0.4-0.6-1
	c-0.1-0.6-0.4-1.1-0.9-1.1s-0.8,0.8-0.9,1.3c0.3,0.3,0.9,0.3,1.2,0.7c0.2,0.4,0.1,1-0.3,1.2c-2.2,0.6,0-2.2-1.8-2
	c-1.6-0.9-1,1.8-2.6,1.3c-1.3-0.3,0-1.7-1-2.1c-1.6-0.8-1,1.9-2.6,1.2c-1.6,0.2-0.2-1.6-1.3-2c-0.4-0.2-0.9-0.1-1.1,0.3
	c-0.9,1.7,1.7,0.7,1.1,2.2c-0.2,0.4-0.6,0.7-1.1,0.7c-1.1-0.1-0.5-1.4-0.8-1.9c-1.6-1.4-1.3,1.4-2.9,1.1c-0.5-0.1-0.9-0.7-0.7-1.2
	c0-0.1,0-0.2,0.1-0.2c-1.2-2.1-1.8,0.9-3,0.5c-0.6-0.1-1.3-0.6-0.8-1.3c-0.1-0.5-0.6-0.8-1.1-0.8c-2.2,1.5,1.5,1.2,0.7,2.7
	c-0.2,0.5-0.7,0.9-1.3,0.8c-1.2-0.3-0.1-1.5-0.8-2.1c-1.7-1.1-1.2,1.6-2.6,1.2c-1.3-0.8-1.2,1-1.7,1.5c-0.4,0.1-0.8-0.1-1.2-0.1
	c-0.4,0.2-0.7,0.6-0.8,1c0.1,0.5,0.5,0.9,1.1,1c0.4-0.1,0.7-0.4,0.8-0.8c0-0.5,0.4-0.8,0.9-0.8c0.1,0,0.2,0,0.3,0.1
	c0.5,0.3,0.7,0.8,0.6,1.3c-0.1,0.9-1.2,0.7-1.7,0.5c-0.4,0.3-0.6,0.7-0.6,1.2c0.2,0.5,0.6,0.8,1.1,0.8c0.8,0,0.7-1,1.1-1.4
	c0.5-0.2,1.1,0.1,1.4,0.6c0.2,0.5,0.1,1-0.2,1.4c-0.4,0.1-0.8-0.1-1.2-0.1s-0.6,0.4-0.5,0.8c0.2,0.3,0.5,0.5,0.7,0.8
	c0.8,0.7,0.9-0.7,1.2-1.1c0.5,0,1.1,0,1.4,0.6c0.3,0.3,0,0.9,0,1.3c0.3,0.7,1.1,0.5,1.6,0.9c0,0,0-0.1,0-0.1v-0.3
	c0.1-0.5,0.2-1.3,1-1.3s1.2,0.5,1.2,1c0,0,0,0,0-0.1v0.1c0,0.1,0,0.2,0,0.3c0,0.2-0.1,0.4-0.2,0.6c-0.1,0.2-0.4,0.3-0.6,0.3l-1-0.2
	c-0.1,0-0.3-0.1-0.3-0.2c0.1,0.4-0.5,1,0,1.4c1.6,2.1,1.2-1.4,2.9-0.8c0.5,0.1,0.6,0.8,0.6,1.2c0,1-1.1,0.8-1.6,0.6
	c0.6,1.7,1.4-0.3,2.6,0.6c0.4,0.2,0.6,0.8,0.4,1.2c0.4,0.4,0.9,0.7,1.5,0.9c0.1-0.1,0.3-0.2,0.3-0.4c0.2-0.5,0.7-0.8,1.2-0.8
	c0.5,0.2,0.7,0.7,0.6,1.2c-0.8,1.5,1.5,0.9,2,1.9c0.1,1.9,1.4-0.1,2.2,0.2c0.8-0.1,1,0.8,1.3,1.2c0.5,1.7,1.5-0.3,2.2-0.2
	c1.1-0.1,1.1,1.1,1.7,1.7c0.9,0.3,1.3-0.9,2.1-0.6s1,1,1.4,1.6c0.5,0.1,1.1-0.1,1.4-0.5c0.7-0.1,1.4,0,2,0.5c0.1,0.6-0.3,1-0.4,1.3
	c-0.6,0.3-1.3-0.1-1.9-0.1c-0.3,0.4-0.6,1.3-1.4,1s-0.2-1.2-1.1-1.6c-1.3-0.9-1.4,1.4-2.7,0.9c-1-0.1-0.2-1.2-0.9-1.6
	c-1.3-1-1.4,1.2-2.7,0.8c-1.1,0-0.3-1.3-1.2-1.7c-1.3-0.9-1.2,1.2-2.4,0.8c-1,0-0.7-1.1-1.2-1.6c-1.2-1.2-1.4,0.9-2.6,0.5
	c-0.4-0.1-1-0.7-0.7-1.1c-0.6-2-2,0-3,0c-1-0.2-0.4-1.3-1-1.9c-1.1-1.2-1.6,0.6-2.5,0.8c-0.4,0-0.7-0.6-0.6-1.1s0.7-0.4,1.2-0.3
	c0.1-0.2,0.4-0.1,0.3-0.4c-0.7-1.3-1.4,0.5-2.5-0.1c-1.2-0.1-0.5-1.6-1.4-1.9c-0.5-0.5-1.2,0.1-1.4,0.5c-1.5,0.7-1.2-1.3-1.9-1.9
	c-1.5,0.1-0.7-1.7-1.8-2.2c-0.8-0.7-1.2,1.1-2,0.6c-1-0.2-0.1-1.3-0.7-1.8c-1.4,0.1-1.4-1.4-2-2.3c-1.4,0.1-1.1-1.6-2.1-2
	c-0.3-0.4-0.6,0.1-0.9,0.3c-0.4,0.3-0.9,0.2-1.2-0.1c0,0,0,0,0,0c-0.3-0.6-0.1-1.3,0.5-1.6c0.1,0,0.1-0.1,0.2-0.1
	c-0.5-1-1.7,0.4-2.2-0.8c0.2-1.3-0.5-1.7-1.5-2.1c-0.1-1.7-1.9-1.9-2.4-3.3c-0.5-1.1-1.1,0.4-1.8,0.1c-0.6-0.3-0.9-0.9-0.7-1.6
	c-0.1-0.3-0.4-0.1-0.8-0.2c-0.3,0.1-0.5,0.4-0.4,0.8c1.3,3.1,2.9,6.1,4.8,8.9c1.6,2.2,3.3,4.3,5.2,6.2c0.7,1,1.8,1.3,2.3,2.3
	c7.9,7.6,17.6,12,28,14.3c1.6,0,3,1.1,4.5,0.5c1.6,1.1,4,0.3,5.7,0.9c0.9-0.3,1.8-0.3,2.7,0c1.4-0.5,3.2,0.1,4.5-0.5
	c2.8-0.2,5.7-0.7,8.4-1.4c2.2-0.5,4.4-1,6.5-1.7c1.2-0.8,2.7-0.9,3.8-1.7c5.3-2.2,10.1-5.3,14.4-9.1c1.5-1.2,2.8-2.5,3.9-4
	c4-3.8,6.9-8.7,9.5-13.4c0.7-2.5,2.2-4.7,2.6-7.4C202.8,103.8,203.4,102.5,202,103.3z M133.1,117.6c0.3-0.1,0.7,0,0.9,0.3l0,0
	c0.1,0.2,0,0.5-0.1,0.7c-0.1,0.2-0.3,0.3-0.5,0.3c-0.1,0-0.2-0.1-0.3-0.1c0,0-0.4-0.4-0.4-0.4C132.5,118,132.7,117.7,133.1,117.6
	L133.1,117.6z M131.1,119.2c0.2,0,0.4,0.2,0.5,0.4c0,0.1,0,0.3,0,0.4c-0.1,0.2-0.4,0.2-0.6,0.2c-0.1,0-0.2,0-0.2-0.1
	c-0.2-0.2-0.2-0.4-0.1-0.6C130.7,119.4,130.8,119.3,131.1,119.2L131.1,119.2z M129.1,116.5c0.3-0.2,0.6-0.3,0.9-0.2
	c0.3,0.1,0.5,0.4,0.5,0.7c0,0,0,0,0-0.1c0,0,0,0,0,0.1l0,0c0,0.1,0,0.2,0,0.3c0,0.3-0.2,0.6-0.4,0.7c-0.1,0-0.2,0-0.4,0l-0.8-0.2
	c0,0-0.2-0.5-0.2-0.4C128.7,117.1,128.8,116.7,129.1,116.5L129.1,116.5z M128.2,120.9c0.1-0.2,0.4-0.3,0.6-0.3
	c0.1,0,0.2,0.3,0.3,0.4c0,0.2,0,0.3,0,0.5c-0.1,0.2-0.4,0.3-0.6,0.2c-0.1,0-0.2,0-0.2-0.1C128.1,121.4,128.1,121.1,128.2,120.9
	L128.2,120.9z M127.6,117.9c0.2,0.1,0.4,0.3,0.4,0.6c0,0,0-0.1,0-0.1c0.2,0.4-0.1,0.7-0.3,0.9c-0.1,0.1-0.1,0.1-0.2,0.1
	c-0.3,0-0.6-0.1-0.8-0.3c-0.1-0.2-0.1-0.3-0.1-0.3c-0.1-0.2-0.1-0.5,0.1-0.7C127,117.9,127.3,117.8,127.6,117.9L127.6,117.9z
	 M125.6,115.1c0.1,0,0.2,0,0.3,0c0.4,0.1,0.8,0.3,1,0.7l0,0l0,0l0,0v0.9c-0.3,0.2-0.5,0.5-0.8,0.7c-0.6,0.1-1.1-0.4-1.2-0.9
	c0,0,0,0,0-0.1C125,115.8,125.2,115.3,125.6,115.1L125.6,115.1z M118.7,116.9c0-0.1,0-0.3,0.1-0.4c0-0.5,0.3-0.8,0.7-1l1.1,0.2
	l0.5,0.7c0,0.1,0,0,0,0.1c0,0.4-0.2,0.8-0.4,1.1c-0.2,0.2-0.5,0.2-0.7,0.2C119.4,117.8,118.9,117.4,118.7,116.9L118.7,116.9z
	 M121.2,120.2c-0.5,0-0.9-0.4-0.9-0.9c-0.2-0.7,0.4-0.9,0.9-1s1.1,0,1.1,0.9l0,0l0,0l0,0l-0.3,0.8L121.2,120.2z M122.8,122.5h-0.7
	c0,0-0.5-0.6-0.5-0.6c-0.1-0.5,0.1-1,0.6-1.1c0,0,0,0,0.1,0c0.4-0.1,0.8,0.1,1.1,0.4c0.1,0.1,0.1,0.1,0.1,0.2
	C123.5,121.6,123.5,122.3,122.8,122.5L122.8,122.5z M122.9,118.3c-0.1-0.1-0.2-0.3-0.2-0.4c0-0.1,0-0.2,0.1-0.3l-0.1-0.3
	c0.2-0.2,0.4-0.4,0.6-0.5c0.3-0.1,0.6-0.1,0.8,0.1c0.2,0.1,0.3,0.4,0.3,0.6c0,0,0-0.1,0-0.1c0,0,0,0.1,0,0.1l0,0
	c0.1,0.4-0.1,0.9-0.5,1c0,0,0,0,0,0C123.6,118.6,123.2,118.5,122.9,118.3L122.9,118.3z M125.1,120.8c-0.4,0-0.7-0.3-0.8-0.7
	c0-0.4,0.3-0.7,0.7-0.7c0.3-0.1,0.6,0.1,0.7,0.4c0,0,0,0.1,0,0.1C125.7,120.3,125.4,120.7,125.1,120.8L125.1,120.8z M125.6,122.8
	c-0.2-0.3,0-0.7,0.3-0.9c0,0,0,0,0,0c0.4-0.2,0.8-0.1,1,0.3c0,0.1,0,0.1,0,0.2c0,0.6-0.2,0.9-0.5,0.8
	C126.1,123.5,125.8,123.1,125.6,122.8L125.6,122.8z M127.6,125.8l-0.5-0.2c-0.2-0.1-0.3-0.2-0.3-0.4c0-0.6,0.2-1,0.7-1.2
	c0.2-0.1,0.5,0,0.7,0.1c0.2,0.1,0.3,0.4,0.3,0.6c0,0,0-0.1,0-0.1c0,0,0,0.1,0,0.1l0,0l0,0l0,0c0,0.1,0,0.1,0,0.2
	c0,0.2-0.1,0.4-0.2,0.6C128.1,125.8,127.9,125.9,127.6,125.8L127.6,125.8z M130.2,127.3l-0.4,0.9c-0.2,0.1-0.3,0.2-0.5,0.2
	c-0.3,0.1-0.7,0-0.9-0.2c-0.3-0.2-0.4-0.5-0.4-0.9c0-0.5,0.3-0.9,0.8-1.1C129.4,126.2,130,126.6,130.2,127.3
	C130.2,127.3,130.2,127.2,130.2,127.3L130.2,127.3z M130.5,124c-0.1,0.1-0.2,0.2-0.4,0.2c-0.1,0-0.2,0-0.3,0
	c-0.2-0.2-0.3-0.6-0.1-0.9c0.1-0.1,0.4-0.1,0.5-0.1s0.4,0.2,0.4,0.3l0,0C130.6,123.6,130.5,123.8,130.5,124L130.5,124z M130.6,126.2
	c-0.1-0.3,0.1-0.6,0.3-0.8c0.2-0.2,0.6-0.2,0.8-0.1c0.2,0.1,0.4,0.3,0.4,0.6l0,0c0,0.6-0.3,0.9-0.6,0.9
	C131.1,126.7,130.7,126.5,130.6,126.2L130.6,126.2z M132.8,129.4l-0.8-0.3l-0.2-0.6c0-0.7,0.4-1.1,0.8-1.1l0.6,0.1l0.5,0.6l0,0
	c0,0.1,0,0.2,0,0.2C133.7,128.9,133.3,129.2,132.8,129.4L132.8,129.4z M134.8,131.6c-0.2,0.2-0.6,0.3-0.9,0.2
	c-0.3-0.1-0.9-0.2-0.8-0.9c0-0.5,0.3-0.9,0.8-1.1c0.5-0.1,1,0.2,1.2,0.7c0,0,0,0,0,0.1C135.2,130.9,135.1,131.3,134.8,131.6
	L134.8,131.6z M134.8,121.2c-0.2,0-0.4,0-0.6-0.2c-0.1-0.2-0.1-0.4,0-0.6c0.1-0.1,0.5-0.1,0.6,0s0.4,0.3,0.4,0.5
	C135.2,121.1,135,121.2,134.8,121.2L134.8,121.2z M135.8,117.6c-0.4,0.1-0.8-0.1-1.1-0.7c0-0.4,0-1,0.6-1.2c0.4,0,0.7,0.1,1,0.3
	c0.1,0.1,0.2,0.3,0.1,0.4c0,0,0,0.1,0,0.1c0,0.1,0,0.1,0,0.2c0,0.2-0.1,0.4-0.2,0.5C136.3,117.5,136,117.6,135.8,117.6L135.8,117.6z
	 M136.5,119.5c-0.1-0.3,0.1-0.7,0.4-0.8c0.3-0.1,0.6,0.1,0.7,0.4c0,0,0,0,0-0.1c0,0,0,0.1,0.1,0.1l0,0c0.1,0.1,0.1,0.2,0.1,0.2
	c0,0.2-0.1,0.4-0.2,0.5c-0.1,0.1-0.2,0.1-0.3,0.1C136.9,120,136.6,119.9,136.5,119.5C136.5,119.6,136.5,119.5,136.5,119.5
	L136.5,119.5z M138.7,131.7L138.7,131.7l-0.1,0.6c-0.2,0.2-0.4,0.3-0.6,0.5l-1-0.3c-0.1-0.2-0.1-0.4-0.2-0.5c-0.1-0.3,0-0.6,0.2-0.8
	c0.2-0.2,0.4-0.3,0.7-0.3C138.1,130.8,138.6,131.2,138.7,131.7L138.7,131.7C138.7,131.6,138.7,131.7,138.7,131.7L138.7,131.7z
	 M139.5,118.7c-0.4,0-0.9-0.3-0.8-0.7c-0.1-0.3,0-0.6,0.2-0.8c0.3-0.2,0.6-0.2,0.9-0.1c0.2,0.1,0.3,0.4,0.3,0.6c0,0,0,0.1,0,0.1
	C140.1,118.2,139.8,118.5,139.5,118.7L139.5,118.7z M141,120.8c-0.1,0.1-0.2,0.2-0.3,0.1c-0.2-0.1-0.4-0.3-0.6-0.4
	c-0.1-0.2-0.1-0.5,0.1-0.6c0.2-0.2,0.6-0.2,0.8,0c0.1,0.1,0.1,0.2,0.2,0.3C141.3,120.4,141.2,120.7,141,120.8L141,120.8z
	 M143.7,118.7l-0.4,0.8c-0.1,0.1-0.1,0.1-0.2,0.1c-0.4,0-0.7-0.3-0.7-0.6c-0.1-0.4,0.1-0.8,0.5-0.9c0,0,0,0,0,0c0.2,0,0.3,0,0.4,0.1
	l0.4,0.4C143.8,118.7,143.8,118.6,143.7,118.7L143.7,118.7z M144.8,121.6c-0.1,0.2-0.4,0.3-0.6,0.2c-0.1,0-0.2,0-0.2-0.1
	c-0.2-0.2-0.2-0.5-0.1-0.7c0.1-0.2,0.4-0.3,0.6-0.3c0.1,0,0.2,0.3,0.3,0.4C144.8,121.3,144.9,121.4,144.8,121.6L144.8,121.6z
	 M145.5,118.2c-0.4,0.1-0.8-0.1-1.1-0.6c-0.1-0.4,0.2-0.9,0.6-1l0.9,0.2l0.2,0.5C146.1,117.7,145.9,118,145.5,118.2L145.5,118.2z
	 M147.2,120.2c-0.1,0.1-0.3,0.2-0.5,0.2c-0.2,0-0.4-0.1-0.5-0.3c-0.1-0.1-0.1-0.2-0.1-0.3c0-0.2,0.1-0.4,0.3-0.5
	c0.2-0.1,0.4-0.1,0.6,0c0,0,0.1,0.2,0.1,0.2C147.3,119.7,147.3,120,147.2,120.2L147.2,120.2z M107.8,121.7c-0.1,0.2-0.4,0.3-0.6,0.3
	c-0.3-0.1-0.5-0.3-0.7-0.4c-0.1-0.5,0.1-1,0.6-1.2c0.4,0,0.8,0.2,0.8,0.7l0,0c0,0.1,0,0.1,0,0.2
	C107.9,121.4,107.9,121.5,107.8,121.7L107.8,121.7z M119.1,130.8L119.1,130.8C119.1,130.8,119.1,130.8,119.1,130.8
	c-0.3,0.4-0.5,0.4-0.9,0.4c-0.4-0.2-0.5-0.7-0.3-1.1c0,0,0,0,0,0c0.1-0.2,0.3-0.3,0.5-0.3c0.3,0,0.5,0.2,0.6,0.5c0,0.1,0,0.2,0,0.2
	c0,0.1-0.1,0.3-0.2,0.4C119,130.7,119.1,130.8,119.1,130.8L119.1,130.8z M123.8,134.3c0,0.1-0.2,0.1-0.3,0.1c-0.2,0-0.3-0.1-0.4-0.3
	c-0.1-0.3,0-0.6,0.2-0.8c0.1-0.1,0.3,0,0.4,0.1s0.2,0.3,0.2,0.4L123.8,134.3z M127.8,134.8L127.8,134.8c0,0.2,0,0.5-0.6,0.7
	c-0.2,0-0.7,0-0.7-0.4c-0.1-0.3,0-0.6,0.2-0.8c0.2-0.2,0.5-0.2,0.8-0.1c0.2,0.1,0.3,0.3,0.3,0.5
	C127.8,134.7,127.8,134.8,127.8,134.8L127.8,134.8z M131.4,136.3c-0.2,0.1-0.4,0.1-0.5,0.2c-0.3,0.1-0.5-0.1-0.6-0.4
	c-0.1-0.5,0.1-1,0.6-1.2c0.3,0,0.7,0.2,0.7,0.7L131.4,136.3z M134.9,137.2L134.9,137.2c0,0-0.2,0.1-0.4,0.1c-0.2,0-0.3,0-0.4-0.1
	c-0.1-0.2-0.1-0.4-0.1-0.6c0-0.1,0.1-0.2,0.2-0.3c0.2-0.1,0.5-0.1,0.6,0.2c0,0,0,0.1,0,0.1c0,0,0,0.1,0,0S135.2,136.8,134.9,137.2
	L134.9,137.2z M149.6,118.7c-0.1,0.2-0.3,0.3-0.6,0.4c-0.3,0-0.6-0.3-0.7-0.6c-0.1-0.2,0-0.5,0.2-0.6c0.2-0.2,0.6-0.2,0.8-0.1
	c0.2,0.1,0.3,0.3,0.3,0.5C149.7,118.5,149.7,118.6,149.6,118.7L149.6,118.7z M150.6,121.3c-0.1,0.1-0.2,0.1-0.4,0.1
	c-0.2-0.1-0.3-0.2-0.4-0.4c0-0.2,0.1-0.5,0.3-0.6c0.2-0.1,0.4-0.1,0.5,0c0.2,0.2,0.2,0.4,0.2,0.6
	C150.8,121.1,150.7,121.2,150.6,121.3L150.6,121.3z M151.9,117.6c-0.1,0.1-0.3,0.2-0.5,0.2c-0.4,0.1-0.7-0.1-0.9-0.4
	c0-0.1,0-0.2,0-0.3v-0.3c0-0.2,0-0.7,0.5-0.8c0.3-0.1,0.6,0,0.8,0.1c0.2,0.1,0.3,0.3,0.3,0.6l0,0c0,0,0,0.1,0,0.1c0,0,0,0,0-0.1
	C152.2,117,152.1,117.3,151.9,117.6L151.9,117.6z M153.3,119.4l-0.3,0.5c-0.1,0.1-0.1,0.1-0.2,0.1c-0.5,0-0.6-0.2-0.6-0.4
	s0.1-0.6,0.2-0.6l0.5-0.1l0.4,0.3C153.4,119.3,153.4,119.2,153.3,119.4L153.3,119.4z M155.6,118.4c-0.1,0.2-0.3,0.3-0.6,0.3
	c-0.1,0-0.2-0.1-0.3-0.1c0,0-0.4-0.4-0.4-0.4c-0.1-0.2,0-0.5,0.1-0.7c0.2-0.2,0.6-0.3,0.8-0.1c0.2,0.1,0.4,0.4,0.4,0.6
	c0,0,0-0.1,0-0.1c0,0,0,0.1,0,0.1l0,0c0,0,0,0.1,0,0.1C155.7,118.2,155.7,118.3,155.6,118.4L155.6,118.4z M158,117.1
	c-0.1,0.2-0.3,0.3-0.5,0.3c-0.2,0.1-0.5,0-0.7-0.1c-0.2-0.1-0.3-0.4-0.4-0.7c-0.1-0.3,0-0.6,0.2-0.8c0.3-0.2,0.7-0.3,1-0.2
	c0.3,0.1,0.5,0.4,0.4,0.7l0,0c0,0.1,0,0.1,0,0.2C158.1,116.7,158.1,116.9,158,117.1L158,117.1z M158.2,118.8c0,0.1,0.2,0.6,0.4,0.6
	C158.3,119.4,158.2,118.9,158.2,118.8L158.2,118.8z M158.7,119.1c-0.1,0.2-0.2-0.1-0.2-0.2C158.8,118.7,158.9,118.9,158.7,119.1
	L158.7,119.1z M161.6,117.9c-0.1,0.1-0.2,0.2-0.3,0.2c-0.2,0.1-0.4,0.1-0.6,0c-0.2-0.1-0.3-0.3-0.3-0.5c-0.1-0.2,0-0.5,0.2-0.6
	c0.2-0.2,0.5-0.2,0.7-0.1c0.2,0.1,0.3,0.3,0.3,0.5c0,0,0-0.1,0-0.1c0,0,0,0.1,0,0.1l0,0c0,0,0,0.1,0,0.1
	C161.6,117.7,161.6,117.8,161.6,117.9L161.6,117.9z M163.8,116.8c-0.1,0.1-0.3,0.2-0.4,0.1c-0.2,0.1-0.5,0-0.7-0.1
	c-0.2-0.1-0.2-0.3-0.3-0.5c-0.1-0.4,0.1-0.8,0.5-1c0,0,0,0,0,0c0.4-0.2,0.8,0.2,1,0.4c0.1,0.1,0.1,0.1,0.1,0.2
	C164.1,116.3,164.1,116.6,163.8,116.8L163.8,116.8z M164.2,118.5C164.2,118.5,164.2,118.4,164.2,118.5v-0.1l0,0
	C164.2,118.4,164.2,118.4,164.2,118.5c0,0.2,0.1,0.3,0.2,0.5C164.3,118.8,164.2,118.7,164.2,118.5L164.2,118.5z M164.8,118.5
	L164.8,118.5c0,0.1,0,0.2-0.1,0.2c0,0-0.1,0-0.1,0l0,0l0,0c0,0,0,0,0-0.1l0,0l0,0c0,0.1-0.1,0.1-0.1,0.1v-0.2l0.1,0.1
	c0,0,0-0.1,0-0.1v-0.1h0.1l0,0c0,0,0.2,0.1,0.2,0.2l0,0L164.8,118.5c0,0,0,0.1,0,0.2L164.8,118.5z M164.7,115c0-0.1,0-0.2,0-0.4
	c0-0.4,0-1,0.6-1.2c0.4,0,0.7,0.1,1,0.4c0.1,0.2,0.2,0.3,0.2,0.5c0,0.1,0,0.1,0,0.2c0,0.1,0,0.1,0,0.2c0,0.4-0.3,0.8-0.7,0.9
	C165.4,115.8,164.9,115.5,164.7,115L164.7,115z M167.1,117.8c-0.3,0-0.6-0.2-0.7-0.5c-0.2-0.2-0.1-0.6,0.2-0.7c0,0,0,0,0.1,0
	c0.3-0.2,0.7,0,0.9,0.3c0,0.1,0,0.2,0,0.3C167.6,117.4,167.4,117.7,167.1,117.8L167.1,117.8z M169.7,116.3c-0.1,0.1-0.1,0.1-0.2,0.1
	c-0.3,0-0.6-0.1-0.8-0.4c-0.1-0.2-0.1-0.5,0.1-0.7c0.2-0.2,0.6-0.3,0.9-0.2c0.2,0.1,0.4,0.3,0.4,0.6L169.7,116.3z M172,115
	c-0.2,0.1-0.6,0.2-1.1-0.4c-0.1-0.3-0.1-0.6,0.1-0.8c0.3-0.2,0.6-0.3,0.9-0.2c0.3,0.1,0.4,0.3,0.4,0.6c0,0,0-0.1,0-0.1
	c0,0,0,0.1,0,0.1l0,0C172.5,114.5,172.2,114.8,172,115z M174,113.8c-0.4,0-0.8-0.3-0.9-0.7c-0.1-0.7,0.1-1.2,0.6-1.4
	c0.3-0.1,0.6,0,0.9,0.2c0.1,0,0.3,0.2,0.3,0.3c0.1,0.4,0,0.8-0.2,1.2C174.4,113.7,174.2,113.8,174,113.8L174,113.8z M175.8,115.6
	C175.8,115.7,175.8,115.7,175.8,115.6l-0.5,0.2c-0.1,0.1-0.3,0.1-0.4,0c-0.4-0.4-0.2-0.7-0.1-0.8c0.2-0.2,0.5-0.3,0.8-0.1
	C175.8,115.1,175.9,115.4,175.8,115.6L175.8,115.6z M178.2,114.1c0,0.1-0.1,0.2-0.2,0.2l-0.6,0.2c-0.1,0-0.1,0-0.2-0.1
	c-0.2-0.2-0.3-0.4-0.2-0.6c0-0.2,0.1-0.3,0.5-0.5c0.3,0,0.6,0.1,0.7,0.4C178.2,113.8,178.3,113.9,178.2,114.1L178.2,114.1z
	 M180.2,113.1c-0.2,0.1-0.4,0.1-0.6,0c-0.2-0.1-0.3-0.3-0.3-0.5c-0.1-0.3,0-0.5,0.3-0.6c0,0,0,0,0,0c0.3-0.1,0.7,0,0.8,0.3
	c0,0.1,0,0.2,0,0.2C180.5,112.7,180.4,112.9,180.2,113.1L180.2,113.1z M182.6,111.7c-0.2,0.1-0.5,0.1-0.7,0
	c-0.1-0.1-0.2-0.2-0.3-0.4c-0.1-0.3,0-0.6,0.2-0.8c0.2-0.2,0.6-0.2,0.8,0c0.2,0.1,0.3,0.4,0.2,0.6c0,0,0-0.1,0-0.1
	C182.9,111.6,182.7,111.7,182.6,111.7L182.6,111.7z M185.2,110.1c-0.1,0.1-0.3,0.2-0.4,0.2c-0.4,0.1-0.8-0.1-1-0.5
	c0-0.1,0-0.2,0-0.3c-0.1-0.4,0.2-0.8,0.6-1c0.3,0,0.7,0.1,0.9,0.4c0.1,0.1,0.2,0.3,0.2,0.5c0,0,0,0.1,0,0.1c0,0.1,0,0.1,0,0.2
	C185.4,109.9,185.3,110,185.2,110.1L185.2,110.1z M188,111c-0.1-0.2-0.1-0.5,0.1-0.7c0,0-0.1,0.1-0.1,0.2c0,0.1,0,0.3,0.1,0.4
	c0,0,0.1,0,0.1,0.1l-0.1-0.3c0,0.1,0.1,0.1,0.1,0.1l0,0c0-0.1,0-0.1,0.1-0.2c0.1,0,0.2,0,0.2,0.1c0,0,0,0,0.1,0.1c0,0,0,0.1,0,0.1
	l0,0c0,0,0,0.1,0,0.1c-0.1,0-0.1,0-0.2,0l0,0c0,0,0,0,0-0.1l0,0l0,0l0,0c0,0.1,0,0.1,0,0.2c0.1,0.1,0.2,0.2,0.4,0.2
	C188.4,111.3,188.1,111.2,188,111z M191.2,109.4c-0.1,0.2-0.2,0.4-0.5,0.5c-0.2,0-0.4-0.1-0.6-0.2c-0.1-0.1-0.1-0.3-0.1-0.5
	c0-0.2,0.2-0.3,0.5-0.5c0.3,0,0.6,0.1,0.7,0.4C191.3,109.2,191.2,109.3,191.2,109.4L191.2,109.4z M193.2,108.4c-0.1,0-0.2,0-0.3,0
	c-0.3,0.1-0.5-0.1-0.6-0.3c-0.1-0.3-0.1-0.6,0.1-0.8c0.1-0.2,0.4-0.3,0.6-0.2c0.2,0.1,0.4,0.3,0.4,0.5v0.1
	C193.6,108,193.5,108.3,193.2,108.4L193.2,108.4z M195.5,107.1c-0.1,0-0.3,0-0.4-0.1c-0.2-0.1-0.6-0.2-0.4-0.5
	c-0.1-0.2-0.1-0.5,0.1-0.8c0.2-0.2,0.6-0.3,0.8-0.1c0.3,0.1,0.5,0.4,0.5,0.7C196,106.7,195.8,107,195.5,107.1L195.5,107.1z"/>
<path d="M134.4,136.8L134.4,136.8c0,0,0-0.1,0-0.1s0,0-0.1,0S134.4,136.7,134.4,136.8z"/>
<path d="M117,114.8c0.4-0.1,0.6-0.5,0.7-0.9c-0.2-0.5-0.6-0.9-1.2-0.9c-0.4,0.1-0.7,0.7-0.7,1.1C116.1,114.6,116.5,114.9,117,114.8z
	"/>
<path d="M115.5,111.9c0.1,0,0.3-0.2,0.2-0.5s-0.6-0.1-0.8,0.2C115,111.8,115.2,111.9,115.5,111.9z"/>
<path d="M125.1,112.6c0.1,0,0.3-0.2,0.2-0.6c-0.1-0.1-0.1-0.2-0.2-0.2C124.7,112,124.7,112.5,125.1,112.6z"/>
<path d="M119.3,113.2c0.1-0.2,0.3-0.3,0.3-0.7s-0.3-0.6-0.6-0.7c-0.3,0.2-0.5,0.5-0.5,0.9C118.7,113,118.9,113.3,119.3,113.2z"/>
<path d="M113.2,113.5c0.1-0.1,0.4-0.3,0.4-0.6c-0.2-0.7-1.1-0.7-1.1,0.1C112.7,113.3,112.9,113.5,113.2,113.5z"/>
<path d="M128.8,113.9c0.2-0.2,0.8-0.4,0.6-0.9s-1-0.9-1.2-0.2C127.9,113.2,128.4,113.8,128.8,113.9z"/>
<path d="M122.8,124.7L122.8,124.7L122.8,124.7L122.8,124.7z"/>
<path d="M111,114.8c0.1-0.2,0.2-0.4,0.3-0.6c-0.2-0.3-1-0.6-0.8,0.1C110.5,114.5,110.6,114.8,111,114.8z"/>
<path d="M114.6,116.1c0.4-0.2,0.9-0.6,0.8-1.1c-0.2-0.4-0.6-0.6-1-0.6c-0.4,0.1-0.6,0.5-0.7,0.9C114,115.7,114.2,116.1,114.6,116.1z
	"/>
<path d="M112.6,117c0.1-0.1,0.1-0.3,0.1-0.4c-0.1-0.2-0.3-0.6-0.6-0.4S112.2,116.9,112.6,117z"/>
<path d="M179.4,108.8c0.2,0,0.3-0.3,0.3-0.6c-0.2-0.2-0.3-0.4-0.5-0.4c-0.2,0.2-0.6,0.3-0.5,0.7S179.1,109.1,179.4,108.8z"/>
<path d="M181.5,107.4c0.1-0.1,0.3-0.2,0.3-0.4c-0.1-0.2-0.2-0.3-0.4-0.3C180.8,106.8,181.2,107.3,181.5,107.4z"/>
<path d="M171,110.8c0.2-0.1,0.5-0.4,0.4-0.8c-0.2-0.3-0.5-0.4-0.9-0.3c-0.2,0.1-0.3,0.3-0.3,0.5C170.4,110.5,170.6,110.7,171,110.8z
	"/>
<path d="M165.2,110.6c-0.1,0-0.2-0.2-0.3-0.2s-0.4,0.3-0.1,0.6C165,111,165,110.7,165.2,110.6z"/>
<path d="M189.9,105.6c0.2-0.2,0.4-0.3,0.4-0.6c-0.2-0.7-1-0.4-1.1,0.1C189.4,105.3,189.6,105.8,189.9,105.6z"/>
<path d="M134.8,113.2c0.1-0.1,0.5-0.2,0.4-0.6c-0.1-0.2-0.3-0.3-0.5-0.3c-0.2,0.1-0.4,0.3-0.3,0.6S134.6,113.2,134.8,113.2z"/>
<path d="M192.4,103.6c-0.1-0.4-0.6-0.2-0.5,0.2c0.1,0.1,0.2,0.2,0.3,0.2S192.5,103.8,192.4,103.6z"/>
<path d="M202.1,100.7c0.1,0.2,0.4,0.4,0.6,0.4c0.3,0,0.4-0.4,0.4-0.7C203,99.6,202,100,202.1,100.7z"/>
<path d="M151,112.9c-0.2-0.1-0.3-0.4-0.5-0.4s-0.5,0.6-0.2,0.8C150.5,113.7,150.8,113.2,151,112.9z"/>
<path d="M144.5,113.9c0.3,0,0.6-0.3,0.5-0.7c-0.1-0.3-0.5-0.5-0.8-0.3c-0.2,0.1-0.3,0.2-0.4,0.4C144,113.5,144.2,113.9,144.5,113.9z
	"/>
<path d="M154.3,114.7c0.4-0.2,0.6-0.7,0.5-1.1c-0.2-0.2-0.5-0.7-1-0.6c-0.2,0.2-0.6,0.5-0.5,1S153.9,114.8,154.3,114.7z"/>
<path d="M138.4,114.5c0.4,0,0.7-0.4,0.7-0.8c0,0,0,0,0,0c0-0.3-0.4-0.4-0.7-0.6c-0.4,0.1-0.6,0.5-0.5,0.9
	C137.9,114.1,138.2,114.5,138.4,114.5z"/>
<path d="M162.6,112.6c0.2-0.1,0.6-0.3,0.5-0.7s-0.4-0.7-0.7-0.4s-0.5,0.2-0.4,0.6C162,112.3,162.3,112.6,162.6,112.6z"/>
<path d="M156.5,112.9c0.2-0.1,0.4-0.2,0.4-0.6c-0.2-0.6-0.9-0.2-0.9,0.2C156.2,112.6,156.3,113,156.5,112.9z"/>
<path d="M148,162.3c36.3,0,66.1-29,69.2-66.3l-8.4,2.7C204,126.1,178.6,147,148,147c-26.2,0-48.6-15.4-57.4-37h-9.2
	C90,140.2,116.5,162.3,148,162.3z"/>
<path d="M136.9,34.1c-0.5,0.4-2.3,2.3-2.9,1.5c-0.4-0.6,0.5-1.3,0.5-1.3l-7.4-1l-1.3,3.9l1.6,1.1l-1.8,10.5l4.7,3l4.2-4.7l-1.7-1.7
	c0,0-1.2,1.2-1.6,0.1c-0.1-0.3,0.6-2.1,1-3.5s1.5-3.9,2.4-2.4c0.6,1.2,1.2,2.4,1.5,3.7l2.7-3.4l-0.5-5
	C138.2,35,137.4,34.5,136.9,34.1z"/>
<path d="M200.1,32.6c-0.6,0.4-2.6,2-3,1.2c-0.3-0.6,0.6-1.2,0.6-1.2l-6.4-1.6l-1.7,3.6l1.5,1.2l-2.9,10.1l4.3,3.4l4.6-4.1l-1.6-1.8
	c0,0-1.3,1-1.6-0.1c0-1.1,0.3-2.3,0.9-3.3c0.6-1.3,1.6-3.1,2.2-2.1c0.6,1.2,0.9,2.4,1.1,3.7l3-3v-4.9
	C201.2,33.7,200.5,33.1,200.1,32.6z"/>
<path d="M120.2,24.5c-1.8,0.1-3.1,1.6-3,3.4c0.1,1.8,1.6,3.1,3.4,3c1.7-0.1,3-1.5,3-3.2C123.6,25.9,122,24.4,120.2,24.5z
	 M119.8,46.5c-0.6-0.6,2.4-10,2.4-10l-7.7-2.1l-1,3.7l1.6,1.6l-1,11.1c0,0,4.3,2.6,4.5,2.6s3.8-5.6,3.8-5.6l-1.4-1.6
	C121,46.1,120.4,47.2,119.8,46.5L119.8,46.5z"/>
<path d="M184.5,21.8c-1.8-0.1-3.3,1.4-3.4,3.2c-0.1,1.9,1.3,3.5,3.2,3.6c1.9,0.1,3.5-1.3,3.6-3.2c0.1-1.9-1.3-3.5-3.2-3.6
	C184.7,21.8,184.6,21.8,184.5,21.8z M184.1,43.4c-0.6-0.6,2.4-9.7,2.4-9.7l-7.1-2.2l-1,3.6l1.6,1.6l-1.4,10.7c0,0,4.1,2.7,4.3,2.7
	s3.9-5.4,3.9-5.4l-1.5-1.6C185.3,43,184.7,44,184.1,43.4L184.1,43.4z"/>
<path d="M163.4,23l-7.6,14.4l-0.7-0.6c-0.1-4.1,0.1-8.2,0.4-12.3l-7.5,4.6l-0.7,5.7c-0.5,0.6-0.9,1.2-1.3,1.8
	c0-1.9-0.4-15.3-0.4-15.3l-7.1,4.9l0.2,3.1l1.6,0.2c0.8,6.8,1.4,15.6,1.6,18.1c1.5,1,3,1.8,4.7,2.4c0-0.2,3.8-8.7,3.8-8.7l1.4,9
	l5.1-2.6c0,0,7.8-18.3,9.2-20.5c0.9-0.2,1.9-0.4,2.8-0.4l0.6-4.4L163.4,23z"/>
<path d="M173,42.9c0.8-3.5,1.8-7,3.1-10.3l-6.7-1.3l-3.1,3.5l1.6,1c0.3-0.2,0.5-0.5,0.8-0.7c0.8-0.5,1.1,0.6,0.5,1.5
	c-3,2.1-6.6,4.5-9.1,7.8l2.4,5.5l6.4-2l3,2.4l3.8-4.7c0,0-0.8-1.4-1.2-2.1C173.3,44.7,172.8,43.7,173,42.9z M168.4,44.7
	c-1.2,0.5-2.5,1-3.7,1.4c-0.4,0.1-0.9,0.3-0.9-0.1c0-1.5,5.2-4.9,5.2-4.9L168.4,44.7z"/>
<path d="M109.1,51.6c-0.6-4.4,0.4-23.6,0.6-23.9c-0.8,0.2-7.2,2.1-7.2,2.1l-8.2,21.6l-2.1-0.3l-1.5,3.6l6.2,4l3.2-8.5l3.4,0.8
	c0.3,3.4,1.1,7,1.1,7l7.1-3.5v-3.3C111.6,51.2,109.6,51.5,109.1,51.6z M103.1,46.4l-1.9-0.4l2.4-6.7L103.1,46.4z"/>
<path class="st1" d="M105.6,136.3C105.6,136.3,105.6,136.3,105.6,136.3l-0.7-0.8c0,0-0.1,0-0.1,0l-2.1,1.2l-0.2,0.1l0.1-0.2l1.3-2
	c0,0,0,0,0-0.1c0,0,0,0,0-0.1l-0.8-0.8c0,0-0.1,0-0.1,0l-2.2,1.3l0.1-0.1l1.2-2.1c0,0,0,0,0-0.1c0,0,0,0,0-0.1l-0.8-0.8
	c0,0-0.1,0-0.1,0c0,0-0.1,0-0.1,0.1l-1.9,3.8c0,0,0,0.1,0,0.1l0.7,0.7c0,0,0.1,0,0.1,0l2.1-1.2l0.3-0.2l-0.2,0.3l-1.3,2.1
	c0,0,0,0,0,0.1c0,0,0,0,0,0.1l0.7,0.7c0,0,0.1,0,0.1,0l3.9-1.8C105.6,136.5,105.6,136.4,105.6,136.3z M111.2,142
	C111.2,142,111.3,142,111.2,142l0.5-0.6c0,0,0-0.1,0-0.1l-3.1-2.4c0,0-0.1,0-0.2,0l-0.4,0.6c0,0,0,0,0,0.1l0,0c0,0,0,0,0,0.1
	l1.1,0.8l-2,2.5c0,0,0,0,0,0.1l0,0c0,0,0,0,0,0.1l0.8,0.6c0,0,0.1,0,0.2,0l2-2.5L111.2,142C111.1,142,111.2,142,111.2,142L111.2,142
	z M107.4,137.8l-0.8-0.7h-0.1c0,0-0.1,0-0.1,0l-2.7,3c0,0,0,0.1,0,0.1l0.8,0.7c0,0,0,0,0.1,0c0,0,0,0,0.1,0l2.7-3
	C107.5,137.9,107.5,137.9,107.4,137.8L107.4,137.8z M190.3,141c0,0-0.1,0-0.1,0l-1.8,1.4l-2-2.5c0,0,0,0-0.1,0c0,0-0.1,0-0.1,0
	l-0.8,0.6c0,0,0,0.1,0,0.1l2.5,3.2c0,0,0.1,0,0.1,0l2.7-2.2c0,0,0,0,0-0.1c0,0,0-0.1,0-0.1L190.3,141z M185.7,143
	c-0.3-0.6-1-1-1.6-1c-0.6,0-1.2,0.2-1.7,0.5c-0.5,0.3-0.9,0.8-1.1,1.4c-0.2,0.6-0.1,1.3,0.3,1.9c0.3,0.6,1,1,1.6,1
	c1.2,0,2.3-0.7,2.8-1.9c0.1-0.2,0.1-0.4,0.1-0.6C186.1,143.8,185.9,143.4,185.7,143z M194,137.6c0,0-0.1,0-0.1,0c0,0,0,0,0,0
	l-1.9,1.7l-0.6-0.6l1.6-1.5c0,0,0-0.1,0-0.1c0,0,0-0.1,0-0.1l-0.5-0.5c0,0-0.1,0-0.2,0l-1.6,1.5l-0.4-0.5l1.8-1.6c0,0,0-0.1,0-0.1
	l0,0c0,0,0,0,0-0.1l-0.5-0.5c0,0-0.1,0-0.1,0c0,0,0,0,0,0l-2.6,2.4c0,0,0,0.1,0,0.1l2.8,3c0,0,0.1,0,0.1,0l2.7-2.5c0,0,0,0,0-0.1
	c0,0,0-0.1,0-0.1L194,137.6z M184.9,144.7c-0.1,0.3-0.3,0.6-0.6,0.8c-0.3,0.2-0.6,0.3-0.9,0.2c-0.7-0.2-1.1-0.9-1.1-1.6
	c0.1-0.3,0.3-0.6,0.6-0.8c0.3-0.2,0.6-0.3,0.9-0.2c0.3,0.1,0.6,0.3,0.8,0.6c0.2,0.2,0.3,0.5,0.3,0.8
	C184.9,144.6,184.9,144.6,184.9,144.7L184.9,144.7z M115.4,143.7C115.3,143.7,115.3,143.7,115.4,143.7c-0.1,0-0.1,0-0.1,0l-0.8,1.2
	L113,144l0.8-1.2c0,0,0,0,0-0.1c0,0,0-0.1,0-0.1l-0.8-0.6c0,0-0.1,0-0.1,0c0,0,0,0-0.1,0l-2.2,3.4c0,0,0,0.1,0,0.1c0,0,0,0,0,0.1
	l0.8,0.6c0,0,0.1,0,0.1,0c0,0,0,0,0,0l0.9-1.4l1.4,0.9l-0.9,1.4c0,0,0,0,0,0.1c0,0,0,0.1,0,0.1l0.8,0.6c0,0,0.1,0,0.1,0
	c0,0,0,0,0.1,0l2.2-3.4c0,0,0-0.1,0-0.1L115.4,143.7z M180.3,146.4l-0.9,0.2l-0.8,0.3L178,147c-0.2,0-0.2-0.1-0.3-0.1
	c-0.1-0.1-0.1-0.2,0-0.3l0.5-0.4l0.5-0.2c0.2,0,0.4,0,0.5,0.2c0,0,0.1,0,0.1,0l0.9-0.5c0,0,0-0.1,0-0.1c-0.2-0.4-0.6-0.6-1.1-0.6
	c-0.5,0-1,0.1-1.4,0.4c-0.5,0.2-0.9,0.6-1.1,1.1c-0.2,0.4-0.2,0.8,0,1.1c0.2,0.4,0.5,0.6,0.9,0.6l1.1-0.2l0.5-0.2l0.7-0.2
	c0.1,0,0.2,0,0.2,0.1c0.1,0.1,0.1,0.3-0.1,0.5l-0.5,0.3c-0.2,0.2-0.5,0.2-0.8,0.2l-0.3-0.2c0,0-0.1,0-0.1,0l-0.9,0.5
	c0,0,0,0.1,0,0.1c0.2,0.4,0.6,0.6,1.1,0.6c0.6,0,1.1-0.1,1.6-0.4c0.5-0.2,0.9-0.6,1.1-1.1c0.2-0.4,0.2-0.8,0-1.1
	C181,146.6,180.7,146.4,180.3,146.4L180.3,146.4z M197.4,133.2c-0.3-0.3-0.6-0.4-1-0.3l-0.8,0.4l-0.7,0.5l-0.5,0.4
	c-0.2,0.1-0.2,0-0.3,0c-0.1-0.1-0.1-0.2-0.1-0.3l0.3-0.5l0.4-0.4c0.2-0.1,0.4-0.1,0.5,0c0,0,0.1,0,0.1,0l0.7-0.7c0,0,0-0.1,0-0.1
	c0,0,0,0,0-0.1c-0.3-0.3-0.8-0.4-1.2-0.3c-0.5,0.1-0.9,0.4-1.2,0.8c-0.4,0.4-0.6,0.8-0.7,1.4c-0.1,0.4,0.1,0.8,0.4,1.1
	c0.3,0.3,0.7,0.4,1.1,0.2l1-0.6l0.4-0.3l0.6-0.4c0.1-0.1,0.2,0,0.3,0s0.2,0.2,0,0.5l-0.3,0.5c-0.2,0.2-0.4,0.4-0.7,0.4l-0.4-0.1
	c0,0-0.1,0-0.1,0l-0.7,0.7c0,0,0,0.1,0,0.1c0,0,0,0,0,0.1c0.3,0.3,0.8,0.4,1.2,0.3c0.5-0.2,1-0.5,1.4-0.9c0.4-0.4,0.6-0.9,0.8-1.4
	C197.8,133.9,197.7,133.5,197.4,133.2L197.4,133.2z"/>
<path class="st0" d="M119.1,152.2c-0.3-0.1-0.7-0.1,0.7-3.5c1.8-4.6,2.3-4.1,2.5-4.1l2.9,1.2c2,0.8,2,1.7,1.8,2.3
	c-0.4,1-1.9,1.1-2,1.4s1.4,1.8,0.8,3.4c-0.3,0.9-1.3,1.5-3.2,0.7L119.1,152.2z M121.9,149.6c-0.4,0-0.6,0-0.7,0.3
	c-0.5,1.4-0.2,1.8,0.7,2.1s1.7,0.4,2-0.3c0.1-0.8-0.1-1.6-0.7-2.1c-0.2,0-0.4,0-0.5,0L121.9,149.6z M123.8,148.4
	c0.4-0.1,1-0.3,1.2-0.7s-0.3-0.8-0.7-0.9c-1.1-0.5-1.8-0.3-2.3,1.2c-0.1,0.2-0.2,0.4,0.1,0.6c0.2,0.1,0.5,0.1,0.7,0.1L123.8,148.4z
	 M127.6,151.8c0.3-1.6,1.8-2.7,3.5-2.5c0.1,0,0.2,0,0.3,0.1c1.7,0.5,2.6,2.2,2.2,3.8c0,0.1,0,0.1-0.1,0.2c-0.3,1.6-1.8,2.7-3.4,2.5
	c-0.1,0-0.2,0-0.3-0.1c-1.7-0.5-2.6-2.2-2.2-3.9C127.5,151.9,127.6,151.9,127.6,151.8L127.6,151.8z M132.1,152.8
	c0.4-0.9-0.1-1.9-0.9-2.2c0,0-0.1,0-0.1,0c-1.2-0.3-1.8,0.7-2,1.4c-0.4,0.9,0,1.9,0.9,2.2c0,0,0.1,0,0.1,0
	C131.3,154.6,131.9,153.6,132.1,152.8L132.1,152.8z M140.4,151.4c0.5,0.1,0.2,2.1,0.1,3.1c-0.5,3.6-0.8,3.4-1.7,3.2
	c-1.3-0.2-0.2-0.6-0.9-0.7c-0.2,0.1-0.4,0.1-0.6,0.2c-0.3,0.1-0.6,0.1-0.9,0.1c-1-0.2-1.9-0.8-1.4-3.6c0-0.2,0.5-3.1,1-3l1.1,0.2
	c0.1,0,0.5,0,0.5,0.2c-0.5,0.9-0.9,1.9-1,2.9c-0.1,0.6-0.3,2,0.7,2.2c0.4,0.1,1.3,0.1,1.6-2c0.1-1,0.1-1.9,0-2.9
	c0-0.1,0.3-0.1,0.4-0.1L140.4,151.4z M146,158.2c-0.2,0-0.4,0-0.4-0.2c0.4-1.1,0.7-2.2,0.8-3.4c0-0.7,0-1.6-0.8-1.6
	c-0.5,0-1.4,0.2-1.5,2.2c0,1,0.1,1.9,0.2,2.9c0,0.1-0.2,0.1-0.3,0.1h-1c-0.4,0-0.6,0.1-0.5-2.5c0.2-4.5,0.6-4.2,1.5-4.2
	c0.4,0,0.9,0,0.9,0.2s-0.1,0.2-0.1,0.4c0,0.1,0.1,0.2,0.2,0.2c0,0,0,0,0,0c0.5-0.2,1-0.3,1.6-0.4c0.3,0,1.8,0.1,1.6,2.7
	c-0.1,3.9-0.5,3.7-0.9,3.7L146,158.2z M149.6,155.4c-0.2-1.9,1.1-3.6,3-3.9c0.1,0,0.1,0,0.2,0c1.1-0.1,1.8,0.3,1.9,0.9
	c0,0.3-0.2,0.9-0.7,0.9c-0.3,0-0.3-0.7-1.3-0.6c-1.2,0.1-1.6,1.5-1.6,2.3c0,0.9,0.7,1.6,1.6,1.7c0.1,0,0.2,0,0.2,0
	c0.7,0,1.3-0.5,1.7-1.1c0.1,0,0.2,0.2,0.2,0.6c0.1,1.2-0.8,2-2.3,2.1c-1.5,0.1-2.9-1-3-2.5C149.6,155.6,149.6,155.5,149.6,155.4
	L149.6,155.4z M155.8,149.9c-0.1-0.4,0.4-0.8,0.8-0.8s1,0.1,1,0.5s-0.4,0.7-0.8,0.8S156,150.3,155.8,149.9L155.8,149.9z
	 M158.2,157.4c0.3,0,0.6,0,0.6-0.4c-0.5-1.3-0.8-2.6-1-4c-0.1-0.6-0.1-1.2-0.1-1.8c0-0.1,0-0.1-0.5-0.1l-0.7,0.1
	c-0.4,0.1-0.6-0.2-0.2,3.1s0.5,3.2,1.1,3.2L158.2,157.4z M164.5,156.1c-0.1,0-0.4,0.1-0.4-0.1c0.1-1.2,0.1-2.3-0.2-3.5
	c-0.1-0.7-0.4-1.5-1.2-1.3c-0.4,0.1-1.3,0.6-0.9,2.5c0.3,0.9,0.6,1.8,1,2.7c0,0.1-0.2,0.2-0.3,0.2l-1,0.2c-0.4,0.1-0.6,0.3-1.2-2.2
	c-1-4.4-0.5-4.2,0.4-4.4c0.4-0.1,0.8-0.2,0.9,0s-0.1,0.2,0,0.4c0,0.1,0.1,0.2,0.2,0.1c0,0,0,0,0,0c0.4-0.3,0.9-0.6,1.4-0.8
	c0.3-0.1,1.7-0.4,2.3,2.2c0.9,3.8,0.4,3.7,0,3.8L164.5,156.1z M173.9,152.3c-0.8-1.3-2.5-1.7-3.8-0.8c0,0,0,0,0,0
	c-0.5,0.3-0.8,0.6-1,0.7c-0.1,0-0.3-0.1-0.3-0.2c-0.1-0.3,0.6-0.9,1.2-1.1c1.7-0.6,2.1-1.9,1.8-2.9s-1-1-1.1-1.3
	c-0.2-0.5,1-0.6,0.9-0.9c-0.3-0.3-0.8-0.5-1.2-0.5c-0.4,0.2-0.5,1.1-1,1.3c-0.2,0-0.5,0.1-0.7,0.2c-1.5,0.6-2.2,1.6-1.8,2.9
	c0.4,1,1.3,1.1,1.4,1.3s-1.2,0.9-0.8,1.9c0.2,0.4,0.6,0.7,1.1,0.7c-0.1,0.5-0.1,1,0.2,1.4c0.7,1.1,2.3,1.2,3.8,0.5
	c0.7-0.3,1.3-0.9,1.6-1.6C174.3,153.5,174.2,152.9,173.9,152.3L173.9,152.3z M168.1,149.1c-0.2-0.6,0.2-1.2,0.7-1.3c0,0,0,0,0.1,0
	c0.5-0.3,1.1-0.1,1.4,0.4c0,0.1,0.1,0.1,0.1,0.2c0.2,0.6-0.1,1.2-0.7,1.4c0,0,0,0-0.1,0c-0.5,0.3-1.1,0.1-1.4-0.4
	C168.1,149.2,168.1,149.2,168.1,149.1L168.1,149.1z M171.7,154.6c-0.7,0.4-1.6,0.3-2-0.4c0,0,0,0,0,0c-0.4-0.6-0.1-1.4,0.8-1.8
	c0.7-0.4,1.6-0.3,2,0.4C172.9,153.5,172.5,154.2,171.7,154.6L171.7,154.6z"/>
<path d="M34.7,18.3v19.6c-0.1,5.2-8.5,4.3-8.5,4.3V14C26.2,14,34.6,13.1,34.7,18.3z M170.9,94.1c-7.8,1.2-15.6,2.1-23.4,2.6l0.3,2.4
	c7.8-0.5,15.6-1.4,23.4-2.7L170.9,94.1z M171.7,100.9l0.3,2.1c-3.9,0.9-17.6,2.4-23.3,2.7l-0.3-2.2
	C156.1,103,163.9,102.1,171.7,100.9L171.7,100.9z M171.6,99.9c-7.8,1.2-15.6,2.2-23.3,2.7l-0.3-2.4c7.8-0.5,15.6-1.4,23.4-2.7
	L171.6,99.9z M170.8,93c-7.8,1.2-15.6,2.1-23.4,2.6l-0.3-2.3c0,0,4.2-0.8,4-4.6c-0.1-0.6-0.8-6.5-1-7.4c-0.5-2.8-3.8-1.9-3.8-1.9
	s-1.3-10.6-1.2-10.7c0.9-0.1,3.4-0.4,3.1-3.1c-0.3-2.4-1.1-8-1.1-8l14.7-1.7c0,0,0.6,5.6,0.9,8.1c0.3,2.8,2.8,2.3,3.7,2.2
	c0.1,0,1.4,10.6,1.4,10.6s-3.4,0-3.2,2.9c0.1,0.9,0.8,6.8,0.9,7.4c0.7,3.7,5,3.4,5,3.4L170.8,93z M42.3,52.5H4.1V41.9
	c0,0,6.4,0,6.7-5.4V19.7c-0.3-5.4-6.7-5.4-6.7-5.4V3.7h38.3c0,0,7.6,0.1,7.9,8v32.8C50,52.5,42.3,52.5,42.3,52.5z M34.7,18.3
	c-0.1-5.2-8.5-4.3-8.5-4.3v28.2c0,0,8.4,0.9,8.5-4.3V18.3z M52.5,44v8h12.9v-7.9c-1,0-1.8-0.9-1.7-1.9v-4.7c0-3.8,3.9-3.9,3.9,0.2
	v1.4h7.2v-3.4c0-8.6-7.6-9.2-11.7-4.8v-2.6H52.5v6.4c1,0,1.8,0.9,1.7,1.9v5.6C54.3,43.1,53.5,43.9,52.5,44C52.5,44,52.5,44,52.5,44z
	 M68.3,52h6.9v-7.8h-6.9V52z M26.2,14v28.2c0,0,8.4,0.9,8.5-4.3V18.3C34.6,13.1,26.2,14,26.2,14z M103.2,97.3l-36.5,0.2
	c0.4,0.8,0.8,1.6,1.3,2.4l35.2-0.2V97.3z M103.2,104.2v2.3H86.7v-2.2L103.2,104.2z M103.2,103.2l-16.6,0.1v-0.8
	c-0.2,0.3-0.3,0.6-0.6,0.8L71,103.3c-0.8-0.7-1.6-1.5-2.3-2.4l34.5-0.2L103.2,103.2z M72.5,104.4l12.5,0c-3.2,2-7.2,2.4-10.7,1
	C73.7,105.1,73.1,104.7,72.5,104.4L72.5,104.4z M100.5,91V69.3l-13.9,0.1v4.1c-1.6-3.1-7.9-4.8-12.4-2.9c-6.8,3-9.4,10.4-9.4,17.3
	c0,2.9,0.4,5.7,1.4,8.5l36.9-0.2v-2.3C101.7,93.9,100.5,92.6,100.5,91z M83.7,93.9c-2.3,0-4.1-3.4-4.1-7.6s1.8-7.6,4.1-7.6
	s4.1,3.4,4.1,7.6S86,93.9,83.7,93.9z M62.2,93.8c0,0-6.9,0.1-7-4.2s-0.1-14.2,0-17.4c0.2-5.7,6.7-5.5,6.7-5.5V56.5H42.1L33,73.3
	l-9.2-16.8H4v10.2c0,0,6.8-0.2,6.9,5.5c0.1,3.3,0,13.1,0,17.4s-7.2,4.2-7.2,4.2v2.9l25.2-0.1v-2.5c0,0-3.4-0.1-3.4-3V85l7.5,9.5
	l7.4-9.5v6.1c0,2.9-3.4,3-3.4,3v2.5l25.2-0.1L62.2,93.8z M3.6,104.7l25.2-0.1v2.3H3.6V104.7z M3.6,97.8l25.2-0.1v2.4l-25.2,0.1V97.8
	z M3.6,101.2l25.2-0.1v2.4l-25.2,0.1V101.2z M62.2,99.9L37,100v-2.4l25.2-0.1L62.2,99.9z M62.2,104.4v2.5H37v-2.4L62.2,104.4z
	 M62.2,103.4L37,103.5v-2.4l25.2-0.1L62.2,103.4z M128.1,97.2L108,97.3v2.4l20.1-0.1L128.1,97.2z M128.1,103.1l-20.1,0.1v-2.4
	l20.1-0.1V103.1z M128.1,104.1v2.3H108v-2.3L128.1,104.1z M128.1,96.1L108,96.2v-2.4c1.5-0.1,2.8-1.4,2.7-2.9v-8.7
	c0.1-1.6-1.2-2.9-2.7-2.9v-10h16.6v4.1c6.4-6.8,18.2-5.8,18.2,7.6c0,2.9,0,5.3,0,5.3h-11.2v-2.2c0-6.4-6-6.2-6-0.3v7.5
	c-0.1,1.6,1.1,2.9,2.7,2.9L128.1,96.1z M286,51.9c0-0.1-0.1-0.2-0.1-0.4c-9.3,5.7-18.8,10.9-28.7,15.6l1,2c9.7-4.6,19-9.7,28.1-15.4
	C286.2,53.1,286.1,52.5,286,51.9z M286,57.5c-8.5,5.3-17.2,10.1-26.2,14.4l-1-1.8c9.5-4.5,18.7-9.5,27.6-15c0,0.1,0,0.1,0,0.2
	C286.3,56,286.2,56.7,286,57.5z M267.5,60.9c-3.5,1.8-7.1,3.6-10.7,5.3l-1.3-2.4c0,0,8.7-4.6,10.2-5.4c0.4,0.8,0.9,1.5,1.4,2.2
	C267.2,60.7,267.3,60.8,267.5,60.9L267.5,60.9z M285.5,50.6c-4.1,2.6-8.5,5.1-13,7.6c0-0.4-0.1-0.7-0.3-1c-1-1.8-2.2-2.2-9.5,0.2
	c-2.1,0.7-8.9,2.4-13.2-2.1c-0.9-1.1-1.7-2.3-2.3-3.6c-3-6.6,2.4-12.2,5.9-14.2c1.6-1,17.3-9,17.3-9l5.4,10.2c0,0-9.5,5-11,5.8
	c-0.3-0.3-0.7-1.3-1.4-1.6c-1.6-0.5-4.8,1.3-4.7,2.8c0,0.5,0.2,1,0.6,1.4c0.6,0.5,1.9,0.8,6-0.7C279.9,40.8,283.8,46.6,285.5,50.6
	L285.5,50.6z M285.4,59.1c0,0.1-0.1,0.2-0.1,0.2c-1.4,2.8-3.7,5-6.5,6.4c-1.6,0.9-14,7.4-17.4,9.2l-1.1-2.2
	C268.8,68.7,277.2,64.1,285.4,59.1L285.4,59.1z M216.2,89.1c6.5-2.1,12.8-4.3,19-6.7l-0.8-2c-6.2,2.4-12.6,4.5-19.1,6.5L216.2,89.1z
	 M254.5,74.3c-5.2,2.4-10.6,4.7-16.1,6.9l-0.8-2c5.5-2.2,10.9-4.4,16.1-6.8L254.5,74.3z M254.9,75.3l0.8,1.9c-2.8,1.4-13.3,5.8-16,7
	l-0.8-2C244.3,80.1,249.6,77.7,254.9,75.3L254.9,75.3z M214.2,83.9c6.5-2,12.9-4.2,19.1-6.6l0.8,2.2c-6.2,2.4-12.6,4.5-19.1,6.5
	L214.2,83.9z M252.2,68.3c-5.2,2.4-10.6,4.6-16.1,6.8l-4.9-12.4c-2-5.2-7.8-3.4-5.6,2.2c0.9,2.3,1.9,4.8,2.7,7
	c1,2.5,3.6,1.7,3.6,1.7l1.1,2.8c-6.2,2.4-12.6,4.6-19.1,6.6l-0.8-2.2c0,0,2.3-1.5,1.4-3.9c-0.7-2-2.2-5.7-3-7.8
	c-1.2-3.1-3.7-2.1-3.7-2.1l-3.6-9.3l15.4-6c0,0,1.5,3.7,1.5,3.8c1.4-3,5.7-6.6,9.8-7.6c9.3-2.3,11.9,4.5,16.9,16.3
	c0.4,1.3,1.8,2.1,3.1,1.7c0.2,0,0.3-0.1,0.5-0.2L252.2,68.3z M253.4,71.4c-5.2,2.4-10.6,4.7-16.1,6.8l-0.8-2.2
	c5.5-2.2,10.9-4.4,16.1-6.8L253.4,71.4z M216.6,90.1c6.5-2.1,12.8-4.3,19-6.7l0.8,2c-1.8,0.7-17.2,6.3-18.9,6.9L216.6,90.1z
	 M190.2,89.2c-4.9,1.1-9.8,2.1-14.7,3c-0.1-0.2-0.1-0.4-0.2-0.6c-1.3-4.2-2.3-8.4-3.2-12.7c-3.2-18.9,28.6-23,31.9-10.3l2.6,9.6
	L188,83.1l1.3,4.9h0.1C189.5,88.5,189.8,88.9,190.2,89.2z M186.9,78.5L193,77c0,0-0.8-3.4-1.1-4.4c-1.1-3.2-6.6-1.8-5.9,1.4
	C186.1,75.2,186.9,78.5,186.9,78.5z M207.5,82.2L195,85.3l0.7,2.7c4.2-1,8.3-2.2,12.4-3.3L207.5,82.2z M209.2,88.9
	c-10.3,3-20.8,5.5-31.4,7.4c0.6,0.8,1.4,1.4,2.3,1.9l0,0c10-1.9,19.9-4.3,29.6-7.2L209.2,88.9z M208.4,85.6
	c-10.7,3.1-21.5,5.6-32.4,7.6l0,0c0.3,0.8,0.7,1.5,1.1,2.2l0,0c10.7-1.9,21.4-4.4,31.9-7.5L208.4,85.6z M181.6,99.1
	c2.1,1,4.5,1.3,6.8,0.8c5-0.9,17-3.9,22.2-5.5l-0.6-2.3C200.7,94.9,191.2,97.2,181.6,99.1z"/>
<path class="st1" d="M252.5,69.3c-5.2,2.4-10.6,4.6-16.1,6.8l-0.4-1c5.5-2.2,10.9-4.4,16.1-6.8L252.5,69.3z M3.7,97.8l25.2-0.1v-1.1
	L3.7,96.7L3.7,97.8z M103.2,96.3l-36.9,0.2c0.1,0.4,0.3,0.7,0.4,1.1l36.5-0.2V96.3z M285.8,51.3l-0.2-0.4l-0.1-0.3
	c-4.1,2.6-8.5,5.1-13,7.6c0,0.3,0,0.6-0.2,0.8l0,0c-1.1,1-2.3,1.7-3.7,2c-0.3,0.1-0.6,0-0.9-0.1l-0.2-0.1c-3.5,1.8-7.1,3.6-10.7,5.3
	l0.5,0.9c9.9-4.6,19.4-9.8,28.7-15.6L285.8,51.3z M62.2,96.5L37,96.6v1.1l25.2-0.1L62.2,96.5z M214.2,83.9c6.5-2,12.9-4.2,19.1-6.6
	l-0.4-1c-6.2,2.4-12.6,4.6-19.1,6.6L214.2,83.9z M208.1,84.6c-4.1,1.2-8.2,2.3-12.4,3.3l0.2,1l-3.4,0.9c-0.8,0.1-1.6-0.1-2.3-0.5
	c-4.9,1.1-9.8,2.1-14.7,3l0,0c0.1,0.3,0.2,0.6,0.4,1c10.9-2,21.8-4.5,32.4-7.6L208.1,84.6z M128.1,96.2L108,96.2v1.1l20.1-0.1
	L128.1,96.2z M170.8,93c-7.8,1.2-15.6,2.1-23.4,2.6l0.1,1c7.8-0.5,15.6-1.4,23.4-2.6L170.8,93z M62.2,99.9L37,100v1.1l25.2-0.1V99.9
	z M209,87.9c-10.5,3.1-21.1,5.6-31.8,7.5c0.2,0.3,0.4,0.6,0.7,0.9l0,0c10.6-1.9,21-4.4,31.4-7.4L209,87.9z M171.2,96.4
	c-7.8,1.2-15.6,2.1-23.4,2.7l0.1,1.1c7.8-0.5,15.6-1.4,23.4-2.7L171.2,96.4z M128.1,99.6L108,99.7v1.1l20.1-0.1L128.1,99.6z
	 M286.3,53.9c0-0.1,0-0.1,0-0.2c-9.1,5.7-18.4,10.8-28.1,15.4l0.5,0.9c9.5-4.5,18.7-9.5,27.6-15.1C286.4,54.6,286.4,54.3,286.3,53.9
	z M3.6,101.2l25.2-0.1v-1.1l-25.2,0.1L3.6,101.2z M253.3,71.4c-5.2,2.4-10.6,4.7-16.1,6.8l0.4,1c5.5-2.2,10.9-4.4,16.1-6.8
	L253.3,71.4z M103.2,99.7L68,99.9c0.2,0.4,0.5,0.7,0.7,1.1l34.5-0.2L103.2,99.7z M215.4,87c6.5-2,12.8-4.2,19.1-6.6l-0.4-1
	c-6.2,2.4-12.6,4.6-19.1,6.6L215.4,87z M3.6,104.7l25.2-0.1v-1.1l-25.2,0.1V104.7z M285.9,57.7c0-0.1,0-0.2,0-0.2
	c-8.5,5.3-17.2,10.1-26.2,14.4l0.5,0.9c8.6-4.1,17-8.7,25.1-13.7C285.5,58.6,285.7,58.2,285.9,57.7L285.9,57.7z M216.6,90.1
	c6.5-2.1,12.8-4.3,19-6.7l-0.4-1c-6.2,2.4-12.5,4.6-19,6.7L216.6,90.1z M209.8,91.1c-9.7,2.9-19.6,5.3-29.6,7.2
	c0.1,0.1,0.2,0.2,0.3,0.2c0.3,0.1,0.6,0.3,1,0.6h0.1c9.6-1.9,19.1-4.2,28.4-7L209.8,91.1z M171.6,99.8c-7.8,1.2-15.6,2.2-23.3,2.7
	l0.1,1.1c7.8-0.5,15.5-1.4,23.3-2.7L171.6,99.8z M62.2,103.4L37,103.5v1.1l25.2-0.1L62.2,103.4z M128.1,103.1l-20.1,0.1v1.1
	l20.1-0.1V103.1z M254.5,74.3c-5.2,2.4-10.6,4.7-16.1,6.9l0.4,1c5.5-2.2,10.9-4.5,16.1-6.9L254.5,74.3z M72.5,104.3l12.5,0
	c0.4-0.3,0.8-0.7,1.2-1.1l-15.1,0.1C71.5,103.7,72,104.1,72.5,104.3L72.5,104.3z M103.2,103.1l-16.6,0.1v1.1l16.6-0.1V103.1z"/>
</svg>
